<svg xmlns="http://www.w3.org/2000/svg" xmlns:xlink="http://www.w3.org/1999/xlink" width="1080" zoomAndPan="magnify" viewBox="0 0 810 809.999993" height="1080" preserveAspectRatio="xMidYMid meet" version="1.0"><defs><clipPath id="9d4199d793"><path d="M 95.535156 110.074219 L 714.285156 110.074219 L 714.285156 728.824219 L 95.535156 728.824219 Z M 95.535156 110.074219 " clip-rule="nonzero"/></clipPath></defs><g clip-path="url(#9d4199d793)"><path fill="#000000" d="M 404.910156 153.042969 C 551.808594 153.042969 671.316406 272.550781 671.316406 419.449219 C 671.316406 566.34375 551.808594 685.855469 404.910156 685.855469 C 258.015625 685.855469 138.503906 566.34375 138.503906 419.449219 C 138.503906 272.550781 258.015625 153.042969 404.910156 153.042969 M 404.910156 110.074219 C 234.046875 110.074219 95.535156 248.585938 95.535156 419.449219 C 95.535156 590.3125 234.046875 728.824219 404.910156 728.824219 C 575.773438 728.824219 714.285156 590.3125 714.285156 419.449219 C 714.285156 248.585938 575.773438 110.074219 404.910156 110.074219 Z M 404.910156 110.074219 " fill-opacity="1" fill-rule="nonzero"/><path stroke-linecap="butt" transform="matrix(8.593749, 0, 0, 8.593749, 95.536616, 110.073062)" fill="none" stroke-linejoin="miter" d="M 59.204837 12.795136 L 12.794832 59.205142 " stroke="#000000" stroke-width="5" stroke-opacity="1" stroke-miterlimit="10"/></g><path fill="#000000" d="M 309.203125 252.636719 C 290.140625 261.800781 275.652344 279.570312 269.550781 299.699219 C 267.59375 306.152344 271.882812 314.039062 278.550781 315.554688 C 285.511719 317.140625 292.3125 313.460938 294.410156 306.554688 C 295.039062 304.46875 295.769531 302.425781 296.601562 300.414062 L 295.300781 303.496094 C 297.464844 298.382812 300.253906 293.601562 303.609375 289.183594 L 301.59375 291.792969 C 304.992188 287.402344 308.890625 283.464844 313.25 280.035156 L 310.644531 282.050781 C 314.25 279.265625 318.105469 276.871094 322.214844 274.898438 C 324.988281 273.5625 327.347656 270.066406 328.136719 267.191406 C 328.988281 264.105469 328.605469 260 326.839844 257.261719 C 322.804688 251.003906 315.71875 249.5 309.203125 252.636719 Z M 309.203125 252.636719 " fill-opacity="1" fill-rule="nonzero"/><path fill="#000000" d="M 260.949219 330.136719 C 253.222656 356.347656 253.285156 384.695312 261.15625 410.863281 C 263.097656 417.3125 270.28125 422.042969 277.011719 419.867188 C 283.53125 417.753906 288.097656 410.925781 286.015625 404.007812 C 284.308594 398.332031 283.042969 392.601562 282.035156 386.765625 C 281.804688 385.175781 281.765625 384.96875 281.921875 386.144531 C 281.808594 385.242188 281.707031 384.339844 281.613281 383.4375 C 281.472656 382.082031 281.351562 380.722656 281.257812 379.363281 C 281.046875 376.417969 280.9375 373.46875 280.929688 370.515625 C 280.921875 367.5625 281.011719 364.609375 281.207031 361.664062 C 281.296875 360.304688 281.410156 358.945312 281.539062 357.589844 C 281.628906 356.6875 281.726562 355.785156 281.835938 354.882812 C 281.695312 355.832031 281.691406 355.847656 281.828125 354.933594 C 282.699219 348.859375 284.074219 342.875 285.808594 336.992188 C 287.714844 330.527344 283.511719 322.664062 276.808594 321.136719 C 269.890625 319.558594 262.992188 323.214844 260.949219 330.136719 Z M 260.949219 330.136719 " fill-opacity="1" fill-rule="nonzero"/><path fill="#000000" d="M 254.054688 250.257812 C 213.316406 277.558594 194.035156 332.667969 211.480469 379.078125 C 213.929688 385.589844 220.1875 390.042969 227.335938 388.078125 C 233.585938 386.363281 238.800781 378.773438 236.339844 372.222656 C 223.121094 337.0625 235.179688 293.890625 267.066406 272.519531 C 272.84375 268.648438 275.359375 261.152344 271.691406 254.882812 C 268.339844 249.148438 259.863281 246.363281 254.054688 250.257812 Z M 254.054688 250.257812 " fill-opacity="1" fill-rule="nonzero"/><path fill="#000000" d="M 488.011719 275.636719 C 492.886719 278.214844 497.523438 281.191406 501.902344 284.546875 L 499.292969 282.53125 C 505.757812 287.542969 511.566406 293.320312 516.605469 299.765625 L 514.589844 297.15625 C 515.753906 298.660156 516.871094 300.191406 517.949219 301.757812 C 519.878906 304.558594 522.289062 306.753906 525.652344 307.683594 C 528.738281 308.53125 532.847656 308.148438 535.585938 306.382812 C 538.339844 304.609375 540.761719 301.964844 541.511719 298.679688 C 542.246094 295.441406 542.164062 291.582031 540.210938 288.746094 C 530.101562 274.074219 516.820312 261.730469 501.023438 253.375 C 497.988281 251.769531 494.457031 251.148438 491.09375 252.074219 C 488.101562 252.898438 484.863281 255.210938 483.386719 258 C 480.238281 263.960938 481.648438 272.269531 488.011719 275.636719 Z M 488.011719 275.636719 " fill-opacity="1" fill-rule="nonzero"/><path fill="#000000" d="M 529.816406 321.816406 C 532.375 328.074219 534.511719 334.488281 535.976562 341.09375 C 536.265625 342.394531 536.527344 343.703125 536.769531 345.015625 C 536.925781 345.886719 537.074219 346.757812 537.210938 347.632812 C 537.066406 346.394531 537.089844 346.5625 537.277344 348.144531 C 537.597656 351.199219 537.8125 354.257812 537.84375 357.335938 C 537.871094 360.402344 537.679688 363.433594 537.429688 366.488281 C 537.246094 368.066406 537.234375 368.222656 537.394531 366.960938 C 537.265625 367.824219 537.117188 368.6875 536.957031 369.546875 C 536.714844 370.839844 536.4375 372.125 536.128906 373.40625 C 534.351562 380.75 532.886719 384.171875 529.390625 390.304688 C 526.050781 396.167969 527.8125 404.667969 534.015625 407.941406 C 540.136719 411.179688 548.085938 409.578125 551.652344 403.320312 C 567.21875 375.996094 566.375 343.550781 554.675781 314.964844 C 552.132812 308.746094 545.996094 303.640625 538.820312 305.960938 C 532.824219 307.902344 527.082031 315.136719 529.816406 321.816406 Z M 529.816406 321.816406 " fill-opacity="1" fill-rule="nonzero"/><path fill="#000000" d="M 536.683594 264.914062 C 571.414062 288.539062 590.632812 333.75 583.167969 375.160156 C 581.933594 382.003906 585.03125 389.054688 592.171875 391.015625 C 598.417969 392.730469 606.789062 388.902344 608.027344 382.011719 C 617.660156 328.5625 594.660156 273.242188 549.695312 242.652344 C 543.933594 238.738281 535.402344 241.5625 532.058594 247.277344 C 528.335938 253.644531 530.910156 260.988281 536.683594 264.914062 Z M 536.683594 264.914062 " fill-opacity="1" fill-rule="nonzero"/><path fill="#000000" d="M 355.582031 290.695312 C 340.394531 294.765625 330.101562 304.398438 324.132812 318.808594 C 318.300781 332.886719 313.832031 349.269531 312.605469 364.410156 C 309.441406 403.457031 330.382812 441.664062 342.34375 477.605469 C 348.429688 495.890625 352.738281 514.703125 337.738281 529.738281 C 325.890625 541.613281 311.257812 550.140625 299.640625 562.367188 C 275.558594 587.71875 259.535156 620.289062 254.40625 654.871094 C 252.003906 671.101562 276.839844 678.105469 279.269531 661.726562 C 284.109375 629.050781 298.75 598.832031 322.625 575.804688 C 333.828125 565 347.75 557.15625 358.230469 545.617188 C 369.859375 532.816406 375.355469 517.066406 373.757812 499.734375 C 370.351562 462.808594 349.4375 428.875 341.023438 392.914062 C 336.992188 375.679688 338.554688 361.011719 343.121094 344.0625 C 346.417969 331.808594 348.71875 319.234375 362.433594 315.554688 C 378.441406 311.265625 371.652344 286.386719 355.578125 290.695312 Z M 355.582031 290.695312 " fill-opacity="1" fill-rule="nonzero"/><path fill="#000000" d="M 387.957031 304.671875 C 421.859375 292.527344 458.613281 319.375 472.855469 349.207031 C 489.785156 384.667969 481.871094 426.007812 464.449219 459.617188 C 455.605469 476.671875 443.820312 490.652344 444.765625 510.933594 C 445.644531 529.871094 453.703125 543.148438 468.25 554.730469 C 498.238281 578.609375 535.863281 606.578125 532.847656 649.476562 C 531.683594 666.035156 557.472656 665.960938 558.628906 649.476562 C 561.042969 615.136719 541.582031 584.820312 517.382812 562.214844 C 504.777344 550.445312 488.484375 541.269531 477.027344 528.496094 C 465.941406 516.132812 470.617188 499.878906 478.289062 487.4375 C 511.542969 433.519531 524.03125 356.984375 474.886719 307.898438 C 451.050781 284.089844 414.457031 267.863281 381.105469 279.8125 C 365.597656 285.367188 372.285156 310.289062 387.957031 304.671875 Z M 387.957031 304.671875 " fill-opacity="1" fill-rule="nonzero"/></svg>