<svg xmlns="http://www.w3.org/2000/svg" xmlns:xlink="http://www.w3.org/1999/xlink" width="1080" zoomAndPan="magnify" viewBox="0 0 810 809.999993" height="1080" preserveAspectRatio="xMidYMid meet" version="1.0"><defs><clipPath id="bf602fa008"><path d="M 103.617188 103.617188 L 706.617188 103.617188 L 706.617188 706.617188 L 103.617188 706.617188 Z M 103.617188 103.617188 " clip-rule="nonzero"/></clipPath></defs><g clip-path="url(#bf602fa008)"><path fill="#000000" d="M 405.117188 145.492188 C 548.277344 145.492188 664.742188 261.960938 664.742188 405.117188 C 664.742188 548.277344 548.277344 664.742188 405.117188 664.742188 C 261.960938 664.742188 145.492188 548.277344 145.492188 405.117188 C 145.492188 261.960938 261.960938 145.492188 405.117188 145.492188 M 405.117188 103.617188 C 238.605469 103.617188 103.617188 238.605469 103.617188 405.117188 C 103.617188 571.632812 238.605469 706.617188 405.117188 706.617188 C 571.632812 706.617188 706.617188 571.632812 706.617188 405.117188 C 706.617188 238.605469 571.632812 103.617188 405.117188 103.617188 Z M 405.117188 103.617188 " fill-opacity="1" fill-rule="nonzero"/><path stroke-linecap="butt" transform="matrix(8.375, 0, 0, 8.375, 103.618035, 103.618052)" fill="none" stroke-linejoin="miter" d="M 59.205121 12.795139 L 12.795141 59.205119 " stroke="#000000" stroke-width="5" stroke-opacity="1" stroke-miterlimit="10"/></g><path fill="#000000" d="M 416.308594 195.710938 C 379.183594 207.054688 343.558594 222.847656 310.289062 242.855469 C 301.863281 247.921875 302.074219 264.085938 313.289062 265.816406 C 343.527344 270.480469 363.617188 298.929688 394.269531 303.253906 C 413.714844 306 431.183594 297.351562 448.636719 289.988281 C 469.59375 281.144531 490.382812 271.914062 511.164062 262.667969 C 519.472656 258.96875 519.296875 244.730469 511.164062 240.972656 C 482.324219 227.65625 453.488281 214.335938 424.648438 201.019531 C 410.066406 194.285156 397.289062 215.933594 411.96875 222.714844 C 440.804688 236.03125 469.644531 249.351562 498.480469 262.667969 L 498.480469 240.972656 C 479.890625 249.246094 461.296875 257.53125 442.566406 265.492188 C 427.777344 271.777344 410.425781 282.027344 393.878906 277.695312 C 366.925781 270.640625 348.414062 245.976562 319.96875 241.585938 L 322.96875 264.546875 C 354.460938 245.609375 387.84375 230.675781 422.988281 219.9375 C 438.410156 215.226562 431.835938 190.96875 416.3125 195.710938 Z M 416.308594 195.710938 " fill-opacity="1" fill-rule="nonzero"/><path fill="#000000" d="M 316.0625 355.28125 C 288.578125 370.894531 261.097656 386.507812 233.613281 402.117188 C 226.863281 405.953125 225.054688 416.441406 231.070312 421.847656 C 244.96875 434.328125 259.339844 447.445312 276.703125 454.878906 C 291.703125 461.296875 308.105469 465.472656 324.421875 466.460938 C 342.328125 467.550781 358.445312 458.335938 373.46875 449.488281 C 389.289062 440.175781 402.84375 427.953125 419.613281 420.144531 C 428.015625 416.230469 427.621094 402.480469 419.613281 398.449219 C 390.261719 383.667969 361.804688 367.261719 334.304688 349.265625 C 320.734375 340.386719 308.132812 362.132812 321.625 370.960938 C 349.121094 388.957031 377.578125 405.363281 406.933594 420.144531 L 406.933594 398.449219 C 392.597656 405.121094 380.648438 414.796875 367.589844 423.511719 C 360.351562 428.339844 352.667969 431.898438 344.988281 435.921875 C 338.480469 439.332031 333.859375 441.667969 326.53125 441.441406 C 313.691406 441.039062 300.140625 437.515625 288.277344 432.671875 C 273.171875 426.507812 260.796875 414.824219 248.839844 404.082031 L 246.296875 423.8125 C 273.777344 408.199219 301.261719 392.589844 328.742188 376.976562 C 342.800781 368.992188 330.15625 347.277344 316.0625 355.28125 Z M 316.0625 355.28125 " fill-opacity="1" fill-rule="nonzero"/><path fill="#000000" d="M 434.777344 378.953125 L 463.917969 423.171875 L 478.488281 445.285156 C 482.945312 452.046875 487.058594 459.722656 493.8125 464.472656 C 500.597656 469.242188 508.226562 469.644531 516.238281 468.878906 C 525.042969 468.042969 533.84375 467.15625 542.648438 466.292969 C 560.746094 464.519531 578.839844 462.75 596.9375 460.976562 C 607.105469 459.980469 611.671875 451.226562 607.785156 442.074219 C 600.628906 425.214844 593.476562 408.359375 586.320312 391.503906 C 579.976562 376.558594 573.453125 362.175781 556.398438 357.460938 C 548.695312 355.332031 540.488281 355.511719 532.570312 355.488281 C 523.207031 355.460938 513.839844 355.4375 504.476562 355.410156 C 485.746094 355.359375 467.015625 355.308594 448.285156 355.257812 C 432.117188 355.214844 432.09375 380.339844 448.285156 380.382812 C 464.550781 380.425781 480.816406 380.472656 497.082031 380.515625 C 512.992188 380.558594 529.945312 378.972656 545.753906 380.917969 C 558.929688 382.539062 561.902344 397.765625 566.367188 408.285156 C 572.941406 423.773438 579.515625 439.261719 586.089844 454.753906 L 596.9375 435.851562 C 581.289062 437.382812 565.636719 438.917969 549.984375 440.449219 C 542.160156 441.214844 534.335938 441.984375 526.507812 442.75 C 521.824219 443.207031 511.691406 446.058594 507.816406 443.609375 C 505.585938 442.195312 503.996094 438.390625 502.609375 436.289062 L 496.136719 426.460938 L 483.183594 406.808594 L 456.472656 366.269531 C 447.613281 352.824219 425.847656 365.398438 434.777344 378.953125 Z M 434.777344 378.953125 " fill-opacity="1" fill-rule="nonzero"/><path fill="#000000" d="M 493.265625 259.109375 L 497.480469 363.386719 C 497.753906 370.167969 503.058594 375.949219 510.042969 375.949219 C 516.636719 375.949219 522.882812 370.195312 522.605469 363.386719 L 518.390625 259.109375 C 518.113281 252.328125 512.8125 246.546875 505.828125 246.546875 C 499.234375 246.546875 492.988281 252.296875 493.265625 259.109375 Z M 493.265625 259.109375 " fill-opacity="1" fill-rule="nonzero"/><path fill="#000000" d="M 305.421875 260.078125 C 306.589844 292.933594 307.757812 325.785156 308.921875 358.640625 C 309.164062 365.421875 314.523438 371.203125 321.484375 371.203125 C 328.105469 371.203125 334.289062 365.453125 334.046875 358.640625 C 332.882812 325.785156 331.714844 292.933594 330.546875 260.078125 C 330.304688 253.296875 324.945312 247.515625 317.984375 247.515625 C 311.363281 247.515625 305.179688 253.265625 305.421875 260.078125 Z M 305.421875 260.078125 " fill-opacity="1" fill-rule="nonzero"/><path fill="#000000" d="M 397.480469 298.34375 C 397.636719 332.207031 399.230469 366.035156 402.265625 399.761719 C 402.871094 406.515625 407.601562 412.324219 414.828125 412.324219 C 421.148438 412.324219 428 406.558594 427.390625 399.761719 C 424.355469 366.035156 422.761719 332.207031 422.605469 298.34375 C 422.53125 282.183594 397.40625 282.148438 397.480469 298.34375 Z M 397.480469 298.34375 " fill-opacity="1" fill-rule="nonzero"/><path fill="#000000" d="M 430.96875 372.136719 C 432.753906 402.207031 410.75 428.082031 398.136719 453.703125 C 392.523438 465.109375 387.90625 478 390.683594 490.859375 C 393.210938 502.566406 400.828125 513.429688 408.945312 521.988281 C 417.226562 530.71875 426.917969 538.625 436.570312 545.792969 C 445.675781 552.554688 455.898438 560.765625 466.746094 564.488281 C 481.570312 569.574219 500.101562 566.683594 515.507812 566.550781 C 529.753906 566.425781 549.171875 569.527344 561.933594 561.632812 C 575.644531 553.148438 580.214844 532.628906 586.078125 518.738281 C 594.15625 499.597656 602.234375 480.460938 610.3125 461.320312 C 612.96875 455.023438 612.152344 447.9375 605.804688 444.132812 C 600.566406 440.996094 591.25 442.398438 588.617188 448.640625 C 581.042969 466.582031 573.46875 484.527344 565.894531 502.46875 C 561.859375 512.035156 557.960938 521.671875 553.777344 531.175781 C 550.34375 538.988281 549.386719 540.933594 540.648438 541.203125 C 521.640625 541.792969 502.164062 542.382812 483.15625 541.6875 C 470.597656 541.226562 458.960938 531.542969 449.25 524.097656 C 439.542969 516.652344 428.554688 508.035156 421.464844 497.964844 C 412.605469 485.378906 414.898438 475.527344 421.886719 462.386719 C 436.75 434.4375 458.066406 405.339844 456.09375 372.136719 C 455.140625 356.066406 430.007812 355.957031 430.96875 372.136719 Z M 430.96875 372.136719 " fill-opacity="1" fill-rule="nonzero"/><path fill="#000000" d="M 491.230469 452.3125 C 481.082031 480.214844 479.601562 511.3125 465.566406 537.613281 C 462.375 543.597656 464.0625 551.285156 470.074219 554.800781 C 475.769531 558.132812 484.058594 556.300781 487.261719 550.296875 C 502.542969 521.660156 504.503906 489.105469 515.457031 458.992188 C 517.777344 452.617188 512.851562 445.234375 506.683594 443.539062 C 499.691406 441.617188 493.558594 445.914062 491.230469 452.3125 Z M 491.230469 452.3125 " fill-opacity="1" fill-rule="nonzero"/><path fill="#000000" d="M 228.324219 423.730469 C 228.007812 452.996094 226.816406 482.402344 227.394531 511.660156 C 227.640625 524.207031 231.5625 534.972656 242.347656 542.15625 C 252.976562 549.238281 266.882812 552.105469 278.878906 556.070312 C 304.3125 564.472656 333.421875 579.238281 360.589844 571.074219 C 372.609375 567.457031 383.867188 560.964844 395.085938 555.449219 C 406.285156 549.941406 417.484375 544.4375 428.679688 538.933594 C 443.191406 531.800781 430.472656 510.121094 416 517.238281 C 397.390625 526.386719 378.921875 536.84375 359.75 544.742188 C 337.515625 553.902344 313.523438 541.078125 292.230469 534.046875 C 281.742188 530.582031 270.558594 527.84375 260.425781 523.433594 C 250.097656 518.941406 252.519531 509.886719 252.628906 500.074219 L 253.449219 423.730469 C 253.621094 407.558594 228.5 407.546875 228.324219 423.730469 Z M 228.324219 423.730469 " fill-opacity="1" fill-rule="nonzero"/><path fill="#000000" d="M 324.085938 453.339844 C 325.117188 487.785156 326.144531 522.226562 327.175781 556.667969 C 327.65625 572.800781 352.78125 572.867188 352.300781 556.667969 C 351.269531 522.226562 350.242188 487.785156 349.210938 453.339844 C 348.730469 437.210938 323.601562 437.140625 324.085938 453.339844 Z M 324.085938 453.339844 " fill-opacity="1" fill-rule="nonzero"/></svg>