<svg xmlns="http://www.w3.org/2000/svg" xmlns:xlink="http://www.w3.org/1999/xlink" width="1080" zoomAndPan="magnify" viewBox="0 0 810 809.999993" height="1080" preserveAspectRatio="xMidYMid meet" version="1.0"><path fill="#ffffff" d="M 494.433594 527.28125 L 337.371094 527.28125 L 304.304688 276.53125 L 526.582031 276.53125 Z M 352.066406 512.585938 L 480.65625 512.585938 L 510.964844 292.148438 L 321.757812 292.148438 Z M 352.066406 512.585938 " fill-opacity="1" fill-rule="nonzero"/><path fill="#ffffff" d="M 439.324219 288.472656 C 439.324219 292.148438 436.570312 295.820312 431.976562 295.820312 C 428.300781 295.820312 424.628906 293.066406 424.628906 288.472656 C 424.628906 284.796875 427.382812 281.125 431.976562 281.125 C 436.570312 281.125 439.324219 284.796875 439.324219 288.472656 " fill-opacity="1" fill-rule="nonzero"/><path fill="#ffffff" d="M 439.324219 260.917969 C 439.324219 264.59375 436.570312 268.265625 431.976562 268.265625 C 428.300781 268.265625 424.628906 265.511719 424.628906 260.917969 C 424.628906 257.242188 427.382812 253.570312 431.976562 253.570312 C 436.570312 254.488281 439.324219 257.242188 439.324219 260.917969 " fill-opacity="1" fill-rule="nonzero"/><path fill="#ffffff" d="M 461.367188 266.429688 C 461.367188 270.101562 458.613281 273.777344 454.019531 273.777344 C 450.347656 273.777344 446.671875 271.019531 446.671875 266.429688 C 446.671875 262.753906 449.425781 259.082031 454.019531 259.082031 C 457.695312 260 461.367188 262.753906 461.367188 266.429688 " fill-opacity="1" fill-rule="nonzero"/><path fill="#ffffff" d="M 422.792969 305.003906 C 422.792969 308.679688 420.035156 312.351562 415.445312 312.351562 C 411.769531 312.351562 408.09375 309.597656 408.09375 305.003906 C 408.09375 301.332031 410.851562 297.65625 415.445312 297.65625 C 420.035156 297.65625 422.792969 301.332031 422.792969 305.003906 " fill-opacity="1" fill-rule="nonzero"/><path fill="#ffffff" d="M 439.324219 316.027344 C 439.324219 319.703125 436.570312 323.375 431.976562 323.375 C 428.300781 323.375 424.628906 320.621094 424.628906 316.027344 C 424.628906 312.351562 427.382812 308.679688 431.976562 308.679688 C 436.570312 308.679688 439.324219 312.351562 439.324219 316.027344 " fill-opacity="1" fill-rule="nonzero"/><path fill="#ffffff" d="M 422.792969 332.558594 C 422.792969 336.234375 420.035156 339.90625 415.445312 339.90625 C 411.769531 339.90625 408.09375 337.152344 408.09375 332.558594 C 408.09375 328.886719 410.851562 325.210938 415.445312 325.210938 C 420.035156 325.210938 422.792969 327.96875 422.792969 332.558594 " fill-opacity="1" fill-rule="nonzero"/><path fill="#ffffff" d="M 439.324219 348.175781 C 439.324219 351.847656 436.570312 355.523438 431.976562 355.523438 C 428.300781 355.523438 424.628906 352.765625 424.628906 348.175781 C 424.628906 344.5 427.382812 340.828125 431.976562 340.828125 C 436.570312 341.746094 439.324219 344.5 439.324219 348.175781 " fill-opacity="1" fill-rule="nonzero"/><path fill="#ffffff" d="M 400.746094 265.511719 C 402.585938 261.835938 406.257812 260 409.933594 261.835938 C 413.605469 263.671875 415.445312 267.347656 413.605469 271.019531 C 411.769531 274.695312 408.09375 276.53125 404.421875 274.695312 C 400.746094 273.777344 398.910156 269.183594 400.746094 265.511719 " fill-opacity="1" fill-rule="nonzero"/><path fill="#ffffff" d="M 389.726562 285.71875 C 391.5625 282.042969 395.238281 280.207031 398.910156 282.042969 C 402.585938 283.878906 404.421875 287.554688 402.585938 291.226562 C 400.746094 294.902344 397.074219 296.738281 393.398438 294.902344 C 389.726562 293.984375 387.890625 289.390625 389.726562 285.71875 " fill-opacity="1" fill-rule="nonzero"/><path fill="#ffffff" d="M 369.519531 261.835938 C 371.355469 258.164062 375.03125 256.324219 378.703125 258.164062 C 382.378906 260 384.214844 263.671875 382.378906 267.347656 C 380.539062 271.019531 376.867188 272.859375 373.191406 271.019531 C 370.4375 270.101562 368.601562 265.511719 369.519531 261.835938 " fill-opacity="1" fill-rule="nonzero"/><path fill="#ffffff" d="M 369.519531 232.445312 C 371.355469 228.769531 375.03125 226.933594 378.703125 228.769531 C 382.378906 230.609375 384.214844 234.28125 382.378906 237.957031 C 380.539062 241.628906 376.867188 243.464844 373.191406 241.628906 C 369.519531 240.710938 367.683594 236.117188 369.519531 232.445312 " fill-opacity="1" fill-rule="nonzero"/><path fill="#ffffff" d="M 507.292969 451.046875 C 503.617188 451.046875 500.863281 450.125 499.945312 450.125 L 502.699219 435.429688 C 502.699219 435.429688 516.476562 437.269531 527.5 429 C 536.683594 421.652344 543.113281 408.792969 544.949219 389.507812 C 546.789062 368.382812 544.03125 352.765625 535.765625 344.5 C 528.417969 337.152344 518.3125 338.070312 517.394531 338.988281 L 514.640625 325.210938 C 515.558594 325.210938 532.089844 322.457031 544.949219 334.398438 C 556.890625 345.417969 561.484375 364.707031 559.644531 391.34375 C 557.808594 414.304688 549.542969 430.839844 536.683594 440.941406 C 525.664062 449.207031 513.722656 451.046875 507.292969 451.046875 Z M 507.292969 451.046875 " fill-opacity="1" fill-rule="nonzero"/><path fill="#ffffff" d="M 175.71875 634.742188 L 155.511719 634.742188 L 151.835938 645.765625 L 139.898438 645.765625 L 160.101562 589.738281 L 172.960938 589.738281 L 193.167969 645.765625 L 180.308594 645.765625 Z M 172.042969 624.640625 L 164.695312 602.597656 L 157.347656 624.640625 Z M 172.042969 624.640625 " fill-opacity="1" fill-rule="nonzero"/><path fill="#ffffff" d="M 222.5625 645.765625 L 198.679688 645.765625 L 198.679688 589.738281 L 222.5625 589.738281 C 226.234375 589.738281 228.988281 589.738281 230.828125 590.65625 C 234.5 591.574219 238.175781 594.328125 240.011719 598.003906 C 241.847656 600.757812 243.6875 603.515625 243.6875 607.1875 C 243.6875 610.863281 244.605469 613.617188 244.605469 616.375 C 244.605469 623.722656 242.765625 630.152344 240.011719 635.660156 C 237.257812 643.007812 230.828125 645.765625 222.5625 645.765625 Z M 231.746094 604.433594 C 229.910156 601.675781 226.234375 599.839844 220.722656 599.839844 L 209.703125 599.839844 L 209.703125 636.582031 L 220.722656 636.582031 C 226.234375 636.582031 229.910156 633.824219 232.664062 628.3125 C 233.582031 625.558594 234.5 621.882812 234.5 617.292969 C 233.582031 611.78125 233.582031 607.1875 231.746094 604.433594 Z M 231.746094 604.433594 " fill-opacity="1" fill-rule="nonzero"/><path fill="#ffffff" d="M 278.589844 645.765625 L 254.707031 645.765625 L 254.707031 589.738281 L 278.589844 589.738281 C 282.261719 589.738281 285.019531 589.738281 286.855469 590.65625 C 290.527344 591.574219 294.203125 594.328125 296.039062 598.003906 C 297.875 600.757812 299.714844 603.515625 299.714844 607.1875 C 299.714844 610.863281 300.632812 613.617188 300.632812 616.375 C 300.632812 623.722656 298.796875 630.152344 296.039062 635.660156 C 293.285156 643.007812 286.855469 645.765625 278.589844 645.765625 Z M 287.773438 604.433594 C 285.9375 601.675781 282.261719 599.839844 276.75 599.839844 L 265.730469 599.839844 L 265.730469 636.582031 L 276.75 636.582031 C 282.261719 636.582031 285.9375 633.824219 288.691406 628.3125 C 289.609375 625.558594 290.527344 621.882812 290.527344 617.292969 C 289.609375 611.78125 289.609375 607.1875 287.773438 604.433594 Z M 287.773438 604.433594 " fill-opacity="1" fill-rule="nonzero"/><path fill="#ffffff" d="M 355.742188 645.765625 L 344.71875 645.765625 L 344.71875 608.105469 L 331.859375 608.105469 L 331.859375 600.757812 C 335.535156 600.757812 337.371094 600.757812 339.207031 599.839844 C 341.046875 598.921875 342.882812 598.003906 344.71875 597.085938 C 345.636719 596.167969 346.558594 594.328125 346.558594 593.410156 C 346.558594 592.492188 346.558594 591.574219 346.558594 591.574219 L 355.742188 591.574219 Z M 355.742188 645.765625 " fill-opacity="1" fill-rule="nonzero"/><path fill="#ffffff" d="M 417.28125 638.417969 C 420.035156 638.417969 421.871094 638.417969 423.710938 637.5 C 427.382812 636.582031 428.300781 633.824219 428.300781 631.070312 C 428.300781 629.230469 427.382812 627.394531 425.546875 626.476562 C 423.710938 625.558594 420.953125 624.640625 418.199219 623.722656 L 412.6875 622.804688 C 407.175781 621.882812 402.585938 620.046875 400.746094 618.210938 C 397.074219 615.453125 395.238281 611.78125 395.238281 606.269531 C 395.238281 601.675781 397.074219 597.085938 400.746094 593.410156 C 404.421875 589.738281 409.933594 588.820312 416.363281 588.820312 C 421.871094 588.820312 427.382812 590.65625 431.058594 593.410156 C 435.648438 596.167969 437.488281 600.757812 437.488281 607.1875 L 426.464844 607.1875 C 426.464844 603.515625 424.628906 601.675781 421.871094 599.839844 C 420.035156 598.921875 418.199219 598.003906 415.441406 598.003906 C 412.6875 598.003906 409.933594 598.921875 408.09375 599.839844 C 406.257812 600.757812 405.339844 602.597656 405.339844 605.351562 C 405.339844 607.1875 406.257812 609.027344 408.09375 609.945312 C 409.015625 610.863281 411.769531 611.78125 415.441406 612.699219 L 424.628906 615.453125 C 429.21875 616.375 431.976562 618.210938 433.8125 619.128906 C 437.488281 621.882812 438.40625 625.558594 438.40625 630.152344 C 438.40625 635.660156 436.570312 639.335938 432.894531 643.007812 C 429.21875 646.683594 423.710938 648.519531 416.363281 648.519531 C 409.015625 648.519531 403.503906 646.683594 398.910156 643.929688 C 394.316406 640.253906 392.480469 635.660156 392.480469 630.152344 L 403.503906 630.152344 C 403.503906 632.90625 404.421875 634.742188 405.339844 635.660156 C 409.015625 636.582031 412.6875 638.417969 417.28125 638.417969 Z M 417.28125 638.417969 " fill-opacity="1" fill-rule="nonzero"/><path fill="#ffffff" d="M 488.003906 642.089844 C 483.410156 645.765625 478.820312 647.601562 472.390625 647.601562 C 464.125 647.601562 457.695312 644.847656 453.101562 640.253906 C 448.507812 634.742188 445.753906 628.3125 445.753906 619.128906 C 445.753906 609.027344 448.507812 601.675781 454.019531 596.167969 C 458.613281 591.574219 464.125 588.820312 471.472656 588.820312 C 480.65625 588.820312 488.003906 591.574219 491.679688 598.003906 C 494.433594 601.675781 495.351562 605.351562 495.351562 608.105469 L 483.410156 608.105469 C 482.492188 605.351562 481.574219 603.515625 480.65625 601.675781 C 478.820312 598.921875 475.144531 598.003906 471.472656 598.003906 C 466.878906 598.003906 464.125 599.839844 461.367188 603.515625 C 458.613281 607.1875 457.695312 611.78125 457.695312 618.210938 C 457.695312 624.640625 458.613281 629.234375 461.367188 631.988281 C 464.125 634.742188 466.878906 636.582031 471.472656 636.582031 C 475.144531 636.582031 478.820312 635.660156 480.65625 632.90625 C 481.574219 631.070312 482.492188 629.234375 483.410156 626.476562 L 496.269531 626.476562 C 495.351562 632.90625 492.597656 638.417969 488.003906 642.089844 Z M 488.003906 642.089844 " fill-opacity="1" fill-rule="nonzero"/><path fill="#ffffff" d="M 529.335938 647.601562 C 521.070312 647.601562 515.558594 645.765625 510.964844 641.171875 C 505.457031 635.660156 502.699219 628.3125 502.699219 618.210938 C 502.699219 608.105469 505.457031 599.839844 510.964844 595.25 C 515.558594 590.65625 521.070312 588.820312 529.335938 588.820312 C 537.601562 588.820312 543.113281 590.65625 547.707031 595.25 C 553.21875 600.757812 555.972656 608.105469 555.972656 618.210938 C 555.972656 628.3125 553.21875 635.660156 547.707031 641.171875 C 544.03125 645.765625 537.601562 647.601562 529.335938 647.601562 Z M 540.359375 632.90625 C 543.113281 629.230469 544.03125 624.640625 544.03125 618.210938 C 544.03125 611.78125 543.113281 607.1875 540.359375 603.515625 C 537.601562 599.839844 533.929688 598.003906 529.335938 598.003906 C 524.742188 598.003906 521.070312 599.839844 518.3125 603.515625 C 515.558594 607.1875 514.640625 611.78125 514.640625 618.210938 C 514.640625 624.640625 515.558594 629.230469 518.3125 632.90625 C 521.070312 636.582031 524.742188 638.417969 529.335938 638.417969 C 533.929688 638.417969 537.601562 635.660156 540.359375 632.90625 Z M 540.359375 632.90625 " fill-opacity="1" fill-rule="nonzero"/><path fill="#ffffff" d="M 589.957031 647.601562 C 581.691406 647.601562 576.179688 645.765625 571.585938 641.171875 C 566.074219 635.660156 563.320312 628.3125 563.320312 618.210938 C 563.320312 608.105469 566.074219 599.839844 571.585938 595.25 C 576.179688 590.65625 581.691406 588.820312 589.957031 588.820312 C 598.222656 588.820312 603.734375 590.65625 608.324219 595.25 C 613.835938 600.757812 616.59375 608.105469 616.59375 618.210938 C 616.59375 628.3125 613.835938 635.660156 608.324219 641.171875 C 603.734375 645.765625 598.222656 647.601562 589.957031 647.601562 Z M 600.976562 632.90625 C 603.734375 629.230469 604.652344 624.640625 604.652344 618.210938 C 604.652344 611.78125 603.734375 607.1875 600.976562 603.515625 C 598.222656 599.839844 594.550781 598.003906 589.957031 598.003906 C 585.363281 598.003906 581.691406 599.839844 578.933594 603.515625 C 576.179688 607.1875 575.261719 611.78125 575.261719 618.210938 C 575.261719 624.640625 576.179688 629.230469 578.933594 632.90625 C 581.691406 636.582031 585.363281 638.417969 589.957031 638.417969 C 594.550781 638.417969 598.222656 635.660156 600.976562 632.90625 Z M 600.976562 632.90625 " fill-opacity="1" fill-rule="nonzero"/><path fill="#ffffff" d="M 649.65625 625.558594 L 637.71875 625.558594 L 637.71875 645.765625 L 625.777344 645.765625 L 625.777344 589.738281 L 649.65625 589.738281 C 655.167969 589.738281 659.761719 591.574219 663.433594 594.328125 C 667.109375 597.085938 668.027344 601.675781 668.027344 608.105469 C 668.027344 614.535156 666.191406 619.128906 663.433594 621.882812 C 660.679688 624.640625 655.167969 625.558594 649.65625 625.558594 Z M 655.167969 614.535156 C 657.007812 613.617188 657.007812 610.863281 657.007812 608.105469 C 657.007812 605.351562 656.085938 603.515625 655.167969 601.675781 C 653.332031 600.757812 651.496094 599.839844 648.738281 599.839844 L 637.71875 599.839844 L 637.71875 616.375 L 648.738281 616.375 C 651.496094 616.375 653.332031 615.453125 655.167969 614.535156 Z M 655.167969 614.535156 " fill-opacity="1" fill-rule="nonzero"/><path fill="#ffffff" d="M 295.121094 670.5625 L 295.121094 680.667969 L 278.589844 680.667969 L 278.589844 726.59375 L 266.648438 726.59375 L 266.648438 680.667969 L 250.117188 680.667969 L 250.117188 670.5625 Z M 295.121094 670.5625 " fill-opacity="1" fill-rule="nonzero"/><path fill="#ffffff" d="M 325.429688 728.429688 C 317.164062 728.429688 311.652344 726.59375 307.0625 722 C 301.550781 716.488281 298.796875 709.140625 298.796875 699.039062 C 298.796875 688.933594 301.550781 680.667969 307.0625 676.074219 C 311.652344 671.484375 317.164062 669.644531 325.429688 669.644531 C 333.699219 669.644531 339.207031 671.484375 343.800781 676.074219 C 349.3125 681.585938 352.066406 688.933594 352.066406 699.039062 C 352.066406 709.140625 349.3125 716.488281 343.800781 722 C 339.207031 725.671875 333.699219 728.429688 325.429688 728.429688 Z M 336.453125 712.816406 C 339.207031 709.140625 340.128906 704.546875 340.128906 698.117188 C 340.128906 691.691406 339.207031 687.097656 336.453125 683.421875 C 333.699219 679.75 330.023438 677.910156 325.429688 677.910156 C 320.839844 677.910156 317.164062 679.75 314.410156 683.421875 C 311.652344 687.097656 310.734375 691.6875 310.734375 698.117188 C 310.734375 704.546875 311.652344 709.140625 314.410156 712.816406 C 317.164062 716.488281 320.839844 718.324219 325.429688 718.324219 C 330.023438 718.324219 333.699219 716.488281 336.453125 712.816406 Z M 336.453125 712.816406 " fill-opacity="1" fill-rule="nonzero"/><path fill="#ffffff" d="M 393.398438 726.59375 L 382.378906 726.59375 L 382.378906 670.5625 L 398.910156 670.5625 L 409.015625 714.652344 L 419.117188 670.5625 L 435.648438 670.5625 L 435.648438 726.59375 L 424.628906 726.59375 L 424.628906 688.933594 C 424.628906 688.015625 424.628906 686.179688 424.628906 684.339844 C 424.628906 682.503906 424.628906 680.667969 424.628906 679.75 L 413.605469 726.59375 L 402.585938 726.59375 L 392.480469 679.75 C 392.480469 680.667969 392.480469 682.503906 392.480469 684.339844 C 392.480469 686.179688 392.480469 688.015625 392.480469 688.933594 L 392.480469 726.59375 Z M 393.398438 726.59375 " fill-opacity="1" fill-rule="nonzero"/><path fill="#ffffff" d="M 480.65625 704.546875 L 480.65625 670.5625 L 492.597656 670.5625 L 492.597656 704.546875 C 492.597656 710.058594 491.679688 714.652344 489.839844 718.324219 C 486.167969 724.753906 479.738281 727.511719 470.554688 727.511719 C 461.367188 727.511719 454.019531 724.753906 451.265625 718.324219 C 449.425781 714.652344 448.507812 710.058594 448.507812 704.546875 L 448.507812 670.5625 L 459.53125 670.5625 L 459.53125 704.546875 C 459.53125 708.222656 459.53125 710.976562 460.449219 712.816406 C 462.285156 715.570312 465.042969 717.40625 469.632812 717.40625 C 474.226562 717.40625 476.980469 715.570312 478.820312 712.816406 C 479.738281 711.894531 480.65625 709.140625 480.65625 704.546875 Z M 480.65625 704.546875 " fill-opacity="1" fill-rule="nonzero"/><path fill="#ffffff" d="M 537.601562 724.753906 C 534.847656 726.59375 531.171875 727.511719 526.582031 727.511719 C 519.234375 727.511719 512.804688 724.753906 508.210938 720.164062 C 503.617188 714.652344 500.863281 708.222656 500.863281 699.039062 C 500.863281 689.851562 503.617188 682.503906 508.210938 676.992188 C 512.804688 671.484375 520.152344 668.726562 527.5 668.726562 C 534.847656 668.726562 540.359375 670.5625 544.949219 674.238281 C 549.542969 677.914062 551.378906 682.503906 552.296875 688.015625 L 540.359375 688.015625 C 539.441406 684.34375 537.601562 681.585938 533.929688 679.75 C 532.089844 678.832031 530.253906 678.832031 527.5 678.832031 C 522.90625 678.832031 519.234375 680.667969 516.476562 684.34375 C 513.722656 688.015625 511.886719 692.609375 511.886719 699.957031 C 511.886719 706.386719 513.722656 711.898438 516.476562 714.652344 C 519.234375 717.40625 522.90625 719.246094 527.5 719.246094 C 531.171875 719.246094 534.847656 718.324219 536.683594 715.570312 C 538.519531 712.816406 540.359375 710.058594 541.277344 706.386719 L 528.417969 706.386719 L 528.417969 697.199219 L 551.378906 697.199219 L 551.378906 727.511719 L 544.03125 727.511719 L 543.113281 720.164062 C 541.277344 722 539.441406 723.835938 537.601562 724.753906 Z M 537.601562 724.753906 " fill-opacity="1" fill-rule="nonzero"/><path fill="#ffffff" d="M 541.277344 64.363281 L 439.324219 132.328125 C 416.363281 118.550781 386.050781 117.632812 361.253906 134.167969 C 328.1875 156.210938 319.003906 201.214844 341.046875 234.28125 C 363.089844 267.347656 408.09375 276.53125 441.160156 254.488281 C 463.203125 239.792969 474.226562 214.992188 473.308594 190.195312 L 578.015625 120.390625 C 593.628906 110.285156 597.304688 89.160156 587.199219 73.546875 C 577.097656 57.933594 556.890625 54.257812 541.277344 64.363281 Z M 431.976562 239.792969 C 407.175781 256.324219 372.273438 249.894531 355.742188 224.179688 C 339.207031 199.378906 345.636719 164.476562 371.355469 147.945312 C 396.15625 131.410156 431.058594 137.839844 447.589844 163.558594 C 464.125 188.355469 457.695312 223.261719 431.976562 239.792969 Z M 568.832031 105.695312 L 470.554688 170.90625 C 468.714844 164.476562 465.960938 158.964844 462.285156 153.453125 C 459.53125 149.78125 456.777344 146.105469 454.019531 143.351562 L 551.378906 79.058594 C 558.726562 74.464844 568.832031 76.300781 573.421875 83.648438 C 578.015625 90.996094 576.179688 101.101562 568.832031 105.695312 Z M 568.832031 105.695312 " fill-opacity="1" fill-rule="nonzero"/><path fill="#ffffff" d="M 413.605469 289.390625 C 413.605469 293.984375 417.28125 297.65625 421.871094 297.65625 C 426.464844 297.65625 430.140625 293.984375 430.140625 289.390625 C 430.140625 284.796875 426.464844 281.125 421.871094 281.125 C 417.28125 281.125 413.605469 284.796875 413.605469 289.390625 Z M 413.605469 289.390625 " fill-opacity="1" fill-rule="nonzero"/><path fill="#ffffff" d="M 432.894531 262.753906 C 428.300781 262.753906 424.628906 266.429688 424.628906 271.019531 C 424.628906 275.613281 428.300781 279.289062 432.894531 279.289062 C 437.488281 279.289062 441.160156 275.613281 441.160156 271.019531 C 441.160156 266.429688 437.488281 262.753906 432.894531 262.753906 Z M 432.894531 262.753906 " fill-opacity="1" fill-rule="nonzero"/><path fill="#ffffff" d="M 384.214844 283.878906 C 386.050781 279.289062 384.214844 274.695312 379.621094 273.777344 C 375.03125 271.941406 370.4375 273.777344 369.519531 278.371094 C 367.683594 282.960938 369.519531 287.554688 374.113281 288.472656 C 378.703125 290.308594 383.296875 287.554688 384.214844 283.878906 Z M 384.214844 283.878906 " fill-opacity="1" fill-rule="nonzero"/><path fill="#ffffff" d="M 393.398438 304.085938 C 397.992188 305.925781 402.585938 304.085938 403.503906 299.496094 C 405.339844 294.902344 403.503906 290.308594 398.910156 289.390625 C 394.316406 287.554688 389.726562 289.390625 388.808594 293.984375 C 386.96875 297.65625 388.808594 303.167969 393.398438 304.085938 " fill-opacity="1" fill-rule="nonzero"/><path fill="#ffffff" d="M 359.414062 258.164062 C 354.824219 256.324219 350.230469 258.164062 349.3125 262.753906 C 347.476562 267.347656 349.3125 271.941406 353.90625 272.859375 C 358.496094 274.695312 363.089844 272.859375 364.007812 268.265625 C 364.925781 264.59375 363.089844 260 359.414062 258.164062 Z M 359.414062 258.164062 " fill-opacity="1" fill-rule="nonzero"/><path fill="#ffffff" d="M 408.898438 233.109375 C 408.980469 233.644531 409.007812 234.183594 408.984375 234.726562 C 408.957031 235.269531 408.878906 235.804688 408.75 236.328125 C 408.617188 236.855469 408.4375 237.367188 408.207031 237.855469 C 407.976562 238.347656 407.699219 238.8125 407.378906 239.25 C 407.054688 239.6875 406.695312 240.085938 406.292969 240.453125 C 405.890625 240.816406 405.457031 241.140625 404.992188 241.421875 C 404.527344 241.699219 404.039062 241.933594 403.53125 242.117188 C 403.019531 242.300781 402.496094 242.433594 401.960938 242.515625 C 401.421875 242.597656 400.882812 242.625 400.339844 242.597656 C 399.800781 242.574219 399.265625 242.496094 398.738281 242.363281 C 398.210938 242.234375 397.703125 242.054688 397.210938 241.824219 C 396.71875 241.59375 396.253906 241.316406 395.820312 240.992188 C 395.382812 240.671875 394.980469 240.308594 394.613281 239.910156 C 394.25 239.507812 393.925781 239.074219 393.644531 238.609375 C 393.367188 238.144531 393.132812 237.65625 392.949219 237.144531 C 392.765625 236.636719 392.632812 236.113281 392.550781 235.574219 C 392.472656 235.039062 392.441406 234.5 392.46875 233.957031 C 392.492188 233.414062 392.570312 232.878906 392.703125 232.351562 C 392.832031 231.828125 393.011719 231.316406 393.246094 230.824219 C 393.476562 230.335938 393.75 229.871094 394.074219 229.433594 C 394.394531 228.996094 394.757812 228.597656 395.160156 228.230469 C 395.558594 227.863281 395.992188 227.542969 396.457031 227.261719 C 396.921875 226.980469 397.410156 226.75 397.921875 226.566406 C 398.433594 226.382812 398.957031 226.25 399.492188 226.167969 C 400.027344 226.085938 400.566406 226.058594 401.109375 226.085938 C 401.652344 226.109375 402.1875 226.1875 402.714844 226.316406 C 403.242188 226.449219 403.75 226.628906 404.242188 226.859375 C 404.730469 227.089844 405.195312 227.367188 405.632812 227.6875 C 406.070312 228.011719 406.472656 228.375 406.835938 228.773438 C 407.203125 229.175781 407.523438 229.609375 407.804688 230.074219 C 408.085938 230.539062 408.316406 231.027344 408.503906 231.535156 C 408.6875 232.046875 408.820312 232.570312 408.898438 233.109375 Z M 408.898438 233.109375 " fill-opacity="1" fill-rule="nonzero"/><path fill="#ffffff" d="M 396.15625 218.667969 C 397.992188 214.074219 396.15625 209.484375 391.5625 208.5625 C 386.96875 206.726562 382.378906 208.5625 381.460938 213.15625 C 379.621094 217.75 381.460938 222.339844 386.050781 223.261719 C 389.726562 225.097656 394.316406 222.339844 396.15625 218.667969 Z M 396.15625 218.667969 " fill-opacity="1" fill-rule="nonzero"/><path fill="#ffffff" d="M 415.445312 197.542969 C 410.851562 195.707031 406.257812 197.542969 405.339844 202.132812 C 403.503906 206.726562 405.339844 211.320312 409.933594 212.238281 C 414.523438 214.074219 419.117188 212.238281 420.035156 207.644531 C 421.871094 203.972656 420.035156 198.460938 415.445312 197.542969 Z M 415.445312 197.542969 " fill-opacity="1" fill-rule="nonzero"/><path fill="#ffffff" d="M 398.910156 188.355469 C 403.503906 190.195312 408.09375 188.355469 409.015625 183.765625 C 410.851562 179.171875 409.015625 174.578125 404.421875 173.660156 C 399.828125 171.824219 395.238281 173.660156 394.316406 178.253906 C 392.480469 181.929688 394.316406 186.519531 398.910156 188.355469 Z M 398.910156 188.355469 " fill-opacity="1" fill-rule="nonzero"/></svg>