<svg xmlns="http://www.w3.org/2000/svg" xmlns:xlink="http://www.w3.org/1999/xlink" width="1080" zoomAndPan="magnify" viewBox="0 0 810 809.999993" height="1080" preserveAspectRatio="xMidYMid meet" version="1.0"><path fill="#ffffff" d="M 482.398438 515.640625 L 309.972656 515.640625 L 273.671875 240.367188 L 517.6875 240.367188 Z M 325.097656 499.507812 L 466.265625 499.507812 L 499.539062 257.507812 L 291.824219 257.507812 Z M 325.097656 499.507812 " fill-opacity="1" fill-rule="nonzero"/><path fill="#ffffff" d="M 298.882812 349.265625 L 287.789062 336.15625 C 289.804688 334.140625 346.273438 288.765625 398.707031 309.941406 C 444.082031 328.089844 496.515625 309.941406 497.523438 309.941406 L 502.5625 326.074219 C 500.546875 327.082031 443.074219 346.242188 392.65625 326.074219 C 349.296875 308.933594 299.890625 349.265625 298.882812 349.265625 " fill-opacity="1" fill-rule="nonzero"/><path fill="#ffffff" d="M 422.90625 430.941406 C 418.871094 430.941406 413.832031 429.933594 408.789062 427.914062 C 403.746094 424.890625 396.6875 419.847656 393.664062 408.757812 C 393.664062 407.75 392.65625 405.734375 391.648438 405.734375 C 386.605469 404.722656 373.496094 412.789062 364.421875 420.859375 C 361.398438 423.882812 355.347656 423.882812 352.324219 420.859375 C 349.296875 417.832031 349.296875 411.78125 352.324219 408.757812 C 356.355469 404.722656 378.539062 385.566406 394.671875 389.597656 C 399.714844 390.609375 405.765625 394.640625 407.78125 403.714844 C 408.789062 408.757812 410.804688 411.78125 414.839844 412.789062 C 420.890625 415.816406 429.964844 412.789062 429.964844 412.789062 C 433.996094 410.773438 439.039062 413.800781 441.054688 417.832031 C 443.074219 421.867188 440.046875 426.90625 436.015625 428.925781 C 435.003906 428.925781 429.964844 430.941406 422.90625 430.941406 " fill-opacity="1" fill-rule="nonzero"/><path fill="#ffffff" d="M 495.503906 431.949219 C 491.472656 431.949219 488.449219 430.941406 487.4375 430.941406 L 490.464844 414.808594 C 490.464844 414.808594 505.589844 416.824219 517.6875 407.75 C 527.773438 399.683594 534.832031 385.566406 536.847656 364.390625 C 538.863281 341.199219 535.839844 324.058594 526.765625 314.984375 C 518.695312 306.914062 507.605469 307.925781 506.597656 308.933594 L 503.570312 292.800781 C 504.582031 292.800781 522.730469 289.773438 536.847656 302.882812 C 549.957031 314.980469 554.996094 336.15625 552.980469 365.398438 C 550.964844 390.605469 541.890625 408.757812 527.773438 419.847656 C 516.679688 429.933594 503.574219 431.949219 495.503906 431.949219 Z M 495.503906 431.949219 " fill-opacity="1" fill-rule="nonzero"/><path fill="#ffffff" d="M 392.65625 176.839844 C 388.621094 169.78125 383.582031 164.742188 381.5625 156.675781 C 380.554688 157.683594 380.554688 158.691406 380.554688 159.699219 C 377.53125 164.742188 374.503906 169.78125 371.480469 175.832031 C 369.464844 179.867188 367.449219 183.898438 367.449219 188.941406 C 368.457031 194.992188 372.488281 200.03125 378.539062 201.039062 C 384.589844 202.050781 390.640625 199.023438 393.664062 193.984375 C 396.6875 186.925781 395.679688 181.882812 392.65625 176.839844 Z M 392.65625 176.839844 " fill-opacity="1" fill-rule="nonzero"/><path fill="#ffffff" d="M 392.65625 90.125 C 388.621094 83.066406 383.582031 78.023438 381.5625 69.957031 C 380.554688 70.964844 380.554688 71.972656 380.554688 72.984375 C 377.53125 78.023438 374.503906 83.066406 371.480469 89.117188 C 369.464844 93.148438 367.449219 97.183594 367.449219 102.222656 C 368.457031 108.273438 372.488281 113.316406 378.539062 114.324219 C 384.589844 115.332031 390.640625 112.308594 393.664062 107.265625 C 396.6875 101.214844 395.679688 95.164062 392.65625 90.125 Z M 392.65625 90.125 " fill-opacity="1" fill-rule="nonzero"/><path fill="#ffffff" d="M 420.890625 134.492188 C 416.855469 127.433594 411.8125 122.390625 409.796875 114.324219 C 408.789062 115.332031 408.789062 116.339844 408.789062 117.347656 C 405.765625 122.390625 402.738281 127.433594 399.714844 133.484375 C 397.699219 137.515625 395.679688 141.550781 395.679688 146.589844 C 396.6875 152.640625 400.722656 157.683594 406.773438 158.691406 C 412.824219 159.699219 418.871094 156.675781 421.898438 151.632812 C 424.921875 145.582031 423.914062 139.53125 420.890625 134.492188 Z M 420.890625 134.492188 " fill-opacity="1" fill-rule="nonzero"/><path fill="#ffffff" d="M 202.082031 633.617188 L 179.898438 633.617188 L 175.863281 645.714844 L 162.757812 645.714844 L 184.941406 584.207031 L 199.054688 584.207031 L 221.238281 645.714844 L 207.121094 645.714844 Z M 198.046875 622.523438 L 189.980469 598.324219 L 181.914062 622.523438 Z M 198.046875 622.523438 " fill-opacity="1" fill-rule="nonzero"/><path fill="#ffffff" d="M 253.507812 645.714844 L 227.289062 645.714844 L 227.289062 584.207031 L 253.507812 584.207031 C 257.539062 584.207031 260.566406 584.207031 262.582031 585.214844 C 266.613281 586.222656 270.648438 589.25 272.664062 593.28125 C 274.679688 596.308594 276.699219 599.332031 276.699219 603.367188 C 276.699219 607.398438 277.707031 610.425781 277.707031 613.449219 C 277.707031 621.515625 275.6875 628.574219 272.664062 634.625 C 269.640625 642.691406 262.582031 645.714844 253.507812 645.714844 Z M 263.589844 600.339844 C 261.574219 597.316406 257.539062 595.300781 251.488281 595.300781 L 239.390625 595.300781 L 239.390625 635.632812 L 251.488281 635.632812 C 257.539062 635.632812 261.574219 632.609375 264.597656 626.558594 C 265.605469 623.53125 266.613281 619.5 266.613281 614.457031 C 266.613281 608.40625 265.605469 603.367188 263.589844 600.339844 Z M 263.589844 600.339844 " fill-opacity="1" fill-rule="nonzero"/><path fill="#ffffff" d="M 315.015625 645.714844 L 288.796875 645.714844 L 288.796875 584.207031 L 315.015625 584.207031 C 319.046875 584.207031 322.074219 584.207031 324.089844 585.214844 C 328.121094 586.222656 332.15625 589.25 334.171875 593.28125 C 336.1875 596.308594 338.207031 599.332031 338.207031 603.367188 C 338.207031 607.398438 339.214844 610.425781 339.214844 613.449219 C 339.214844 621.515625 337.199219 628.574219 334.171875 634.625 C 331.148438 642.691406 324.089844 645.714844 315.015625 645.714844 Z M 325.097656 600.339844 C 323.082031 597.316406 319.046875 595.300781 312.996094 595.300781 L 300.898438 595.300781 L 300.898438 635.632812 L 312.996094 635.632812 C 319.046875 635.632812 323.082031 632.609375 326.105469 626.558594 C 327.113281 623.53125 328.121094 619.5 328.121094 614.457031 C 328.121094 608.40625 327.113281 603.367188 325.097656 600.339844 Z M 325.097656 600.339844 " fill-opacity="1" fill-rule="nonzero"/><path fill="#ffffff" d="M 375.515625 642.691406 C 372.488281 638.65625 370.472656 634.625 370.472656 629.582031 C 370.472656 626.558594 371.480469 623.53125 372.488281 620.507812 C 374.503906 617.484375 376.523438 615.464844 379.546875 614.457031 C 376.523438 612.441406 374.503906 610.425781 373.496094 608.40625 C 372.488281 606.390625 372.488281 604.375 372.488281 602.359375 C 372.488281 598.324219 374.503906 594.289062 377.53125 591.265625 C 380.554688 588.242188 385.597656 586.222656 391.648438 586.222656 C 397.695312 586.222656 402.738281 588.242188 405.765625 591.265625 C 408.789062 594.289062 410.804688 598.324219 410.804688 602.359375 C 410.804688 604.375 410.804688 606.390625 409.796875 608.40625 C 408.789062 610.425781 406.773438 612.441406 403.746094 614.457031 C 406.773438 616.472656 408.789062 618.492188 410.804688 621.515625 C 411.8125 624.539062 412.820312 627.566406 412.820312 630.589844 C 412.820312 635.632812 410.804688 639.664062 406.773438 643.699219 C 402.738281 647.734375 397.695312 648.742188 390.636719 648.742188 C 383.582031 647.734375 378.539062 645.714844 375.515625 642.691406 Z M 385.597656 608.40625 C 386.605469 609.414062 388.621094 610.425781 391.648438 610.425781 C 393.664062 610.425781 395.679688 609.414062 397.699219 608.40625 C 399.714844 607.398438 399.714844 605.382812 399.714844 603.367188 C 399.714844 601.347656 398.707031 599.332031 397.699219 597.316406 C 396.6875 595.300781 394.671875 595.300781 391.648438 595.300781 C 389.632812 595.300781 387.613281 596.308594 385.597656 597.316406 C 384.589844 598.324219 383.582031 600.339844 383.582031 603.367188 C 383.582031 604.375 383.582031 606.390625 385.597656 608.40625 Z M 382.574219 628.574219 C 382.574219 631.597656 383.582031 633.617188 384.589844 635.632812 C 386.605469 637.648438 388.621094 637.648438 390.640625 637.648438 C 392.65625 637.648438 395.679688 636.640625 396.6875 635.632812 C 398.707031 633.617188 398.707031 631.597656 398.707031 628.574219 C 398.707031 625.550781 397.699219 623.53125 396.6875 621.515625 C 394.671875 619.5 392.65625 619.5 390.640625 619.5 C 387.613281 619.5 385.597656 620.507812 384.589844 621.515625 C 382.574219 623.53125 382.574219 625.550781 382.574219 628.574219 Z M 382.574219 628.574219 " fill-opacity="1" fill-rule="nonzero"/><path fill="#ffffff" d="M 416.855469 616.472656 L 441.054688 616.472656 L 441.054688 627.566406 L 416.855469 627.566406 Z M 416.855469 616.472656 " fill-opacity="1" fill-rule="nonzero"/><path fill="#ffffff" d="M 475.339844 645.714844 L 463.238281 645.714844 L 463.238281 604.375 L 449.121094 604.375 L 449.121094 596.308594 C 453.15625 596.308594 455.171875 596.308594 457.1875 595.300781 C 459.207031 594.289062 461.222656 593.28125 463.238281 592.273438 C 464.246094 591.265625 465.257812 589.25 465.257812 588.242188 C 465.257812 587.234375 465.257812 586.222656 465.257812 586.222656 L 475.339844 586.222656 Z M 475.339844 645.714844 " fill-opacity="1" fill-rule="nonzero"/><path fill="#ffffff" d="M 514.664062 647.734375 C 506.597656 647.734375 501.554688 644.707031 498.53125 639.664062 C 495.503906 634.625 493.488281 626.558594 493.488281 616.472656 C 493.488281 606.390625 495.503906 599.332031 498.53125 593.28125 C 501.554688 588.242188 506.597656 585.214844 514.664062 585.214844 C 522.730469 585.214844 527.773438 588.242188 530.796875 593.28125 C 533.824219 598.324219 535.839844 606.390625 535.839844 616.472656 C 535.839844 626.558594 533.824219 633.617188 530.796875 639.664062 C 527.773438 644.707031 521.722656 647.734375 514.664062 647.734375 Z M 520.714844 632.609375 C 521.722656 628.574219 522.730469 623.53125 522.730469 616.472656 C 522.730469 609.414062 521.722656 603.367188 520.714844 600.339844 C 519.707031 597.316406 517.6875 595.300781 513.65625 595.300781 C 509.621094 595.300781 507.605469 597.316406 506.597656 600.339844 C 505.589844 603.367188 504.582031 609.414062 504.582031 616.472656 C 504.582031 623.53125 505.589844 628.574219 506.597656 632.609375 C 507.605469 636.640625 509.621094 637.648438 513.65625 637.648438 C 517.6875 637.648438 519.707031 635.632812 520.714844 632.609375 Z M 520.714844 632.609375 " fill-opacity="1" fill-rule="nonzero"/><path fill="#ffffff" d="M 581.214844 606.390625 C 585.246094 611.433594 587.265625 616.472656 587.265625 623.53125 C 587.265625 630.589844 585.246094 635.632812 581.214844 640.675781 C 577.179688 645.714844 571.128906 647.734375 564.074219 647.734375 C 556.003906 647.734375 550.964844 645.714844 546.929688 640.675781 C 542.898438 635.632812 540.878906 630.589844 540.878906 623.53125 C 540.878906 617.484375 542.898438 611.433594 546.929688 606.390625 C 550.964844 601.347656 557.015625 599.332031 564.074219 599.332031 C 572.140625 599.332031 578.1875 601.347656 581.214844 606.390625 Z M 564.074219 609.414062 C 561.046875 609.414062 558.023438 610.425781 556.003906 613.449219 C 553.988281 615.464844 552.980469 619.5 552.980469 623.53125 C 552.980469 628.574219 553.988281 631.597656 556.003906 633.617188 C 558.023438 635.632812 561.046875 637.648438 564.074219 637.648438 C 567.097656 637.648438 570.121094 636.640625 572.140625 633.617188 C 574.15625 631.597656 575.164062 627.566406 575.164062 623.53125 C 575.164062 618.492188 574.15625 615.464844 572.140625 613.449219 C 570.121094 610.425781 567.097656 609.414062 564.074219 609.414062 Z M 564.074219 609.414062 " fill-opacity="1" fill-rule="nonzero"/><path fill="#ffffff" d="M 630.621094 645.714844 L 591.296875 645.714844 L 591.296875 636.640625 L 614.488281 610.425781 L 593.3125 610.425781 L 593.3125 600.339844 L 629.613281 600.339844 L 629.613281 610.425781 L 606.421875 636.640625 L 630.621094 636.640625 Z M 630.621094 645.714844 " fill-opacity="1" fill-rule="nonzero"/><path fill="#ffffff" d="M 186.957031 734.449219 L 186.957031 707.222656 L 162.757812 707.222656 L 162.757812 734.449219 L 149.648438 734.449219 L 149.648438 672.941406 L 162.757812 672.941406 L 162.757812 696.132812 L 186.957031 696.132812 L 186.957031 672.941406 L 200.066406 672.941406 L 200.066406 734.449219 Z M 186.957031 734.449219 " fill-opacity="1" fill-rule="nonzero"/><path fill="#ffffff" d="M 238.382812 736.464844 C 229.304688 736.464844 223.257812 734.449219 218.214844 729.40625 C 212.164062 723.359375 209.140625 715.289062 209.140625 704.199219 C 209.140625 693.109375 212.164062 684.03125 218.214844 678.992188 C 223.257812 673.949219 229.304688 671.933594 238.382812 671.933594 C 247.457031 671.933594 253.507812 673.949219 258.546875 678.992188 C 264.597656 685.039062 267.621094 693.109375 267.621094 704.199219 C 267.621094 715.289062 264.597656 723.359375 258.546875 729.40625 C 254.515625 733.441406 247.457031 736.464844 238.382812 736.464844 Z M 250.480469 719.324219 C 253.507812 715.289062 254.515625 710.25 254.515625 703.191406 C 254.515625 696.132812 253.507812 691.089844 250.480469 687.058594 C 247.457031 683.023438 243.421875 681.007812 238.382812 681.007812 C 233.339844 681.007812 229.304688 683.023438 226.28125 687.058594 C 223.257812 691.089844 222.246094 696.132812 222.246094 703.191406 C 222.246094 710.25 223.257812 715.289062 226.28125 719.324219 C 229.304688 723.359375 233.339844 725.375 238.382812 725.375 C 243.421875 725.375 247.457031 723.359375 250.480469 719.324219 Z M 250.480469 719.324219 " fill-opacity="1" fill-rule="nonzero"/><path fill="#ffffff" d="M 322.074219 672.941406 L 322.074219 684.03125 L 303.921875 684.03125 L 303.921875 734.449219 L 290.8125 734.449219 L 290.8125 684.03125 L 272.664062 684.03125 L 272.664062 672.941406 Z M 322.074219 672.941406 " fill-opacity="1" fill-rule="nonzero"/><path fill="#ffffff" d="M 412.824219 672.941406 L 425.929688 672.941406 L 408.789062 734.449219 L 396.6875 734.449219 L 389.632812 698.148438 L 387.613281 686.050781 L 385.597656 698.148438 L 378.539062 734.449219 L 366.441406 734.449219 L 349.296875 672.941406 L 362.40625 672.941406 L 370.472656 708.234375 L 372.488281 718.316406 L 374.507812 709.242188 L 381.566406 673.949219 L 394.671875 673.949219 L 401.730469 709.242188 L 403.746094 719.324219 L 405.765625 710.25 Z M 412.824219 672.941406 " fill-opacity="1" fill-rule="nonzero"/><path fill="#ffffff" d="M 465.253906 721.339844 L 443.074219 721.339844 L 439.039062 733.441406 L 425.929688 733.441406 L 448.113281 671.933594 L 462.230469 671.933594 L 484.414062 733.441406 L 470.296875 733.441406 Z M 461.222656 711.257812 L 453.15625 687.058594 L 445.089844 711.257812 Z M 461.222656 711.257812 " fill-opacity="1" fill-rule="nonzero"/><path fill="#ffffff" d="M 528.78125 672.941406 L 528.78125 684.03125 L 510.628906 684.03125 L 510.628906 734.449219 L 497.523438 734.449219 L 497.523438 684.03125 L 479.371094 684.03125 L 479.371094 672.941406 Z M 528.78125 672.941406 " fill-opacity="1" fill-rule="nonzero"/><path fill="#ffffff" d="M 579.195312 707.222656 L 548.949219 707.222656 L 548.949219 723.359375 L 583.230469 723.359375 L 583.230469 734.449219 L 536.847656 734.449219 L 536.847656 672.941406 L 582.222656 672.941406 L 582.222656 684.03125 L 549.957031 684.03125 L 549.957031 697.140625 L 580.207031 697.140625 L 580.207031 707.222656 Z M 579.195312 707.222656 " fill-opacity="1" fill-rule="nonzero"/><path fill="#ffffff" d="M 619.53125 710.25 L 606.421875 710.25 L 606.421875 734.449219 L 593.3125 734.449219 L 593.3125 672.941406 L 623.5625 672.941406 C 627.597656 672.941406 631.628906 673.949219 633.648438 674.957031 C 635.664062 675.964844 637.679688 676.972656 639.695312 678.992188 C 640.707031 681.007812 641.714844 682.015625 642.722656 684.03125 C 643.730469 686.050781 643.730469 688.066406 643.730469 690.082031 C 643.730469 693.109375 642.722656 696.132812 641.714844 699.15625 C 640.707031 702.183594 637.679688 704.199219 634.65625 705.207031 C 637.679688 706.214844 639.695312 708.234375 640.707031 710.25 C 641.714844 712.265625 642.722656 715.289062 642.722656 720.332031 L 642.722656 724.367188 C 642.722656 727.390625 642.722656 729.40625 642.722656 730.414062 C 642.722656 732.433594 643.730469 733.441406 644.738281 733.441406 L 644.738281 735.457031 L 630.621094 735.457031 C 630.621094 734.449219 629.613281 733.441406 629.613281 732.433594 C 629.613281 730.414062 628.605469 729.40625 628.605469 727.390625 L 628.605469 721.339844 C 628.605469 717.308594 627.597656 715.289062 626.589844 713.273438 C 625.582031 711.257812 623.5625 710.25 619.53125 710.25 Z M 627.597656 699.15625 C 630.621094 698.148438 631.628906 696.132812 631.628906 692.097656 C 631.628906 688.066406 630.621094 686.050781 627.597656 685.039062 C 626.589844 684.03125 624.570312 684.03125 621.546875 684.03125 L 606.421875 684.03125 L 606.421875 700.164062 L 620.539062 700.164062 C 623.5625 700.164062 625.582031 700.164062 627.597656 699.15625 Z M 627.597656 699.15625 " fill-opacity="1" fill-rule="nonzero"/></svg>