<svg xmlns="http://www.w3.org/2000/svg" xmlns:xlink="http://www.w3.org/1999/xlink" width="1080" zoomAndPan="magnify" viewBox="0 0 810 809.999993" height="1080" preserveAspectRatio="xMidYMid meet" version="1.0"><path fill="#ffffff" d="M 489.617188 495.242188 L 324.582031 495.242188 L 289.839844 231.765625 L 523.394531 231.765625 Z M 339.058594 479.800781 L 474.171875 479.800781 L 506.023438 248.175781 L 308.175781 248.175781 Z M 339.058594 479.800781 " fill-opacity="1" fill-rule="nonzero"/><path fill="#ffffff" d="M 406.617188 458.566406 C 375.734375 458.566406 350.640625 425.753906 350.640625 385.21875 C 350.640625 344.683594 375.734375 311.871094 406.617188 311.871094 C 437.5 311.871094 462.59375 344.683594 462.59375 385.21875 C 462.59375 425.753906 437.5 458.566406 406.617188 458.566406 M 406.617188 328.277344 C 384.417969 328.277344 367.046875 354.335938 367.046875 385.21875 C 367.046875 417.066406 385.382812 442.160156 406.617188 442.160156 C 428.8125 442.160156 446.1875 416.101562 446.1875 385.21875 C 447.152344 354.335938 428.8125 328.277344 406.617188 328.277344 " fill-opacity="1" fill-rule="nonzero"/><path fill="#ffffff" d="M 396 319.589844 L 396 103.410156 C 396 96.652344 401.792969 90.863281 408.546875 90.863281 C 415.300781 90.863281 421.09375 96.652344 421.09375 103.410156 L 421.09375 321.523438 L 437.5 333.101562 L 437.5 103.410156 C 437.5 87.964844 424.953125 75.421875 409.511719 75.421875 C 394.070312 75.421875 381.523438 87.964844 381.523438 103.410156 L 381.523438 327.3125 Z M 396 319.589844 " fill-opacity="1" fill-rule="nonzero"/><path fill="#ffffff" d="M 361.257812 296.429688 L 308.175781 296.429688 C 303.351562 296.429688 300.457031 292.570312 300.457031 288.707031 C 300.457031 283.882812 304.316406 280.988281 308.175781 280.988281 L 361.257812 280.988281 C 366.082031 280.988281 368.976562 284.847656 368.976562 288.707031 C 368.976562 293.535156 366.082031 296.429688 361.257812 296.429688 " fill-opacity="1" fill-rule="nonzero"/><path fill="#ffffff" d="M 502.160156 324.417969 L 451.011719 324.417969 C 446.1875 324.417969 443.289062 320.558594 443.289062 316.695312 C 443.289062 311.871094 447.152344 308.976562 451.011719 308.976562 L 502.160156 308.976562 C 506.988281 308.976562 509.882812 312.835938 509.882812 316.695312 C 510.847656 320.558594 506.988281 324.417969 502.160156 324.417969 " fill-opacity="1" fill-rule="nonzero"/><path fill="#ffffff" d="M 383.453125 371.707031 L 347.746094 371.707031 C 342.917969 371.707031 340.023438 367.847656 340.023438 363.988281 C 340.023438 359.160156 343.886719 356.265625 347.746094 356.265625 L 383.453125 356.265625 C 388.28125 356.265625 391.175781 360.125 391.175781 363.988281 C 392.140625 367.847656 388.28125 371.707031 383.453125 371.707031 " fill-opacity="1" fill-rule="nonzero"/><path fill="#ffffff" d="M 483.824219 440.230469 L 421.09375 440.230469 C 416.265625 440.230469 413.371094 436.371094 413.371094 432.507812 C 413.371094 427.683594 417.234375 424.789062 421.09375 424.789062 L 483.824219 424.789062 C 488.648438 424.789062 491.546875 428.648438 491.546875 432.507812 C 491.546875 437.335938 487.683594 440.230469 483.824219 440.230469 " fill-opacity="1" fill-rule="nonzero"/><path fill="#ffffff" d="M 503.125 415.136719 C 499.265625 415.136719 496.371094 414.171875 495.40625 414.171875 L 498.300781 398.730469 C 498.300781 398.730469 512.777344 400.660156 524.359375 391.972656 C 534.011719 384.253906 540.765625 370.742188 542.695312 350.476562 C 544.625 328.277344 541.730469 311.871094 533.042969 303.183594 C 525.324219 295.464844 514.707031 296.429688 513.742188 297.394531 L 510.847656 282.917969 C 511.8125 282.917969 529.183594 280.023438 542.695312 292.570312 C 555.242188 304.148438 560.066406 324.417969 558.136719 352.40625 C 556.207031 376.53125 547.519531 393.90625 534.011719 404.519531 C 522.429688 413.207031 509.882812 415.136719 503.125 415.136719 Z M 503.125 415.136719 " fill-opacity="1" fill-rule="nonzero"/><path fill="#ffffff" d="M 153.757812 612.019531 C 156.65625 612.019531 158.585938 612.019531 160.515625 611.054688 C 164.375 610.089844 165.339844 607.191406 165.339844 604.296875 C 165.339844 602.367188 164.375 600.4375 162.445312 599.472656 C 160.515625 598.507812 157.621094 597.542969 154.726562 596.578125 L 148.933594 595.613281 C 143.144531 594.644531 138.316406 592.714844 136.386719 590.785156 C 132.527344 587.890625 130.597656 584.03125 130.597656 578.238281 C 130.597656 573.414062 132.527344 568.589844 136.386719 564.726562 C 140.25 560.867188 146.039062 559.902344 152.792969 559.902344 C 158.585938 559.902344 164.375 561.832031 168.234375 564.726562 C 173.0625 567.625 174.992188 572.449219 174.992188 579.203125 L 163.410156 579.203125 C 163.410156 575.34375 161.480469 573.414062 158.585938 571.484375 C 156.65625 570.519531 154.726562 569.554688 151.828125 569.554688 C 148.933594 569.554688 146.039062 570.519531 144.109375 571.484375 C 142.179688 572.449219 141.214844 574.378906 141.214844 577.273438 C 141.214844 579.203125 142.179688 581.136719 144.109375 582.101562 C 145.074219 583.066406 147.96875 584.03125 151.828125 584.996094 L 161.480469 587.890625 C 166.304688 588.855469 169.203125 590.785156 171.132812 591.75 C 174.992188 594.644531 175.957031 598.507812 175.957031 603.332031 C 175.957031 609.121094 174.027344 612.984375 170.167969 616.84375 C 166.304688 620.703125 160.515625 622.632812 152.792969 622.632812 C 145.074219 622.632812 139.28125 620.703125 134.457031 617.808594 C 129.632812 613.949219 127.703125 609.121094 127.703125 603.332031 L 139.28125 603.332031 C 139.28125 606.226562 140.25 608.15625 141.214844 609.121094 C 145.074219 610.089844 148.933594 612.019531 153.757812 612.019531 Z M 153.757812 612.019531 " fill-opacity="1" fill-rule="nonzero"/><path fill="#ffffff" d="M 229.039062 561.832031 L 229.039062 572.449219 L 211.664062 572.449219 L 211.664062 620.703125 L 199.121094 620.703125 L 199.121094 572.449219 L 181.746094 572.449219 L 181.746094 561.832031 Z M 229.039062 561.832031 " fill-opacity="1" fill-rule="nonzero"/><path fill="#ffffff" d="M 234.828125 561.832031 L 247.375 561.832031 L 247.375 620.703125 L 234.828125 620.703125 Z M 234.828125 561.832031 " fill-opacity="1" fill-rule="nonzero"/><path fill="#ffffff" d="M 284.046875 597.542969 L 271.503906 597.542969 L 271.503906 620.703125 L 259.921875 620.703125 L 259.921875 561.832031 L 288.875 561.832031 C 292.734375 561.832031 296.59375 562.796875 298.523438 563.761719 C 300.457031 564.726562 302.386719 565.691406 304.316406 567.625 C 305.28125 569.554688 306.246094 570.519531 307.210938 572.449219 C 308.175781 574.378906 308.175781 576.308594 308.175781 578.238281 C 308.175781 581.136719 307.210938 584.03125 306.246094 586.925781 C 305.28125 589.820312 302.386719 591.75 299.492188 592.714844 C 302.386719 593.679688 304.316406 595.613281 305.28125 597.542969 C 306.246094 599.472656 307.210938 602.367188 307.210938 607.191406 L 307.210938 611.054688 C 307.210938 613.949219 307.210938 615.878906 307.210938 616.84375 C 307.210938 618.773438 308.175781 619.738281 309.140625 619.738281 L 309.140625 621.667969 L 295.628906 621.667969 C 295.628906 620.703125 294.664062 619.738281 294.664062 618.773438 C 294.664062 616.84375 293.699219 615.878906 293.699219 613.949219 L 293.699219 608.15625 C 293.699219 604.296875 292.734375 602.367188 291.769531 600.4375 C 289.839844 597.542969 286.945312 597.542969 284.046875 597.542969 Z M 290.804688 585.960938 C 293.699219 584.996094 294.664062 583.066406 294.664062 579.203125 C 294.664062 575.34375 293.699219 573.414062 290.804688 572.449219 C 289.839844 571.484375 287.910156 571.484375 285.011719 571.484375 L 270.535156 571.484375 L 270.535156 586.925781 L 284.046875 586.925781 C 287.910156 586.925781 289.839844 586.925781 290.804688 585.960938 Z M 290.804688 585.960938 " fill-opacity="1" fill-rule="nonzero"/><path fill="#ffffff" d="M 357.394531 621.667969 C 351.605469 621.667969 346.78125 619.738281 343.886719 616.84375 C 340.988281 612.984375 339.058594 609.121094 339.058594 605.261719 C 339.058594 601.402344 340.023438 598.507812 341.953125 596.578125 C 343.886719 594.648438 346.78125 591.75 350.640625 588.855469 L 351.605469 587.890625 C 349.675781 585.960938 348.710938 584.03125 347.746094 582.101562 C 346.78125 580.167969 346.78125 578.238281 346.78125 576.308594 C 346.78125 572.449219 347.746094 568.589844 350.640625 566.660156 C 353.535156 564.726562 357.394531 562.796875 362.222656 562.796875 C 366.082031 562.796875 369.941406 563.761719 372.839844 566.660156 C 375.734375 569.554688 376.699219 572.449219 376.699219 576.308594 C 376.699219 580.167969 375.734375 582.101562 373.804688 584.996094 C 371.871094 586.925781 369.941406 588.855469 367.046875 590.785156 L 375.734375 601.402344 C 376.699219 600.4375 377.664062 598.507812 377.664062 596.578125 C 378.628906 594.644531 378.628906 593.679688 378.628906 591.75 L 388.28125 591.75 C 388.28125 595.613281 387.3125 598.507812 385.382812 602.367188 C 384.417969 604.296875 383.453125 606.226562 381.523438 609.121094 L 392.140625 621.667969 L 378.628906 621.667969 L 374.769531 616.84375 C 372.839844 618.773438 370.90625 619.738281 368.976562 620.703125 C 365.117188 620.703125 361.257812 621.667969 357.394531 621.667969 Z M 356.429688 574.378906 C 356.429688 575.34375 356.429688 576.308594 357.394531 577.273438 C 357.394531 578.238281 359.328125 579.203125 360.292969 581.136719 C 362.222656 580.167969 363.1875 579.203125 364.152344 578.238281 C 365.117188 577.273438 366.082031 575.34375 366.082031 573.414062 C 366.082031 572.449219 366.082031 571.484375 365.117188 570.519531 C 364.152344 569.554688 363.1875 569.554688 361.257812 569.554688 C 360.292969 569.554688 359.328125 569.554688 358.363281 570.519531 C 356.429688 571.484375 356.429688 573.414062 356.429688 574.378906 Z M 357.394531 594.644531 C 354.5 596.578125 352.570312 598.507812 351.605469 599.472656 C 350.640625 600.4375 350.640625 602.367188 350.640625 604.296875 C 350.640625 606.226562 351.605469 608.15625 352.570312 610.089844 C 354.5 612.019531 356.429688 612.984375 358.363281 612.984375 C 360.292969 612.984375 362.222656 612.984375 363.1875 612.019531 C 365.117188 611.054688 366.082031 610.089844 367.046875 609.121094 Z M 357.394531 594.644531 " fill-opacity="1" fill-rule="nonzero"/><path fill="#ffffff" d="M 462.59375 594.644531 L 433.640625 594.644531 L 433.640625 610.089844 L 466.453125 610.089844 L 466.453125 620.703125 L 422.058594 620.703125 L 422.058594 561.832031 L 465.488281 561.832031 L 465.488281 572.449219 L 434.605469 572.449219 L 434.605469 584.996094 L 463.558594 584.996094 L 463.558594 594.644531 Z M 462.59375 594.644531 " fill-opacity="1" fill-rule="nonzero"/><path fill="#ffffff" d="M 523.394531 619.738281 L 510.847656 619.738281 L 486.71875 578.238281 L 486.71875 619.738281 L 475.140625 619.738281 L 475.140625 560.867188 L 487.683594 560.867188 L 510.847656 601.402344 L 510.847656 560.867188 L 522.429688 560.867188 L 522.429688 619.738281 Z M 523.394531 619.738281 " fill-opacity="1" fill-rule="nonzero"/><path fill="#ffffff" d="M 556.207031 602.367188 L 556.207031 560.867188 L 568.753906 560.867188 L 568.753906 601.402344 C 568.753906 606.226562 567.789062 610.089844 565.859375 612.984375 C 562.964844 617.808594 558.136719 620.703125 550.417969 620.703125 C 542.695312 620.703125 537.871094 618.773438 534.976562 614.914062 C 532.078125 611.054688 531.113281 605.261719 531.113281 598.507812 L 531.113281 597.542969 L 542.695312 597.542969 L 542.695312 598.507812 C 542.695312 603.332031 543.660156 606.226562 544.625 608.15625 C 545.589844 610.089844 547.519531 611.054688 550.417969 611.054688 C 553.3125 611.054688 555.242188 610.089844 556.207031 608.15625 C 556.207031 607.191406 556.207031 605.261719 556.207031 602.367188 Z M 556.207031 602.367188 " fill-opacity="1" fill-rule="nonzero"/><path fill="#ffffff" d="M 606.390625 621.667969 C 597.707031 621.667969 591.914062 619.738281 587.089844 614.914062 C 581.300781 609.121094 578.40625 601.402344 578.40625 590.785156 C 578.40625 580.167969 581.300781 571.484375 587.089844 566.660156 C 591.914062 561.832031 597.707031 559.902344 606.390625 559.902344 C 615.078125 559.902344 620.867188 561.832031 625.695312 566.660156 C 631.484375 572.449219 634.378906 580.167969 634.378906 590.785156 C 634.378906 601.402344 631.484375 609.121094 625.695312 614.914062 C 621.835938 619.738281 615.078125 621.667969 606.390625 621.667969 Z M 617.972656 606.226562 C 620.867188 602.367188 621.835938 597.542969 621.835938 590.785156 C 621.835938 584.03125 620.867188 579.203125 617.972656 575.34375 C 615.078125 571.484375 611.21875 569.554688 606.394531 569.554688 C 601.566406 569.554688 597.707031 571.484375 594.8125 575.34375 C 591.917969 579.203125 590.949219 584.03125 590.949219 590.785156 C 590.949219 597.542969 591.917969 602.367188 594.8125 606.226562 C 597.707031 610.089844 601.566406 612.019531 606.394531 612.019531 C 611.21875 611.054688 615.078125 609.121094 617.972656 606.226562 Z M 617.972656 606.226562 " fill-opacity="1" fill-rule="nonzero"/><path fill="#ffffff" d="M 691.320312 561.832031 L 672.019531 598.507812 L 672.019531 620.703125 L 659.472656 620.703125 L 659.472656 598.507812 L 639.207031 561.832031 L 653.683594 561.832031 L 666.230469 586.925781 L 677.808594 561.832031 Z M 691.320312 561.832031 " fill-opacity="1" fill-rule="nonzero"/><path fill="#ffffff" d="M 192.363281 645.796875 L 204.910156 645.796875 L 204.910156 704.667969 L 192.363281 704.667969 Z M 192.363281 645.796875 " fill-opacity="1" fill-rule="nonzero"/><path fill="#ffffff" d="M 262.816406 704.667969 L 250.269531 704.667969 L 226.140625 663.167969 L 226.140625 704.667969 L 214.5625 704.667969 L 214.5625 645.796875 L 227.109375 645.796875 L 250.269531 686.332031 L 250.269531 645.796875 L 261.851562 645.796875 L 261.851562 704.667969 Z M 262.816406 704.667969 " fill-opacity="1" fill-rule="nonzero"/><path fill="#ffffff" d="M 295.628906 695.980469 C 298.523438 695.980469 300.457031 695.980469 302.386719 695.015625 C 306.246094 694.050781 307.210938 691.15625 307.210938 688.261719 C 307.210938 686.332031 306.246094 684.402344 304.316406 683.4375 C 302.386719 682.472656 299.488281 681.503906 296.59375 680.539062 L 290.804688 679.574219 C 285.011719 678.609375 280.1875 676.679688 278.257812 674.75 C 274.398438 671.855469 272.46875 667.996094 272.46875 662.203125 C 272.46875 657.378906 274.398438 652.550781 278.257812 648.691406 C 282.117188 644.832031 287.910156 643.867188 294.664062 643.867188 C 300.453125 643.867188 306.246094 645.796875 310.105469 648.691406 C 314.929688 651.585938 316.863281 656.414062 316.863281 663.167969 L 305.28125 663.167969 C 305.28125 659.308594 303.351562 657.378906 300.453125 655.449219 C 298.523438 654.484375 296.59375 653.519531 293.699219 653.519531 C 290.804688 653.519531 287.910156 654.484375 285.976562 655.449219 C 284.046875 656.414062 283.082031 658.34375 283.082031 661.238281 C 283.082031 663.167969 284.046875 665.097656 285.976562 666.0625 C 286.945312 667.027344 289.839844 667.996094 293.699219 668.960938 L 303.351562 671.855469 C 308.175781 672.820312 311.070312 674.75 313 675.714844 C 316.863281 678.609375 317.828125 682.472656 317.828125 687.296875 C 317.828125 693.085938 315.898438 696.949219 312.035156 700.808594 C 308.175781 704.667969 302.386719 706.597656 294.664062 706.597656 C 286.945312 706.597656 281.152344 704.667969 276.328125 701.773438 C 271.503906 697.914062 269.570312 693.085938 269.570312 687.296875 L 281.152344 687.296875 C 281.152344 690.191406 282.117188 692.121094 283.082031 693.085938 C 287.910156 695.015625 290.804688 695.980469 295.628906 695.980469 Z M 295.628906 695.980469 " fill-opacity="1" fill-rule="nonzero"/><path fill="#ffffff" d="M 371.871094 645.796875 L 371.871094 656.414062 L 354.5 656.414062 L 354.5 704.667969 L 341.953125 704.667969 L 341.953125 656.414062 L 324.582031 656.414062 L 324.582031 645.796875 Z M 371.871094 645.796875 " fill-opacity="1" fill-rule="nonzero"/><path fill="#ffffff" d="M 407.582031 692.121094 L 385.382812 692.121094 L 381.523438 703.703125 L 368.976562 703.703125 L 390.210938 644.832031 L 403.722656 644.832031 L 424.953125 703.703125 L 411.441406 703.703125 Z M 403.722656 682.472656 L 396 659.308594 L 388.28125 682.472656 Z M 403.722656 682.472656 " fill-opacity="1" fill-rule="nonzero"/><path fill="#ffffff" d="M 479 704.667969 L 466.453125 704.667969 L 442.324219 663.167969 L 442.324219 704.667969 L 430.742188 704.667969 L 430.742188 645.796875 L 443.289062 645.796875 L 466.453125 686.332031 L 466.453125 645.796875 L 478.035156 645.796875 L 478.035156 704.667969 Z M 479 704.667969 " fill-opacity="1" fill-rule="nonzero"/><path fill="#ffffff" d="M 533.042969 645.796875 L 533.042969 656.414062 L 515.671875 656.414062 L 515.671875 704.667969 L 503.125 704.667969 L 503.125 656.414062 L 485.753906 656.414062 L 485.753906 645.796875 Z M 533.042969 645.796875 " fill-opacity="1" fill-rule="nonzero"/><path fill="#ffffff" d="M 540.765625 645.796875 L 553.3125 645.796875 L 553.3125 694.050781 L 582.265625 694.050781 L 582.265625 704.667969 L 540.765625 704.667969 Z M 540.765625 645.796875 " fill-opacity="1" fill-rule="nonzero"/><path fill="#ffffff" d="M 630.519531 645.796875 L 611.21875 682.472656 L 611.21875 704.667969 L 598.671875 704.667969 L 598.671875 682.472656 L 578.40625 645.796875 L 592.882812 645.796875 L 605.425781 670.890625 L 617.007812 645.796875 Z M 630.519531 645.796875 " fill-opacity="1" fill-rule="nonzero"/></svg>