<svg xmlns="http://www.w3.org/2000/svg" xmlns:xlink="http://www.w3.org/1999/xlink" width="1080" zoomAndPan="magnify" viewBox="0 0 810 809.999993" height="1080" preserveAspectRatio="xMidYMid meet" version="1.0"><path fill="#ffffff" d="M 439.332031 386.609375 L 434.285156 386.609375 L 434.285156 369.058594 L 428.363281 369.058594 L 428.363281 365.765625 C 429.898438 365.765625 430.996094 365.546875 431.652344 365.546875 C 432.75 365.328125 433.40625 364.890625 434.066406 364.230469 C 434.503906 363.792969 434.722656 363.132812 434.945312 362.476562 C 435.164062 362.039062 435.164062 361.597656 435.164062 361.378906 L 439.332031 361.378906 Z M 439.332031 386.609375 " fill-opacity="1" fill-rule="nonzero"/><path fill="#ffffff" d="M 453.152344 374.101562 C 452.492188 374.101562 452.054688 374.101562 451.617188 374.324219 C 450.738281 374.542969 450.300781 375.199219 449.859375 375.859375 L 445.472656 375.640625 L 447.230469 361.597656 L 461.269531 361.597656 L 461.269531 365.765625 L 450.957031 365.765625 L 450.082031 371.25 C 450.957031 370.8125 451.398438 370.375 451.835938 370.15625 C 452.492188 369.933594 453.371094 369.714844 454.46875 369.714844 C 456.660156 369.714844 458.417969 370.375 459.953125 371.910156 C 461.488281 373.226562 462.367188 375.417969 462.367188 378.050781 C 462.367188 380.464844 461.707031 382.4375 460.171875 384.414062 C 458.636719 386.386719 456.441406 387.265625 453.371094 387.265625 C 450.957031 387.265625 448.984375 386.609375 447.449219 385.292969 C 445.914062 383.976562 445.035156 382.21875 444.816406 379.808594 L 449.863281 379.808594 C 450.082031 380.902344 450.519531 381.78125 450.957031 382.21875 C 451.617188 382.878906 452.273438 383.097656 453.371094 383.097656 C 454.6875 383.097656 455.566406 382.660156 456.222656 381.78125 C 456.882812 380.902344 457.101562 379.808594 457.101562 378.492188 C 457.101562 377.175781 456.882812 376.078125 456.222656 375.199219 C 455.34375 374.542969 454.46875 374.101562 453.152344 374.101562 Z M 453.152344 374.101562 " fill-opacity="1" fill-rule="nonzero"/><path fill="#ffffff" d="M 473.335938 387.265625 C 470.042969 387.265625 467.851562 386.167969 466.535156 383.976562 C 465.21875 381.78125 464.558594 378.492188 464.558594 374.324219 C 464.558594 370.15625 465.21875 366.863281 466.535156 364.671875 C 467.851562 362.476562 470.042969 361.160156 473.335938 361.160156 C 476.625 361.160156 478.820312 362.257812 480.136719 364.671875 C 481.453125 366.863281 482.109375 370.15625 482.109375 374.324219 C 482.109375 378.492188 481.453125 381.78125 480.136719 383.976562 C 478.820312 386.167969 476.625 387.265625 473.335938 387.265625 Z M 476.1875 380.902344 C 476.625 379.367188 476.84375 377.175781 476.84375 374.324219 C 476.84375 371.25 476.625 369.058594 476.1875 367.523438 C 475.746094 365.984375 474.652344 365.328125 473.335938 365.328125 C 472.019531 365.328125 470.921875 365.984375 470.484375 367.523438 C 470.042969 369.058594 469.824219 371.25 469.824219 374.324219 C 469.824219 377.175781 470.042969 379.367188 470.484375 381.125 C 470.921875 382.660156 472.019531 383.535156 473.335938 383.535156 C 474.652344 383.535156 475.746094 382.4375 476.1875 380.902344 Z M 476.1875 380.902344 " fill-opacity="1" fill-rule="nonzero"/><path fill="#ffffff" d="M 496.589844 372.785156 C 496.148438 371.910156 495.273438 371.46875 494.175781 371.46875 C 492.859375 371.46875 491.761719 371.910156 491.324219 372.785156 C 491.105469 373.226562 490.882812 374.101562 490.882812 375.199219 L 490.882812 386.609375 L 485.839844 386.609375 L 485.839844 367.523438 L 490.664062 367.523438 L 490.664062 370.375 C 491.324219 369.277344 491.761719 368.617188 492.421875 368.179688 C 493.296875 367.523438 494.613281 367.082031 496.148438 367.082031 C 497.683594 367.082031 498.78125 367.300781 499.660156 367.960938 C 500.316406 368.617188 500.976562 369.277344 501.414062 370.15625 C 502.074219 369.058594 502.949219 368.179688 503.828125 367.742188 C 504.925781 367.300781 506.019531 366.863281 507.335938 366.863281 C 508.214844 366.863281 509.09375 367.082031 509.75 367.300781 C 510.628906 367.523438 511.285156 368.179688 511.945312 369.058594 C 512.382812 369.714844 512.820312 370.59375 513.042969 371.472656 C 513.261719 372.128906 513.261719 373.007812 513.261719 374.324219 L 513.261719 386.386719 L 508.214844 386.386719 L 508.214844 374.324219 C 508.214844 373.664062 507.996094 373.007812 507.777344 372.566406 C 507.335938 371.691406 506.460938 371.25 505.363281 371.25 C 504.046875 371.25 502.949219 371.910156 502.511719 373.007812 C 502.292969 373.664062 502.074219 374.324219 502.074219 375.199219 L 502.074219 386.609375 L 497.027344 386.609375 L 497.027344 375.199219 C 496.808594 374.101562 496.808594 373.226562 496.589844 372.785156 Z M 496.589844 372.785156 " fill-opacity="1" fill-rule="nonzero"/><path fill="#ffffff" d="M 523.132812 389.898438 C 523.570312 390.335938 524.667969 390.554688 525.765625 390.554688 C 527.519531 390.554688 528.835938 389.898438 529.273438 388.800781 C 529.714844 387.921875 529.933594 386.828125 529.933594 384.851562 L 529.933594 383.535156 C 529.496094 384.414062 528.835938 385.070312 528.398438 385.292969 C 527.300781 385.949219 526.203125 386.386719 524.449219 386.386719 C 522.035156 386.386719 520.0625 385.511719 518.527344 383.753906 C 516.988281 382 516.332031 379.808594 516.332031 376.734375 C 516.332031 373.882812 516.988281 371.46875 518.527344 369.496094 C 519.84375 367.523438 522.035156 366.644531 524.449219 366.644531 C 525.328125 366.644531 526.203125 366.863281 526.863281 367.082031 C 528.179688 367.523438 529.054688 368.617188 529.714844 369.933594 L 529.714844 367.082031 L 534.539062 367.082031 L 534.539062 385.292969 C 534.539062 387.703125 534.101562 389.679688 533.222656 390.777344 C 531.90625 392.96875 529.054688 394.066406 525.105469 394.066406 C 522.695312 394.066406 520.71875 393.628906 519.183594 392.53125 C 517.648438 391.652344 516.769531 390.117188 516.550781 388.144531 L 522.035156 388.144531 C 522.472656 389.238281 522.695312 389.679688 523.132812 389.898438 Z M 522.253906 380.027344 C 522.914062 381.5625 524.230469 382.4375 525.984375 382.4375 C 527.082031 382.4375 528.179688 382 528.835938 381.125 C 529.714844 380.246094 530.152344 378.929688 530.152344 376.953125 C 530.152344 375.199219 529.714844 373.664062 529.054688 372.785156 C 528.398438 371.910156 527.300781 371.46875 525.984375 371.46875 C 524.230469 371.46875 523.132812 372.347656 522.253906 373.882812 C 521.816406 374.761719 521.816406 375.859375 521.816406 377.175781 C 521.597656 378.269531 521.816406 379.148438 522.253906 380.027344 Z M 522.253906 380.027344 " fill-opacity="1" fill-rule="nonzero"/><path fill="#ffffff" d="M 427.921875 456.148438 L 430.554688 456.148438 L 430.554688 466.679688 L 436.917969 466.679688 L 436.917969 469.09375 L 427.921875 469.09375 Z M 427.921875 456.148438 " fill-opacity="1" fill-rule="nonzero"/><path fill="#ffffff" d="M 438.015625 462.949219 L 443.0625 462.949219 L 443.0625 465.363281 L 438.015625 465.363281 Z M 438.015625 462.949219 " fill-opacity="1" fill-rule="nonzero"/><path fill="#ffffff" d="M 454.25 456.148438 L 454.25 458.34375 L 450.300781 458.34375 L 450.300781 468.875 L 447.667969 468.875 L 447.667969 458.34375 L 443.71875 458.34375 L 443.71875 456.148438 Z M 454.25 456.148438 " fill-opacity="1" fill-rule="nonzero"/><path fill="#ffffff" d="M 463.460938 469.09375 L 463.460938 463.390625 L 458.417969 463.390625 L 458.417969 469.09375 L 455.785156 469.09375 L 455.785156 456.148438 L 458.417969 456.148438 L 458.417969 460.976562 L 463.460938 460.976562 L 463.460938 456.148438 L 466.09375 456.148438 L 466.09375 469.09375 Z M 463.460938 469.09375 " fill-opacity="1" fill-rule="nonzero"/><path fill="#ffffff" d="M 477.722656 463.390625 L 471.359375 463.390625 L 471.359375 466.679688 L 478.597656 466.679688 L 478.597656 469.09375 L 468.726562 469.09375 L 468.726562 456.148438 L 478.160156 456.148438 L 478.160156 458.34375 L 471.359375 458.34375 L 471.359375 460.976562 L 477.722656 460.976562 Z M 477.722656 463.390625 " fill-opacity="1" fill-rule="nonzero"/><path fill="#ffffff" d="M 488.25 466.460938 L 483.425781 466.460938 L 482.546875 469.09375 L 479.695312 469.09375 L 484.304688 456.148438 L 487.375 456.148438 L 491.980469 469.09375 L 489.128906 469.09375 Z M 487.59375 464.046875 L 486.058594 459 L 484.304688 464.046875 Z M 487.59375 464.046875 " fill-opacity="1" fill-rule="nonzero"/><path fill="#ffffff" d="M 504.046875 469.09375 L 501.414062 469.09375 L 496.148438 459.878906 L 496.148438 469.09375 L 493.734375 469.09375 L 493.734375 456.148438 L 496.589844 456.148438 L 501.632812 465.144531 L 501.632812 456.148438 L 504.046875 456.148438 Z M 504.046875 469.09375 " fill-opacity="1" fill-rule="nonzero"/><path fill="#ffffff" d="M 506.460938 456.148438 L 509.09375 456.148438 L 509.09375 469.09375 L 506.460938 469.09375 Z M 506.460938 456.148438 " fill-opacity="1" fill-rule="nonzero"/><path fill="#ffffff" d="M 522.035156 469.09375 L 519.402344 469.09375 L 514.136719 459.878906 L 514.136719 469.09375 L 511.726562 469.09375 L 511.726562 456.148438 L 514.578125 456.148438 L 519.621094 465.144531 L 519.621094 456.148438 L 522.035156 456.148438 Z M 522.035156 469.09375 " fill-opacity="1" fill-rule="nonzero"/><path fill="#ffffff" d="M 533.441406 463.390625 L 527.082031 463.390625 L 527.082031 466.679688 L 534.320312 466.679688 L 534.320312 469.09375 L 524.449219 469.09375 L 524.449219 456.148438 L 533.882812 456.148438 L 533.882812 458.34375 L 527.082031 458.34375 L 527.082031 460.976562 L 533.441406 460.976562 Z M 533.441406 463.390625 " fill-opacity="1" fill-rule="nonzero"/><path fill="#ffffff" d="M 599.914062 386.609375 L 594.867188 386.609375 L 594.867188 369.058594 L 588.945312 369.058594 L 588.945312 365.765625 C 590.480469 365.765625 591.578125 365.546875 592.234375 365.546875 C 593.332031 365.328125 593.992188 364.890625 594.648438 364.230469 C 595.085938 363.792969 595.308594 363.132812 595.527344 362.476562 C 595.746094 362.039062 595.746094 361.597656 595.746094 361.378906 L 599.914062 361.378906 Z M 599.914062 386.609375 " fill-opacity="1" fill-rule="nonzero"/><path fill="#ffffff" d="M 616.148438 387.265625 C 612.855469 387.265625 610.664062 386.167969 609.347656 383.976562 C 608.03125 381.78125 607.371094 378.492188 607.371094 374.324219 C 607.371094 370.15625 608.03125 366.863281 609.347656 364.671875 C 610.664062 362.476562 612.855469 361.160156 616.148438 361.160156 C 619.4375 361.160156 621.632812 362.257812 622.949219 364.671875 C 624.265625 366.863281 624.921875 370.15625 624.921875 374.324219 C 624.921875 378.492188 624.265625 381.78125 622.949219 383.976562 C 621.632812 386.167969 619.4375 387.265625 616.148438 387.265625 Z M 619.21875 380.902344 C 619.65625 379.367188 619.875 377.175781 619.875 374.324219 C 619.875 371.25 619.65625 369.058594 619.21875 367.523438 C 618.78125 365.984375 617.683594 365.328125 616.367188 365.328125 C 615.050781 365.328125 613.953125 365.984375 613.515625 367.523438 C 613.078125 369.058594 612.855469 371.25 612.855469 374.324219 C 612.855469 377.175781 613.078125 379.367188 613.515625 381.125 C 613.953125 382.660156 615.050781 383.535156 616.367188 383.535156 C 617.683594 383.535156 618.78125 382.4375 619.21875 380.902344 Z M 619.21875 380.902344 " fill-opacity="1" fill-rule="nonzero"/><path fill="#ffffff" d="M 636.109375 387.265625 C 632.820312 387.265625 630.625 386.167969 629.308594 383.976562 C 627.992188 381.78125 627.335938 378.492188 627.335938 374.324219 C 627.335938 370.15625 627.992188 366.863281 629.308594 364.671875 C 630.625 362.476562 632.820312 361.160156 636.109375 361.160156 C 639.402344 361.160156 641.59375 362.257812 642.910156 364.671875 C 644.226562 366.863281 644.886719 370.15625 644.886719 374.324219 C 644.886719 378.492188 644.226562 381.78125 642.910156 383.976562 C 641.59375 386.167969 639.402344 387.265625 636.109375 387.265625 Z M 639.183594 380.902344 C 639.621094 379.367188 639.839844 377.175781 639.839844 374.324219 C 639.839844 371.25 639.621094 369.058594 639.183594 367.523438 C 638.742188 365.984375 637.644531 365.328125 636.332031 365.328125 C 635.015625 365.328125 633.917969 365.984375 633.476562 367.523438 C 633.039062 369.058594 632.820312 371.25 632.820312 374.324219 C 632.820312 377.175781 633.039062 379.367188 633.476562 381.125 C 633.917969 382.660156 635.015625 383.535156 636.332031 383.535156 C 637.644531 383.535156 638.523438 382.4375 639.183594 380.902344 Z M 639.183594 380.902344 " fill-opacity="1" fill-rule="nonzero"/><path fill="#ffffff" d="M 659.363281 372.785156 C 658.925781 371.910156 658.046875 371.46875 656.953125 371.46875 C 655.636719 371.46875 654.539062 371.910156 654.097656 372.785156 C 653.878906 373.226562 653.660156 374.101562 653.660156 375.199219 L 653.660156 386.609375 L 648.613281 386.609375 L 648.613281 367.523438 L 653.441406 367.523438 L 653.441406 370.375 C 654.097656 369.277344 654.539062 368.617188 655.195312 368.179688 C 656.074219 367.523438 657.390625 367.082031 658.925781 367.082031 C 660.460938 367.082031 661.558594 367.300781 662.4375 367.960938 C 663.09375 368.617188 663.753906 369.277344 664.191406 370.15625 C 664.847656 369.058594 665.726562 368.179688 666.605469 367.742188 C 667.699219 367.300781 668.796875 366.863281 670.113281 366.863281 C 670.992188 366.863281 671.867188 367.082031 672.527344 367.300781 C 673.40625 367.523438 674.0625 368.179688 674.722656 369.058594 C 675.160156 369.714844 675.597656 370.59375 675.816406 371.472656 C 676.035156 372.128906 676.035156 373.007812 676.035156 374.324219 L 676.035156 386.386719 L 670.992188 386.386719 L 670.992188 374.324219 C 670.992188 373.664062 670.773438 373.007812 670.550781 372.566406 C 670.113281 371.691406 669.238281 371.25 668.140625 371.25 C 666.824219 371.25 665.726562 371.910156 665.289062 373.007812 C 665.066406 373.664062 664.847656 374.324219 664.847656 375.199219 L 664.847656 386.609375 L 659.804688 386.609375 L 659.804688 375.199219 C 659.582031 374.101562 659.582031 373.226562 659.363281 372.785156 Z M 659.363281 372.785156 " fill-opacity="1" fill-rule="nonzero"/><path fill="#ffffff" d="M 685.910156 389.898438 C 686.347656 390.335938 687.445312 390.554688 688.542969 390.554688 C 690.296875 390.554688 691.613281 389.898438 692.050781 388.800781 C 692.488281 387.921875 692.710938 386.828125 692.710938 384.851562 L 692.710938 383.535156 C 692.269531 384.414062 691.613281 385.070312 691.171875 385.292969 C 690.078125 385.949219 688.980469 386.386719 687.226562 386.386719 C 684.8125 386.386719 682.835938 385.511719 681.300781 383.753906 C 679.765625 382 679.109375 379.808594 679.109375 376.734375 C 679.109375 373.882812 679.765625 371.46875 681.300781 369.496094 C 682.617188 367.523438 684.8125 366.644531 687.226562 366.644531 C 688.101562 366.644531 688.980469 366.863281 689.636719 367.082031 C 690.953125 367.523438 691.832031 368.617188 692.488281 369.933594 L 692.488281 367.082031 L 697.316406 367.082031 L 697.316406 385.292969 C 697.316406 387.703125 696.878906 389.679688 696 390.777344 C 694.683594 392.96875 691.832031 394.066406 687.882812 394.066406 C 685.46875 394.066406 683.496094 393.628906 681.960938 392.53125 C 680.425781 391.652344 679.546875 390.117188 679.328125 388.144531 L 684.8125 388.144531 C 685.25 389.238281 685.46875 389.679688 685.910156 389.898438 Z M 685.03125 380.027344 C 685.6875 381.5625 687.003906 382.4375 688.761719 382.4375 C 689.859375 382.4375 690.953125 382 691.613281 381.125 C 692.488281 380.246094 692.929688 378.929688 692.929688 376.953125 C 692.929688 375.199219 692.488281 373.664062 691.832031 372.785156 C 691.175781 371.910156 690.078125 371.46875 688.761719 371.46875 C 687.003906 371.46875 685.910156 372.347656 685.03125 373.882812 C 684.59375 374.761719 684.59375 375.859375 684.59375 377.175781 C 684.375 378.269531 684.59375 379.148438 685.03125 380.027344 Z M 685.03125 380.027344 " fill-opacity="1" fill-rule="nonzero"/><path fill="#ffffff" d="M 594.648438 466.898438 L 592.675781 466.898438 L 588.726562 460.097656 L 588.726562 466.898438 L 586.75 466.898438 L 586.75 457.246094 L 588.945312 457.246094 L 592.894531 464.046875 L 592.894531 457.246094 L 594.867188 457.246094 L 594.867188 466.898438 Z M 594.648438 466.898438 " fill-opacity="1" fill-rule="nonzero"/><path fill="#ffffff" d="M 603.425781 462.511719 L 598.597656 462.511719 L 598.597656 464.925781 L 603.863281 464.925781 L 603.863281 466.679688 L 596.402344 466.679688 L 596.402344 457.027344 L 603.425781 457.027344 L 603.425781 458.78125 L 598.597656 458.78125 L 598.597656 460.757812 L 603.203125 460.757812 L 603.203125 462.511719 Z M 603.425781 462.511719 " fill-opacity="1" fill-rule="nonzero"/><path fill="#ffffff" d="M 611.320312 463.167969 L 611.320312 457.246094 L 613.296875 457.246094 L 613.296875 463.167969 C 613.296875 464.265625 613.078125 464.925781 612.855469 465.582031 C 612.199219 466.679688 611.101562 467.117188 609.347656 467.117188 C 607.59375 467.117188 606.496094 466.679688 605.835938 465.582031 C 605.617188 464.925781 605.398438 464.265625 605.398438 463.167969 L 605.398438 457.246094 L 607.371094 457.246094 L 607.371094 463.167969 C 607.371094 463.828125 607.371094 464.265625 607.59375 464.703125 C 607.8125 465.144531 608.46875 465.582031 609.128906 465.582031 C 610.003906 465.582031 610.445312 465.363281 610.664062 464.703125 C 611.320312 464.265625 611.320312 463.828125 611.320312 463.167969 Z M 611.320312 463.167969 " fill-opacity="1" fill-rule="nonzero"/><path fill="#ffffff" d="M 619.4375 462.949219 L 617.246094 462.949219 L 617.246094 466.679688 L 615.269531 466.679688 L 615.269531 457.027344 L 620.097656 457.027344 C 620.753906 457.027344 621.191406 457.027344 621.632812 457.246094 C 622.070312 457.464844 622.289062 457.683594 622.507812 457.90625 C 622.730469 458.125 622.949219 458.34375 622.949219 458.78125 C 623.167969 459 623.167969 459.441406 623.167969 459.878906 C 623.167969 460.316406 622.949219 460.757812 622.730469 461.195312 C 622.507812 461.632812 622.070312 461.851562 621.632812 462.074219 C 622.070312 462.292969 622.289062 462.511719 622.507812 462.730469 C 622.730469 463.167969 622.730469 463.609375 622.730469 464.265625 L 622.730469 464.925781 C 622.730469 465.363281 622.730469 465.582031 622.730469 465.800781 C 622.730469 466.019531 622.949219 466.242188 623.167969 466.460938 L 623.167969 466.679688 L 620.972656 466.679688 C 620.972656 466.460938 620.972656 466.242188 620.753906 466.242188 C 620.753906 466.019531 620.753906 465.582031 620.753906 465.363281 L 620.753906 464.484375 C 620.753906 463.828125 620.535156 463.390625 620.316406 463.167969 C 620.535156 463.167969 620.097656 462.949219 619.4375 462.949219 Z M 620.753906 461.195312 C 621.191406 460.976562 621.414062 460.757812 621.414062 460.097656 C 621.414062 459.441406 621.191406 459.21875 620.753906 459 C 620.535156 458.78125 620.316406 458.78125 619.65625 458.78125 L 617.246094 458.78125 L 617.246094 461.414062 L 619.4375 461.414062 C 620.097656 461.414062 620.535156 461.414062 620.753906 461.195312 Z M 620.753906 461.195312 " fill-opacity="1" fill-rule="nonzero"/><path fill="#ffffff" d="M 629.308594 467.117188 C 627.992188 467.117188 626.898438 466.679688 626.238281 466.019531 C 625.363281 465.144531 624.703125 463.828125 624.703125 462.074219 C 624.703125 460.316406 625.140625 459 626.238281 458.125 C 626.898438 457.464844 627.992188 457.027344 629.308594 457.027344 C 630.625 457.027344 631.722656 457.464844 632.601562 458.125 C 633.476562 459 634.136719 460.316406 634.136719 462.074219 C 634.136719 463.828125 633.699219 465.144531 632.601562 466.019531 C 631.722656 466.679688 630.625 467.117188 629.308594 467.117188 Z M 631.285156 464.484375 C 631.722656 463.828125 631.941406 462.949219 631.941406 461.851562 C 631.941406 460.757812 631.722656 459.878906 631.285156 459.21875 C 630.84375 458.5625 630.1875 458.34375 629.308594 458.34375 C 628.433594 458.34375 627.773438 458.5625 627.335938 459.21875 C 626.898438 459.878906 626.675781 460.757812 626.675781 461.851562 C 626.675781 462.949219 626.898438 463.828125 627.335938 464.484375 C 627.773438 465.144531 628.433594 465.363281 629.308594 465.363281 C 630.1875 465.363281 630.847656 465.144531 631.285156 464.484375 Z M 631.285156 464.484375 " fill-opacity="1" fill-rule="nonzero"/><path fill="#ffffff" d="M 642.472656 458.78125 L 637.644531 458.78125 L 637.644531 460.976562 L 641.8125 460.976562 L 641.8125 462.730469 L 637.644531 462.730469 L 637.644531 466.898438 L 635.671875 466.898438 L 635.671875 457.246094 L 642.472656 457.246094 Z M 642.472656 458.78125 " fill-opacity="1" fill-rule="nonzero"/><path fill="#ffffff" d="M 648.613281 464.925781 L 645.105469 464.925781 L 644.445312 466.898438 L 642.253906 466.898438 L 645.761719 457.246094 L 647.957031 457.246094 L 651.46875 466.898438 L 649.273438 466.898438 Z M 648.175781 463.167969 L 646.859375 459.441406 L 645.542969 463.167969 Z M 648.175781 463.167969 " fill-opacity="1" fill-rule="nonzero"/><path fill="#ffffff" d="M 659.582031 466.019531 C 658.925781 466.679688 657.828125 467.117188 656.730469 467.117188 C 655.414062 467.117188 654.320312 466.679688 653.441406 465.800781 C 652.5625 464.925781 652.34375 463.609375 652.34375 462.074219 C 652.34375 460.316406 652.785156 459 653.660156 458.125 C 654.539062 457.246094 655.414062 457.027344 656.730469 457.027344 C 658.269531 457.027344 659.582031 457.464844 660.242188 458.5625 C 660.679688 459.21875 660.898438 459.660156 660.898438 460.316406 L 658.925781 460.316406 C 658.707031 459.878906 658.707031 459.441406 658.488281 459.21875 C 658.046875 458.78125 657.609375 458.5625 656.953125 458.5625 C 656.292969 458.5625 655.636719 458.78125 655.195312 459.441406 C 654.757812 460.097656 654.539062 460.976562 654.539062 462.074219 C 654.539062 463.167969 654.757812 464.046875 655.195312 464.484375 C 655.636719 464.925781 656.292969 465.363281 656.953125 465.363281 C 657.609375 465.363281 658.265625 465.144531 658.488281 464.703125 C 658.707031 464.484375 658.925781 464.046875 658.925781 463.609375 L 660.898438 463.609375 C 660.898438 464.484375 660.242188 465.363281 659.582031 466.019531 Z M 659.582031 466.019531 " fill-opacity="1" fill-rule="nonzero"/><path fill="#ffffff" d="M 669.675781 457.027344 L 669.675781 458.78125 L 666.605469 458.78125 L 666.605469 466.679688 L 664.628906 466.679688 L 664.628906 458.78125 L 661.777344 458.78125 L 661.777344 457.027344 Z M 669.675781 457.027344 " fill-opacity="1" fill-rule="nonzero"/><path fill="#ffffff" d="M 674.722656 467.117188 C 673.40625 467.117188 672.308594 466.679688 671.648438 466.019531 C 670.773438 465.144531 670.113281 463.828125 670.113281 462.074219 C 670.113281 460.316406 670.550781 459 671.648438 458.125 C 672.308594 457.464844 673.40625 457.027344 674.722656 457.027344 C 676.035156 457.027344 677.132812 457.464844 678.011719 458.125 C 678.890625 459 679.546875 460.316406 679.546875 462.074219 C 679.546875 463.828125 679.109375 465.144531 678.011719 466.019531 C 677.351562 466.679688 676.257812 467.117188 674.722656 467.117188 Z M 676.695312 464.484375 C 677.132812 463.828125 677.351562 462.949219 677.351562 461.851562 C 677.351562 460.757812 677.132812 459.878906 676.695312 459.21875 C 676.257812 458.5625 675.597656 458.34375 674.722656 458.34375 C 673.84375 458.34375 673.183594 458.5625 672.746094 459.21875 C 672.308594 459.878906 672.089844 460.757812 672.089844 461.851562 C 672.089844 462.949219 672.308594 463.828125 672.746094 464.484375 C 673.183594 465.144531 673.84375 465.363281 674.722656 465.363281 C 675.597656 465.363281 676.257812 465.144531 676.695312 464.484375 Z M 676.695312 464.484375 " fill-opacity="1" fill-rule="nonzero"/><path fill="#ffffff" d="M 685.03125 462.949219 L 682.835938 462.949219 L 682.835938 466.679688 L 680.863281 466.679688 L 680.863281 457.027344 L 685.691406 457.027344 C 686.347656 457.027344 686.785156 457.027344 687.226562 457.246094 C 687.664062 457.464844 687.882812 457.683594 688.101562 457.90625 C 688.320312 458.125 688.542969 458.34375 688.542969 458.78125 C 688.761719 459 688.761719 459.441406 688.761719 459.878906 C 688.761719 460.316406 688.542969 460.757812 688.320312 461.195312 C 688.101562 461.632812 687.664062 461.851562 687.226562 462.074219 C 687.664062 462.292969 687.882812 462.511719 688.101562 462.730469 C 688.320312 463.167969 688.320312 463.609375 688.320312 464.265625 L 688.320312 464.925781 C 688.320312 465.363281 688.320312 465.582031 688.320312 465.800781 C 688.320312 466.019531 688.542969 466.242188 688.761719 466.460938 L 688.761719 466.679688 L 686.566406 466.679688 C 686.566406 466.460938 686.566406 466.242188 686.347656 466.242188 C 686.347656 466.019531 686.347656 465.582031 686.347656 465.363281 L 686.347656 464.484375 C 686.347656 463.828125 686.128906 463.390625 685.910156 463.167969 C 686.128906 463.167969 685.691406 462.949219 685.03125 462.949219 Z M 686.347656 461.195312 C 686.785156 460.976562 687.003906 460.757812 687.003906 460.097656 C 687.003906 459.441406 686.785156 459.21875 686.347656 459 C 686.128906 458.78125 685.910156 458.78125 685.25 458.78125 L 682.835938 458.78125 L 682.835938 461.414062 L 685.03125 461.414062 C 685.691406 461.414062 686.128906 461.414062 686.347656 461.195312 Z M 686.347656 461.195312 " fill-opacity="1" fill-rule="nonzero"/><path fill="#ffffff" d="M 690.953125 458.34375 L 690.953125 457.246094 L 695.34375 457.246094 L 695.34375 458.34375 L 693.804688 458.34375 L 693.804688 462.074219 L 692.488281 462.074219 L 692.488281 458.34375 Z M 699.289062 462.074219 L 698.195312 462.074219 L 697.097656 458.5625 L 697.097656 462.074219 L 695.78125 462.074219 L 695.78125 457.246094 L 697.753906 457.246094 L 698.632812 460.097656 L 699.511719 457.246094 L 701.484375 457.246094 L 701.484375 462.074219 L 700.167969 462.074219 L 700.167969 458.5625 Z M 699.289062 462.074219 " fill-opacity="1" fill-rule="nonzero"/><path fill="#ffffff" d="M 543.316406 314.433594 L 543.316406 492.785156 L 419.808594 492.785156 L 419.808594 314.433594 L 543.316406 314.433594 M 548.800781 308.730469 L 414.101562 308.730469 L 414.101562 498.269531 L 548.800781 498.269531 Z M 548.800781 308.730469 " fill-opacity="1" fill-rule="nonzero"/><path fill="#ffffff" d="M 704.996094 314.433594 L 704.996094 492.785156 L 581.488281 492.785156 L 581.488281 314.433594 L 704.996094 314.433594 M 710.480469 308.730469 L 575.78125 308.730469 L 575.78125 498.269531 L 710.480469 498.269531 Z M 710.480469 308.730469 " fill-opacity="1" fill-rule="nonzero"/><path fill="#ffffff" d="M 543.316406 431.796875 L 543.316406 492.566406 L 419.808594 492.566406 L 419.808594 431.796875 L 543.316406 431.796875 M 548.800781 425.875 L 414.101562 425.875 L 414.101562 498.269531 L 548.800781 498.269531 Z M 548.800781 425.875 " fill-opacity="1" fill-rule="nonzero"/><path fill="#ffffff" d="M 575.78125 426.09375 L 710.480469 426.09375 L 710.480469 432.238281 L 575.78125 432.238281 Z M 575.78125 426.09375 " fill-opacity="1" fill-rule="nonzero"/><path fill="#ffffff" d="M 128.476562 393.1875 L 119.261719 393.1875 L 119.261719 361.378906 L 108.292969 361.378906 L 108.292969 355.015625 C 111.144531 354.796875 113.121094 354.796875 114.21875 354.359375 C 115.972656 353.921875 117.507812 353.042969 118.605469 351.945312 C 119.484375 351.070312 119.921875 349.972656 120.359375 348.65625 C 120.578125 347.777344 120.800781 347.121094 120.800781 346.902344 L 128.257812 346.902344 L 128.257812 393.1875 Z M 128.476562 393.1875 " fill-opacity="1" fill-rule="nonzero"/><path fill="#ffffff" d="M 153.707031 370.15625 C 152.609375 370.15625 151.730469 370.375 150.851562 370.59375 C 149.535156 371.03125 148.441406 372.128906 147.5625 373.445312 L 139.445312 373.007812 L 142.734375 347.558594 L 168.183594 347.558594 L 168.183594 355.238281 L 149.316406 355.238281 L 147.5625 365.328125 C 148.878906 364.449219 149.976562 363.792969 150.851562 363.574219 C 152.167969 363.132812 153.707031 362.914062 155.679688 362.914062 C 159.410156 362.914062 162.917969 364.230469 165.769531 366.863281 C 168.621094 369.496094 169.9375 373.226562 169.9375 378.050781 C 169.9375 382.21875 168.621094 386.167969 165.769531 389.460938 C 162.917969 392.75 158.96875 394.503906 153.484375 394.503906 C 149.097656 394.503906 145.589844 393.40625 142.734375 390.996094 C 139.882812 388.582031 138.347656 385.292969 138.128906 380.902344 L 147.125 380.902344 C 147.5625 382.878906 148.21875 384.414062 149.097656 385.511719 C 150.195312 386.609375 151.511719 387.046875 153.484375 387.046875 C 155.679688 387.046875 157.433594 386.167969 158.53125 384.632812 C 159.628906 383.097656 160.285156 381.125 160.285156 378.710938 C 160.285156 376.296875 159.628906 374.324219 158.53125 372.785156 C 157.433594 371.25 155.898438 370.15625 153.707031 370.15625 Z M 153.707031 370.15625 " fill-opacity="1" fill-rule="nonzero"/><path fill="#ffffff" d="M 186.613281 399.332031 C 187.488281 400.207031 189.242188 400.648438 191.65625 400.648438 C 194.949219 400.648438 197.140625 399.550781 198.238281 397.355469 C 198.894531 396.039062 199.335938 393.628906 199.335938 390.335938 L 199.335938 388.144531 C 198.457031 389.679688 197.582031 390.777344 196.484375 391.433594 C 194.726562 392.75 192.316406 393.40625 189.464844 393.40625 C 185.074219 393.40625 181.347656 391.871094 178.714844 388.800781 C 176.082031 385.730469 174.765625 381.34375 174.765625 376.078125 C 174.765625 370.8125 176.082031 366.644531 178.714844 363.132812 C 181.347656 359.625 184.855469 357.871094 189.683594 357.871094 C 191.4375 357.871094 192.972656 358.089844 194.289062 358.746094 C 196.484375 359.625 198.238281 361.378906 199.554688 363.792969 L 199.554688 358.746094 L 208.328125 358.746094 L 208.328125 391.652344 C 208.328125 396.039062 207.671875 399.550781 206.136719 401.746094 C 203.503906 405.691406 198.675781 407.667969 191.21875 407.667969 C 186.832031 407.667969 183.101562 406.789062 180.25 405.035156 C 177.398438 403.28125 175.863281 400.648438 175.644531 397.136719 L 185.515625 397.136719 C 185.515625 398.015625 185.953125 398.671875 186.613281 399.332031 Z M 185.074219 381.34375 C 186.390625 384.195312 188.585938 385.730469 191.65625 385.730469 C 193.851562 385.730469 195.605469 384.851562 197.140625 383.316406 C 198.675781 381.78125 199.335938 379.148438 199.335938 375.640625 C 199.335938 372.347656 198.675781 369.933594 197.140625 368.179688 C 195.824219 366.425781 193.851562 365.546875 191.65625 365.546875 C 188.367188 365.546875 186.171875 367.082031 185.074219 369.933594 C 184.417969 371.46875 184.199219 373.445312 184.199219 375.859375 C 183.980469 377.832031 184.417969 379.808594 185.074219 381.34375 Z M 185.074219 381.34375 " fill-opacity="1" fill-rule="nonzero"/><path fill="#ffffff" d="M 118.167969 459 C 117.289062 459.441406 116.410156 459.660156 115.09375 459.660156 C 113.121094 459.660156 111.585938 459 110.269531 457.683594 C 108.953125 456.367188 108.292969 454.394531 108.292969 452.199219 C 108.292969 449.789062 108.953125 448.03125 110.269531 446.496094 C 111.585938 444.960938 113.339844 444.304688 115.535156 444.304688 C 117.289062 444.304688 118.824219 444.742188 119.921875 445.621094 C 121.019531 446.496094 121.675781 447.8125 121.894531 449.128906 L 118.824219 449.128906 C 118.605469 448.03125 117.945312 447.375 117.070312 446.9375 C 116.628906 446.714844 115.972656 446.714844 115.316406 446.714844 C 114.21875 446.714844 113.121094 447.15625 112.460938 448.03125 C 111.804688 448.910156 111.367188 450.226562 111.367188 451.980469 C 111.367188 453.738281 111.804688 455.050781 112.683594 455.710938 C 113.558594 456.367188 114.4375 456.808594 115.535156 456.808594 C 116.628906 456.808594 117.507812 456.589844 117.945312 455.929688 C 118.605469 455.273438 119.042969 454.613281 119.261719 453.515625 L 115.972656 453.515625 L 115.972656 451.542969 L 122.113281 451.542969 L 122.113281 459.441406 L 120.140625 459.441406 L 119.921875 457.683594 C 119.042969 458.125 118.605469 458.5625 118.167969 459 Z M 118.167969 459 " fill-opacity="1" fill-rule="nonzero"/><path fill="#ffffff" d="M 130.230469 451.105469 C 129.136719 451.105469 128.257812 451.542969 128.039062 452.199219 C 127.820312 452.640625 127.820312 453.296875 127.820312 454.175781 L 127.820312 459.441406 L 124.746094 459.441406 L 124.746094 448.691406 L 127.378906 448.691406 L 127.378906 450.664062 C 127.820312 450.007812 128.257812 449.347656 128.476562 449.128906 C 128.914062 448.691406 129.792969 448.472656 130.453125 448.472656 C 130.453125 448.472656 130.453125 448.472656 130.671875 448.472656 C 130.671875 448.472656 130.890625 448.472656 130.890625 448.472656 L 130.890625 451.324219 C 130.671875 451.324219 130.453125 451.324219 130.453125 451.324219 C 130.230469 451.105469 130.230469 451.105469 130.230469 451.105469 Z M 130.230469 451.105469 " fill-opacity="1" fill-rule="nonzero"/><path fill="#ffffff" d="M 133.082031 449.566406 C 133.742188 448.691406 135.058594 448.03125 137.03125 448.03125 C 138.128906 448.03125 139.226562 448.253906 140.105469 448.691406 C 140.980469 449.128906 141.421875 450.007812 141.421875 451.324219 L 141.421875 456.367188 C 141.421875 456.808594 141.421875 457.027344 141.421875 457.683594 C 141.421875 458.125 141.421875 458.34375 141.640625 458.34375 C 141.640625 458.5625 141.859375 458.5625 142.078125 458.5625 L 142.078125 459 L 139.007812 459 C 139.007812 458.78125 138.789062 458.5625 138.789062 458.34375 C 138.789062 458.125 138.789062 457.90625 138.789062 457.683594 C 138.347656 458.125 137.910156 458.5625 137.472656 458.78125 C 136.8125 459.222656 136.15625 459.222656 135.496094 459.222656 C 134.621094 459.222656 133.742188 459 133.082031 458.34375 C 132.425781 457.683594 132.207031 457.027344 132.207031 455.929688 C 132.207031 454.613281 132.644531 453.738281 133.742188 453.078125 C 134.398438 452.859375 135.058594 452.421875 136.15625 452.421875 L 137.03125 452.199219 C 137.472656 452.199219 137.910156 451.980469 138.128906 451.980469 C 138.566406 451.761719 138.789062 451.542969 138.789062 451.105469 C 138.789062 450.664062 138.566406 450.445312 138.347656 450.226562 C 138.128906 450.007812 137.691406 450.007812 137.03125 450.007812 C 136.375 450.007812 135.9375 450.226562 135.714844 450.445312 C 135.496094 450.664062 135.277344 451.105469 135.277344 451.542969 L 132.644531 451.542969 C 132.207031 451.105469 132.644531 450.226562 133.082031 449.566406 Z M 135.058594 457.246094 C 135.277344 457.464844 135.714844 457.464844 135.9375 457.464844 C 136.59375 457.464844 137.03125 457.246094 137.691406 457.027344 C 138.128906 456.589844 138.566406 455.929688 138.566406 455.050781 L 138.566406 453.957031 C 138.347656 454.175781 138.128906 454.175781 138.128906 454.175781 C 137.910156 454.175781 137.691406 454.394531 137.472656 454.394531 L 136.8125 454.613281 C 136.15625 454.613281 135.714844 454.832031 135.496094 455.050781 C 135.058594 455.273438 134.839844 455.710938 134.839844 456.148438 C 134.621094 456.808594 134.839844 457.027344 135.058594 457.246094 Z M 135.058594 457.246094 " fill-opacity="1" fill-rule="nonzero"/><path fill="#ffffff" d="M 151.292969 448.910156 C 152.167969 449.347656 152.609375 450.445312 152.828125 451.761719 L 149.976562 451.761719 C 149.976562 451.324219 149.757812 451.105469 149.757812 450.882812 C 149.535156 450.445312 148.878906 450.226562 148.222656 450.226562 C 147.5625 450.226562 147.125 450.226562 146.90625 450.445312 C 146.683594 450.664062 146.464844 450.882812 146.464844 451.105469 C 146.464844 451.324219 146.683594 451.761719 146.90625 451.761719 C 147.125 451.980469 148.222656 452.199219 149.757812 452.640625 C 150.851562 452.859375 151.730469 453.296875 152.390625 453.738281 C 153.046875 454.175781 153.265625 455.050781 153.265625 455.710938 C 153.265625 456.808594 152.828125 457.683594 152.167969 458.34375 C 151.292969 459 150.195312 459.441406 148.441406 459.441406 C 146.683594 459.441406 145.589844 459 144.710938 458.34375 C 143.832031 457.683594 143.394531 456.808594 143.394531 455.710938 L 146.246094 455.710938 C 146.246094 456.148438 146.464844 456.589844 146.683594 456.808594 C 147.125 457.246094 147.78125 457.464844 148.660156 457.464844 C 149.316406 457.464844 149.757812 457.464844 149.976562 457.246094 C 150.195312 457.027344 150.414062 456.808594 150.414062 456.589844 C 150.414062 456.367188 150.195312 455.929688 149.976562 455.929688 C 149.757812 455.710938 148.660156 455.492188 147.125 455.050781 C 145.808594 454.832031 144.929688 454.394531 144.492188 453.957031 C 144.050781 453.515625 143.832031 452.859375 143.832031 451.980469 C 143.832031 450.882812 144.273438 450.226562 144.929688 449.347656 C 145.808594 448.691406 146.90625 448.253906 148.222656 448.253906 C 149.316406 448.25 150.414062 448.472656 151.292969 448.910156 Z M 151.292969 448.910156 " fill-opacity="1" fill-rule="nonzero"/><path fill="#ffffff" d="M 162.699219 448.910156 C 163.578125 449.347656 164.015625 450.445312 164.234375 451.761719 L 161.382812 451.761719 C 161.382812 451.324219 161.164062 451.105469 161.164062 450.882812 C 160.945312 450.445312 160.285156 450.226562 159.628906 450.226562 C 158.96875 450.226562 158.53125 450.226562 158.3125 450.445312 C 158.09375 450.664062 157.875 450.882812 157.875 451.105469 C 157.875 451.324219 158.09375 451.761719 158.3125 451.761719 C 158.53125 451.980469 159.628906 452.199219 161.164062 452.640625 C 162.261719 452.859375 163.136719 453.296875 163.796875 453.738281 C 164.453125 454.175781 164.675781 455.050781 164.675781 455.710938 C 164.675781 456.808594 164.234375 457.683594 163.578125 458.34375 C 162.699219 459 161.601562 459.441406 159.847656 459.441406 C 158.09375 459.441406 156.996094 459 156.117188 458.34375 C 155.242188 457.683594 154.800781 456.808594 154.800781 455.710938 L 157.652344 455.710938 C 157.652344 456.148438 157.875 456.589844 158.09375 456.808594 C 158.53125 457.246094 159.191406 457.464844 160.066406 457.464844 C 160.726562 457.464844 161.164062 457.464844 161.382812 457.246094 C 161.601562 457.027344 161.820312 456.808594 161.820312 456.589844 C 161.820312 456.367188 161.601562 455.929688 161.382812 455.929688 C 161.164062 455.710938 160.066406 455.492188 158.53125 455.050781 C 157.214844 454.832031 156.335938 454.394531 155.898438 453.957031 C 155.460938 453.515625 155.242188 452.859375 155.242188 451.980469 C 155.242188 450.882812 155.679688 450.226562 156.335938 449.347656 C 157.214844 448.691406 158.3125 448.253906 159.628906 448.253906 C 160.726562 448.25 161.820312 448.472656 162.699219 448.910156 Z M 162.699219 448.910156 " fill-opacity="1" fill-rule="nonzero"/><path fill="#ffffff" d="M 165.550781 452.199219 L 171.253906 452.199219 L 171.253906 454.832031 L 165.550781 454.832031 Z M 165.550781 452.199219 " fill-opacity="1" fill-rule="nonzero"/><path fill="#ffffff" d="M 183.757812 447.375 L 176.519531 447.375 L 176.519531 450.664062 L 182.882812 450.664062 L 182.882812 453.296875 L 176.519531 453.296875 L 176.519531 459.441406 L 173.449219 459.441406 L 173.449219 444.742188 L 183.757812 444.742188 Z M 183.757812 447.375 " fill-opacity="1" fill-rule="nonzero"/><path fill="#ffffff" d="M 194.949219 456.148438 C 194.949219 456.808594 194.507812 457.464844 193.851562 458.125 C 192.972656 459.21875 191.65625 459.660156 189.902344 459.660156 C 188.585938 459.660156 187.269531 459.21875 186.171875 458.34375 C 185.074219 457.464844 184.636719 455.929688 184.636719 453.957031 C 184.636719 451.980469 185.074219 450.664062 185.953125 449.566406 C 186.832031 448.472656 188.148438 448.03125 189.683594 448.03125 C 190.558594 448.03125 191.4375 448.25 192.097656 448.472656 C 192.753906 448.910156 193.410156 449.347656 193.851562 450.007812 C 194.289062 450.664062 194.507812 451.324219 194.726562 452.199219 C 194.726562 452.640625 194.726562 453.515625 194.726562 454.394531 L 187.269531 454.394531 C 187.269531 455.492188 187.707031 456.148438 188.367188 456.589844 C 188.804688 456.808594 189.242188 457.027344 189.683594 457.027344 C 190.339844 457.027344 190.78125 456.808594 191 456.589844 C 191.21875 456.367188 191.4375 456.148438 191.4375 455.929688 L 194.949219 455.929688 Z M 192.097656 452.859375 C 192.097656 452.199219 191.875 451.542969 191.4375 451.105469 C 191 450.664062 190.558594 450.445312 189.902344 450.445312 C 189.242188 450.445312 188.804688 450.664062 188.367188 451.105469 C 187.925781 451.542969 187.707031 451.980469 187.707031 452.859375 Z M 192.097656 452.859375 " fill-opacity="1" fill-rule="nonzero"/><path fill="#ffffff" d="M 206.792969 444.742188 L 206.792969 459.441406 L 203.941406 459.441406 L 203.941406 457.90625 C 203.503906 458.5625 203.066406 459 202.625 459.21875 C 202.1875 459.441406 201.527344 459.660156 200.652344 459.660156 C 199.335938 459.660156 198.238281 459.21875 197.359375 458.125 C 196.484375 457.027344 196.042969 455.710938 196.042969 454.175781 C 196.042969 452.421875 196.484375 450.882812 197.359375 449.789062 C 198.238281 448.691406 199.335938 448.25 200.871094 448.25 C 201.527344 448.25 202.1875 448.472656 202.625 448.691406 C 203.066406 448.910156 203.503906 449.347656 203.941406 449.789062 L 203.941406 444.523438 L 206.792969 444.523438 Z M 199.117188 453.957031 C 199.117188 455.050781 199.335938 455.710938 199.773438 456.367188 C 200.210938 457.027344 200.652344 457.246094 201.527344 457.246094 C 202.40625 457.246094 202.84375 457.027344 203.285156 456.367188 C 203.722656 455.710938 203.941406 455.050781 203.941406 453.957031 C 203.941406 452.640625 203.503906 451.761719 202.84375 451.105469 C 202.40625 450.664062 201.96875 450.664062 201.308594 450.664062 C 200.433594 450.664062 199.773438 450.882812 199.554688 451.542969 C 199.335938 452.199219 199.117188 453.078125 199.117188 453.957031 Z M 199.117188 453.957031 " fill-opacity="1" fill-rule="nonzero"/><path fill="#ffffff" d="M 126.722656 478.527344 C 125.625 479.621094 124.308594 480.0625 122.554688 480.0625 C 120.359375 480.0625 118.824219 479.402344 117.507812 478.085938 C 116.410156 476.769531 115.753906 474.796875 115.753906 472.601562 C 115.753906 469.96875 116.410156 467.996094 117.726562 466.679688 C 118.824219 465.582031 120.359375 464.925781 122.335938 464.925781 C 124.746094 464.925781 126.503906 465.800781 127.820312 467.335938 C 128.476562 468.214844 128.695312 469.09375 128.914062 469.96875 L 125.84375 469.96875 C 125.625 469.3125 125.40625 468.652344 125.1875 468.433594 C 124.527344 467.777344 123.871094 467.558594 122.773438 467.558594 C 121.675781 467.558594 120.800781 467.996094 120.140625 468.875 C 119.484375 469.75 119.261719 471.066406 119.261719 472.601562 C 119.261719 474.136719 119.703125 475.453125 120.359375 476.332031 C 121.019531 477.210938 121.894531 477.648438 122.992188 477.648438 C 124.089844 477.648438 124.96875 477.210938 125.40625 476.550781 C 125.625 476.113281 126.0625 475.675781 126.285156 474.796875 L 129.355469 474.796875 C 128.476562 476.332031 127.820312 477.429688 126.722656 478.527344 Z M 126.722656 478.527344 " fill-opacity="1" fill-rule="nonzero"/><path fill="#ffffff" d="M 139.882812 470.1875 C 140.761719 471.285156 141.199219 472.601562 141.199219 474.136719 C 141.199219 475.671875 140.761719 476.988281 139.882812 478.304688 C 139.007812 479.402344 137.691406 480.0625 135.714844 480.0625 C 133.742188 480.0625 132.425781 479.402344 131.546875 478.304688 C 130.671875 477.210938 130.230469 475.894531 130.230469 474.136719 C 130.230469 472.601562 130.671875 471.285156 131.546875 470.1875 C 132.425781 469.09375 133.742188 468.433594 135.714844 468.433594 C 137.691406 468.433594 139.007812 469.09375 139.882812 470.1875 Z M 135.714844 470.847656 C 134.839844 470.847656 134.179688 471.066406 133.742188 471.726562 C 133.304688 472.382812 133.082031 473.042969 133.082031 474.136719 C 133.082031 475.234375 133.304688 476.113281 133.742188 476.550781 C 134.179688 477.210938 134.839844 477.429688 135.714844 477.429688 C 136.59375 477.429688 137.253906 477.210938 137.691406 476.550781 C 138.128906 475.894531 138.347656 475.234375 138.347656 474.136719 C 138.347656 473.042969 138.128906 472.164062 137.691406 471.726562 C 137.253906 471.066406 136.59375 470.847656 135.714844 470.847656 Z M 135.714844 470.847656 " fill-opacity="1" fill-rule="nonzero"/><path fill="#ffffff" d="M 143.394531 464.925781 L 146.246094 464.925781 L 146.246094 479.621094 L 143.394531 479.621094 Z M 143.394531 464.925781 " fill-opacity="1" fill-rule="nonzero"/><path fill="#ffffff" d="M 149.097656 464.925781 L 151.949219 464.925781 L 151.949219 479.621094 L 149.097656 479.621094 Z M 149.097656 464.925781 " fill-opacity="1" fill-rule="nonzero"/><path fill="#ffffff" d="M 155.019531 469.96875 C 155.679688 469.09375 156.996094 468.433594 158.96875 468.433594 C 160.066406 468.433594 161.164062 468.652344 162.042969 469.09375 C 162.917969 469.53125 163.359375 470.410156 163.359375 471.726562 L 163.359375 476.769531 C 163.359375 477.210938 163.359375 477.429688 163.359375 478.085938 C 163.359375 478.527344 163.359375 478.746094 163.578125 478.746094 C 163.578125 478.964844 163.796875 478.964844 164.015625 478.964844 L 164.015625 479.402344 L 160.945312 479.402344 C 160.945312 479.183594 160.726562 478.964844 160.726562 478.746094 C 160.726562 478.527344 160.726562 478.304688 160.726562 478.085938 C 160.285156 478.527344 159.847656 478.964844 159.410156 479.183594 C 158.75 479.621094 158.09375 479.621094 157.433594 479.621094 C 156.558594 479.621094 155.679688 479.402344 155.019531 478.746094 C 154.363281 478.085938 154.144531 477.429688 154.144531 476.332031 C 154.144531 475.015625 154.582031 474.136719 155.679688 473.480469 C 156.335938 473.261719 156.996094 472.820312 158.09375 472.820312 L 158.96875 472.601562 C 159.410156 472.601562 159.847656 472.382812 160.066406 472.382812 C 160.503906 472.164062 160.726562 471.945312 160.726562 471.503906 C 160.726562 471.066406 160.503906 470.847656 160.285156 470.628906 C 160.066406 470.410156 159.628906 470.410156 158.96875 470.410156 C 158.3125 470.410156 157.875 470.628906 157.652344 470.847656 C 157.433594 471.066406 157.214844 471.503906 157.214844 471.945312 L 154.582031 471.945312 C 154.363281 471.285156 154.582031 470.628906 155.019531 469.96875 Z M 157.214844 477.648438 C 157.433594 477.867188 157.875 477.867188 158.09375 477.867188 C 158.75 477.867188 159.191406 477.648438 159.847656 477.429688 C 160.285156 476.988281 160.726562 476.332031 160.726562 475.453125 L 160.726562 474.359375 C 160.503906 474.578125 160.285156 474.578125 160.285156 474.578125 C 160.066406 474.578125 159.847656 474.796875 159.628906 474.796875 L 158.96875 475.015625 C 158.3125 475.015625 157.875 475.234375 157.652344 475.453125 C 157.214844 475.675781 156.996094 476.113281 156.996094 476.550781 C 156.777344 476.988281 156.777344 477.429688 157.214844 477.648438 Z M 157.214844 477.648438 " fill-opacity="1" fill-rule="nonzero"/><path fill="#ffffff" d="M 169.0625 481.597656 C 169.28125 481.816406 169.9375 482.035156 170.597656 482.035156 C 171.695312 482.035156 172.351562 481.597656 172.570312 480.9375 C 172.789062 480.5 173.011719 479.84375 173.011719 478.746094 L 173.011719 478.085938 C 172.789062 478.527344 172.351562 478.964844 172.132812 479.183594 C 171.472656 479.621094 170.816406 479.84375 169.9375 479.84375 C 168.621094 479.84375 167.527344 479.402344 166.648438 478.304688 C 165.769531 477.429688 165.332031 476.113281 165.332031 474.359375 C 165.332031 472.820312 165.769531 471.503906 166.429688 470.410156 C 167.085938 469.3125 168.402344 468.875 169.9375 468.875 C 170.378906 468.875 171.035156 468.875 171.253906 469.09375 C 171.914062 469.3125 172.570312 469.96875 173.011719 470.628906 L 173.011719 469.09375 L 175.863281 469.09375 L 175.863281 479.402344 C 175.863281 480.71875 175.644531 481.816406 175.203125 482.472656 C 174.328125 483.789062 172.789062 484.230469 170.597656 484.230469 C 169.28125 484.230469 168.183594 484.011719 167.304688 483.351562 C 166.429688 482.914062 165.988281 482.035156 165.769531 480.9375 L 168.621094 480.9375 C 168.621094 481.15625 168.84375 481.378906 169.0625 481.597656 Z M 168.402344 475.894531 C 168.84375 476.769531 169.5 477.210938 170.378906 477.210938 C 171.035156 477.210938 171.695312 476.988281 172.132812 476.550781 C 172.570312 476.113281 172.789062 475.234375 172.789062 474.136719 C 172.789062 473.042969 172.570312 472.382812 172.132812 471.726562 C 171.695312 471.285156 171.035156 470.847656 170.378906 470.847656 C 169.28125 470.847656 168.621094 471.285156 168.402344 472.164062 C 168.183594 472.601562 168.183594 473.261719 168.183594 473.917969 C 168.183594 474.796875 168.183594 475.453125 168.402344 475.894531 Z M 168.402344 475.894531 " fill-opacity="1" fill-rule="nonzero"/><path fill="#ffffff" d="M 187.488281 476.550781 C 187.488281 477.210938 187.050781 477.867188 186.390625 478.527344 C 185.515625 479.621094 184.199219 480.0625 182.441406 480.0625 C 181.128906 480.0625 179.8125 479.621094 178.714844 478.746094 C 177.617188 477.867188 177.179688 476.332031 177.179688 474.359375 C 177.179688 472.382812 177.617188 471.066406 178.496094 469.96875 C 179.371094 468.875 180.6875 468.433594 182.222656 468.433594 C 183.101562 468.433594 183.980469 468.652344 184.636719 468.875 C 185.296875 469.3125 185.953125 469.75 186.390625 470.410156 C 186.832031 471.066406 187.050781 471.726562 187.269531 472.601562 C 187.269531 473.042969 187.269531 473.917969 187.269531 474.796875 L 179.8125 474.796875 C 179.8125 475.894531 180.25 476.550781 180.90625 476.988281 C 181.347656 477.210938 181.785156 477.429688 182.222656 477.429688 C 182.882812 477.429688 183.320312 477.210938 183.539062 476.988281 C 183.757812 476.769531 183.980469 476.550781 183.980469 476.332031 L 187.488281 476.332031 Z M 184.855469 473.042969 C 184.855469 472.382812 184.636719 471.726562 184.199219 471.285156 C 183.757812 470.847656 183.320312 470.628906 182.664062 470.628906 C 182.003906 470.628906 181.566406 470.847656 181.128906 471.285156 C 180.6875 471.726562 180.46875 472.164062 180.46875 473.042969 Z M 184.855469 473.042969 " fill-opacity="1" fill-rule="nonzero"/><path fill="#ffffff" d="M 194.726562 470.847656 C 193.851562 470.847656 193.191406 471.285156 192.753906 472.164062 C 192.535156 472.601562 192.535156 473.042969 192.535156 473.917969 L 192.535156 479.84375 L 189.683594 479.84375 L 189.683594 469.09375 L 192.316406 469.09375 L 192.316406 470.628906 C 192.753906 469.96875 192.972656 469.75 193.410156 469.53125 C 194.070312 469.09375 194.726562 468.875 195.605469 468.875 C 196.703125 468.875 197.582031 469.09375 198.457031 469.75 C 199.335938 470.410156 199.554688 471.285156 199.554688 472.601562 L 199.554688 479.84375 L 196.703125 479.84375 L 196.703125 473.261719 C 196.703125 472.601562 196.703125 472.164062 196.484375 471.945312 C 196.042969 471.285156 195.386719 470.847656 194.726562 470.847656 Z M 194.726562 470.847656 " fill-opacity="1" fill-rule="nonzero"/><path fill="#ffffff" d="M 290.15625 458.125 C 289.058594 459.21875 287.742188 459.660156 285.988281 459.660156 C 283.792969 459.660156 282.257812 459 280.941406 457.683594 C 279.84375 456.367188 279.1875 454.394531 279.1875 452.199219 C 279.1875 449.566406 279.84375 447.59375 281.160156 446.277344 C 282.257812 445.179688 283.792969 444.523438 285.769531 444.523438 C 288.183594 444.523438 289.9375 445.398438 291.253906 446.9375 C 291.910156 447.8125 292.128906 448.691406 292.351562 449.566406 L 289.277344 449.566406 C 289.058594 448.910156 288.839844 448.25 288.621094 448.03125 C 287.960938 447.375 287.304688 447.15625 286.207031 447.15625 C 285.109375 447.15625 284.234375 447.59375 283.574219 448.472656 C 282.917969 449.347656 282.699219 450.664062 282.699219 452.199219 C 282.699219 453.738281 283.136719 455.050781 283.792969 455.929688 C 284.453125 456.808594 285.328125 457.246094 286.425781 457.246094 C 287.523438 457.246094 288.402344 456.808594 288.839844 456.148438 C 289.058594 455.710938 289.5 455.273438 289.71875 454.394531 L 292.789062 454.394531 C 291.910156 455.929688 291.253906 457.246094 290.15625 458.125 Z M 290.15625 458.125 " fill-opacity="1" fill-rule="nonzero"/><path fill="#ffffff" d="M 303.320312 449.789062 C 304.195312 450.882812 304.636719 452.199219 304.636719 453.734375 C 304.636719 455.273438 304.195312 456.589844 303.320312 457.90625 C 302.441406 459 301.125 459.660156 299.152344 459.660156 C 297.175781 459.660156 295.859375 459 294.984375 457.90625 C 294.105469 456.808594 293.667969 455.492188 293.667969 453.734375 C 293.667969 452.199219 294.105469 450.882812 294.984375 449.789062 C 295.859375 448.691406 297.175781 448.03125 299.152344 448.03125 C 301.125 448.03125 302.441406 448.691406 303.320312 449.789062 Z M 299.152344 450.445312 C 298.273438 450.445312 297.613281 450.664062 297.175781 451.324219 C 296.738281 451.980469 296.519531 452.640625 296.519531 453.734375 C 296.519531 454.832031 296.738281 455.710938 297.175781 456.148438 C 297.613281 456.808594 298.273438 457.027344 299.152344 457.027344 C 300.027344 457.027344 300.6875 456.808594 301.125 456.148438 C 301.5625 455.492188 301.78125 454.832031 301.78125 453.734375 C 301.78125 452.640625 301.5625 451.761719 301.125 451.324219 C 300.6875 450.882812 300.027344 450.445312 299.152344 450.445312 Z M 299.152344 450.445312 " fill-opacity="1" fill-rule="nonzero"/><path fill="#ffffff" d="M 316.042969 452.421875 L 313.191406 452.421875 C 313.191406 451.980469 312.972656 451.761719 312.75 451.324219 C 312.53125 450.882812 311.875 450.664062 311.214844 450.664062 C 310.339844 450.664062 309.679688 451.105469 309.242188 451.980469 C 309.023438 452.421875 309.023438 453.078125 309.023438 453.957031 C 309.023438 454.832031 309.023438 455.492188 309.242188 455.929688 C 309.679688 456.808594 310.121094 457.246094 311.214844 457.246094 C 311.875 457.246094 312.3125 457.027344 312.53125 456.808594 C 312.753906 456.367188 312.972656 455.929688 312.972656 455.492188 L 315.824219 455.492188 C 315.824219 456.367188 315.382812 457.246094 314.945312 457.90625 C 314.066406 459.21875 312.753906 459.660156 310.996094 459.660156 C 309.242188 459.660156 307.925781 459.21875 307.046875 458.125 C 306.171875 457.027344 305.730469 455.710938 305.730469 454.175781 C 305.730469 452.421875 306.171875 450.882812 307.046875 449.789062 C 307.925781 448.691406 309.242188 448.25 310.777344 448.25 C 312.09375 448.25 313.191406 448.472656 314.066406 449.128906 C 314.945312 449.789062 316.042969 450.882812 316.042969 452.421875 Z M 316.042969 452.421875 " fill-opacity="1" fill-rule="nonzero"/><path fill="#ffffff" d="M 327.011719 449.789062 C 327.890625 450.882812 328.328125 452.199219 328.328125 453.734375 C 328.328125 455.273438 327.890625 456.589844 327.011719 457.90625 C 326.132812 459 324.816406 459.660156 322.84375 459.660156 C 320.867188 459.660156 319.550781 459 318.675781 457.90625 C 317.796875 456.808594 317.359375 455.492188 317.359375 453.734375 C 317.359375 452.199219 317.796875 450.882812 318.675781 449.789062 C 319.550781 448.691406 320.867188 448.03125 322.84375 448.03125 C 324.816406 448.03125 326.132812 448.691406 327.011719 449.789062 Z M 322.84375 450.445312 C 321.964844 450.445312 321.308594 450.664062 320.867188 451.324219 C 320.429688 451.980469 320.210938 452.640625 320.210938 453.734375 C 320.210938 454.832031 320.429688 455.710938 320.867188 456.148438 C 321.308594 456.808594 321.964844 457.027344 322.84375 457.027344 C 323.71875 457.027344 324.378906 456.808594 324.816406 456.148438 C 325.257812 455.492188 325.476562 454.832031 325.476562 453.734375 C 325.476562 452.640625 325.257812 451.761719 324.816406 451.324219 C 324.378906 450.882812 323.71875 450.445312 322.84375 450.445312 Z M 322.84375 450.445312 " fill-opacity="1" fill-rule="nonzero"/><path fill="#ffffff" d="M 335.566406 450.664062 C 334.691406 450.664062 334.03125 451.105469 333.59375 451.980469 C 333.375 452.421875 333.375 452.859375 333.375 453.738281 L 333.375 459.660156 L 330.519531 459.660156 L 330.519531 448.910156 L 333.152344 448.910156 L 333.152344 450.445312 C 333.59375 449.789062 333.8125 449.566406 334.25 449.347656 C 334.910156 448.910156 335.566406 448.691406 336.445312 448.691406 C 337.542969 448.691406 338.417969 448.910156 339.296875 449.566406 C 340.175781 450.226562 340.394531 451.105469 340.394531 452.421875 L 340.394531 459.660156 L 337.542969 459.660156 L 337.542969 453.078125 C 337.542969 452.421875 337.542969 451.980469 337.320312 451.761719 C 336.882812 450.882812 336.445312 450.664062 335.566406 450.664062 Z M 335.566406 450.664062 " fill-opacity="1" fill-rule="nonzero"/><path fill="#ffffff" d="M 349.828125 457.683594 C 349.828125 457.683594 349.828125 457.90625 349.605469 457.90625 C 349.386719 457.90625 349.386719 458.125 349.167969 458.34375 C 348.730469 458.78125 348.289062 459 347.851562 459.21875 C 347.414062 459.441406 346.972656 459.441406 346.316406 459.441406 C 344.78125 459.441406 343.683594 458.78125 343.027344 457.683594 C 342.804688 457.027344 342.585938 456.148438 342.585938 454.832031 L 342.585938 448.25 L 345.4375 448.25 L 345.4375 454.832031 C 345.4375 455.492188 345.4375 455.929688 345.660156 456.148438 C 345.878906 456.808594 346.316406 457.027344 347.195312 457.027344 C 348.070312 457.027344 348.730469 456.589844 349.167969 455.929688 C 349.386719 455.492188 349.386719 455.050781 349.386719 454.175781 L 349.386719 448.25 L 352.238281 448.25 L 352.238281 459 L 349.386719 459 L 349.386719 457.683594 Z M 349.828125 457.683594 " fill-opacity="1" fill-rule="nonzero"/><path fill="#ffffff" d="M 360.355469 457.246094 L 360.355469 459.441406 L 359.039062 459.441406 C 357.722656 459.441406 356.847656 459.21875 356.40625 458.78125 C 356.1875 458.5625 355.96875 457.90625 355.96875 457.246094 L 355.96875 450.664062 L 354.433594 450.664062 L 354.433594 448.691406 L 355.96875 448.691406 L 355.96875 445.621094 L 358.820312 445.621094 L 358.820312 448.691406 L 360.574219 448.691406 L 360.574219 450.664062 L 358.820312 450.664062 L 358.820312 456.367188 C 358.820312 456.808594 358.820312 457.027344 359.039062 457.246094 C 359.257812 457.464844 359.480469 457.464844 360.136719 457.464844 C 360.136719 457.464844 360.355469 457.464844 360.355469 457.464844 C 360.136719 457.246094 360.136719 457.246094 360.355469 457.246094 Z M 360.355469 457.246094 " fill-opacity="1" fill-rule="nonzero"/><path fill="#ffffff" d="M 285.550781 479.621094 L 282.699219 479.621094 L 282.699219 464.925781 L 287.085938 464.925781 L 289.71875 476.332031 L 292.351562 464.925781 L 296.738281 464.925781 L 296.738281 479.621094 L 293.886719 479.621094 L 293.886719 469.75 C 293.886719 469.53125 293.886719 469.09375 293.886719 468.652344 C 293.886719 468.214844 293.886719 467.777344 293.886719 467.558594 L 291.035156 479.84375 L 287.960938 479.84375 L 285.109375 467.558594 C 285.109375 467.777344 285.109375 468.214844 285.109375 468.652344 C 285.109375 469.09375 285.109375 469.53125 285.109375 469.75 L 285.109375 479.621094 Z M 285.550781 479.621094 " fill-opacity="1" fill-rule="nonzero"/><path fill="#ffffff" d="M 309.898438 478.527344 C 308.804688 479.621094 307.488281 480.0625 305.730469 480.0625 C 303.539062 480.0625 302.003906 479.402344 300.6875 478.085938 C 299.589844 476.769531 298.929688 474.796875 298.929688 472.601562 C 298.929688 469.96875 299.589844 467.996094 300.90625 466.679688 C 302.003906 465.582031 303.539062 464.925781 305.511719 464.925781 C 307.925781 464.925781 309.679688 465.800781 310.996094 467.335938 C 311.65625 468.214844 311.875 469.09375 312.09375 469.96875 L 309.023438 469.96875 C 308.804688 469.3125 308.582031 468.652344 308.363281 468.433594 C 307.707031 467.777344 307.046875 467.558594 305.953125 467.558594 C 304.855469 467.558594 303.976562 467.996094 303.320312 468.875 C 302.660156 469.75 302.441406 471.066406 302.441406 472.601562 C 302.441406 474.136719 302.878906 475.453125 303.539062 476.332031 C 304.195312 477.210938 305.074219 477.648438 306.171875 477.648438 C 307.265625 477.648438 308.144531 477.210938 308.582031 476.550781 C 308.804688 476.113281 309.242188 475.675781 309.460938 474.796875 L 312.53125 474.796875 C 311.65625 476.332031 310.996094 477.429688 309.898438 478.527344 Z M 309.898438 478.527344 " fill-opacity="1" fill-rule="nonzero"/><path fill="#ffffff" d="M 325.035156 464.925781 L 325.035156 467.558594 L 320.648438 467.558594 L 320.648438 479.621094 L 317.578125 479.621094 L 317.578125 467.558594 L 313.191406 467.558594 L 313.191406 464.925781 Z M 325.035156 464.925781 " fill-opacity="1" fill-rule="nonzero"/><path fill="#ffffff" d="M 338.859375 480.0625 C 336.664062 480.0625 335.128906 479.402344 334.03125 478.304688 C 332.496094 476.988281 331.835938 474.796875 331.835938 472.382812 C 331.835938 469.75 332.496094 467.777344 334.03125 466.460938 C 335.128906 465.363281 336.664062 464.703125 338.859375 464.703125 C 341.050781 464.703125 342.585938 465.363281 343.683594 466.460938 C 345.21875 467.777344 345.878906 469.75 345.878906 472.382812 C 345.878906 475.015625 345.21875 476.988281 343.683594 478.304688 C 342.585938 479.402344 340.832031 480.0625 338.859375 480.0625 Z M 341.710938 476.113281 C 342.367188 475.234375 342.804688 473.917969 342.804688 472.382812 C 342.804688 470.847656 342.367188 469.53125 341.710938 468.652344 C 341.050781 467.777344 339.953125 467.335938 338.859375 467.335938 C 337.761719 467.335938 336.664062 467.777344 336.003906 468.652344 C 335.347656 469.53125 334.910156 470.847656 334.910156 472.382812 C 334.910156 473.917969 335.347656 475.234375 336.003906 476.113281 C 336.664062 476.988281 337.761719 477.429688 338.859375 477.429688 C 339.953125 477.429688 341.050781 476.988281 341.710938 476.113281 Z M 341.710938 476.113281 " fill-opacity="1" fill-rule="nonzero"/><path fill="#ffffff" d="M 350.921875 468.875 L 350.921875 479.621094 L 348.070312 479.621094 L 348.070312 468.875 Z M 350.921875 464.925781 L 350.921875 467.558594 L 348.070312 467.558594 L 348.070312 464.925781 Z M 350.921875 464.925781 " fill-opacity="1" fill-rule="nonzero"/><path fill="#ffffff" d="M 353.554688 464.925781 L 356.40625 464.925781 L 356.40625 479.621094 L 353.554688 479.621094 Z M 353.554688 464.925781 " fill-opacity="1" fill-rule="nonzero"/><path fill="#ffffff" d="M 299.808594 370.15625 C 298.710938 370.15625 297.835938 370.375 296.957031 370.59375 C 295.640625 371.03125 294.542969 372.128906 293.667969 373.445312 L 285.550781 373.007812 L 288.839844 347.558594 L 314.289062 347.558594 L 314.289062 355.238281 L 295.421875 355.238281 L 293.667969 365.328125 C 294.984375 364.449219 296.078125 363.792969 296.957031 363.574219 C 298.273438 363.132812 299.808594 362.914062 301.78125 362.914062 C 305.511719 362.914062 309.023438 364.230469 311.875 366.863281 C 314.726562 369.496094 316.042969 373.226562 316.042969 378.050781 C 316.042969 382.21875 314.726562 386.167969 311.875 389.460938 C 309.023438 392.75 305.074219 394.503906 299.589844 394.503906 C 295.203125 394.503906 291.691406 393.40625 288.839844 390.996094 C 285.988281 388.582031 284.453125 385.292969 284.234375 380.902344 L 293.226562 380.902344 C 293.667969 382.878906 294.324219 384.414062 295.203125 385.511719 C 296.296875 386.609375 297.613281 387.046875 299.589844 387.046875 C 301.78125 387.046875 303.539062 386.167969 304.636719 384.632812 C 305.730469 383.097656 306.390625 381.125 306.390625 378.710938 C 306.390625 376.296875 305.730469 374.324219 304.636719 372.785156 C 303.539062 371.25 302.003906 370.15625 299.808594 370.15625 Z M 299.808594 370.15625 " fill-opacity="1" fill-rule="nonzero"/><path fill="#ffffff" d="M 332.714844 399.332031 C 333.59375 400.207031 335.347656 400.648438 337.761719 400.648438 C 341.050781 400.648438 343.246094 399.550781 344.34375 397.355469 C 345 396.039062 345.4375 393.628906 345.4375 390.335938 L 345.4375 388.144531 C 344.5625 389.679688 343.683594 390.777344 342.585938 391.433594 C 340.832031 392.75 338.417969 393.40625 335.566406 393.40625 C 331.179688 393.40625 327.449219 391.871094 324.816406 388.800781 C 322.183594 385.730469 320.867188 381.34375 320.867188 376.078125 C 320.867188 370.8125 322.183594 366.644531 324.816406 363.132812 C 327.449219 359.625 330.960938 357.871094 335.785156 357.871094 C 337.542969 357.871094 339.078125 358.089844 340.394531 358.746094 C 342.585938 359.625 344.34375 361.378906 345.660156 363.792969 L 345.660156 358.746094 L 354.433594 358.746094 L 354.433594 391.652344 C 354.433594 396.039062 353.773438 399.550781 352.238281 401.746094 C 349.605469 405.691406 344.78125 407.667969 337.320312 407.667969 C 332.933594 407.667969 329.207031 406.789062 326.351562 405.035156 C 323.5 403.28125 321.964844 400.648438 321.746094 397.136719 L 331.617188 397.136719 C 331.617188 398.015625 332.058594 398.671875 332.714844 399.332031 Z M 331.179688 381.34375 C 332.496094 384.195312 334.691406 385.730469 337.761719 385.730469 C 339.953125 385.730469 341.710938 384.851562 343.246094 383.316406 C 344.78125 381.78125 345.4375 379.148438 345.4375 375.640625 C 345.4375 372.347656 344.78125 369.933594 343.246094 368.179688 C 341.929688 366.425781 339.953125 365.546875 337.761719 365.546875 C 334.46875 365.546875 332.277344 367.082031 331.179688 369.933594 C 330.519531 371.46875 330.300781 373.445312 330.300781 375.859375 C 330.082031 377.832031 330.519531 379.808594 331.179688 381.34375 Z M 331.179688 381.34375 " fill-opacity="1" fill-rule="nonzero"/><path fill="#ffffff" d="M 219.519531 314.433594 L 219.519531 492.785156 L 96.007812 492.785156 L 96.007812 314.433594 L 219.519531 314.433594 M 225.222656 308.730469 L 90.523438 308.730469 L 90.523438 498.269531 L 225.222656 498.269531 Z M 225.222656 308.730469 " fill-opacity="1" fill-rule="nonzero"/><path fill="#ffffff" d="M 381.417969 314.433594 L 381.417969 492.785156 L 257.910156 492.785156 L 257.910156 314.433594 L 381.417969 314.433594 M 386.902344 308.730469 L 252.203125 308.730469 L 252.203125 498.269531 L 386.902344 498.269531 Z M 386.902344 308.730469 " fill-opacity="1" fill-rule="nonzero"/><path fill="#ffffff" d="M 219.519531 431.796875 L 219.519531 492.785156 L 96.007812 492.785156 L 96.007812 431.796875 L 219.519531 431.796875 M 225.222656 426.3125 L 90.523438 426.3125 L 90.523438 498.488281 L 225.222656 498.488281 Z M 225.222656 426.3125 " fill-opacity="1" fill-rule="nonzero"/><path fill="#ffffff" d="M 252.203125 426.09375 L 386.902344 426.09375 L 386.902344 432.238281 L 252.203125 432.238281 Z M 252.203125 426.09375 " fill-opacity="1" fill-rule="nonzero"/></svg>