<svg xmlns="http://www.w3.org/2000/svg" xmlns:xlink="http://www.w3.org/1999/xlink" width="1080" zoomAndPan="magnify" viewBox="0 0 810 809.999993" height="1080" preserveAspectRatio="xMidYMid meet" version="1.0"><defs><clipPath id="8fceaf0311"><path d="M 108 145 L 702 145 L 702 673.824219 L 108 673.824219 Z M 108 145 " clip-rule="nonzero"/></clipPath></defs><g clip-path="url(#8fceaf0311)"><path fill="#fefefe" d="M 357.765625 172.46875 L 115.457031 592.15625 C 94.5 628.460938 120.699219 673.839844 162.617188 673.839844 L 647.234375 673.839844 C 689.15625 673.839844 715.355469 628.460938 694.394531 592.15625 L 452.085938 172.46875 C 431.128906 136.164062 378.726562 136.164062 357.765625 172.46875 " fill-opacity="1" fill-rule="nonzero"/></g><path fill="#000000" d="M 404.929688 196.0625 C 402.832031 196.0625 402.121094 197.289062 401.78125 197.882812 L 159.472656 617.570312 C 159.132812 618.160156 158.425781 619.382812 159.472656 621.195312 C 160.523438 623.011719 161.9375 623.011719 162.617188 623.011719 L 647.234375 623.011719 C 647.914062 623.011719 649.332031 623.011719 650.382812 621.195312 C 651.425781 619.382812 650.71875 618.160156 650.382812 617.570312 L 408.070312 197.882812 C 407.734375 197.289062 407.023438 196.0625 404.929688 196.0625 Z M 647.234375 652.058594 L 162.617188 652.058594 C 150.804688 652.058594 140.226562 645.949219 134.320312 635.71875 C 128.417969 625.496094 128.417969 613.277344 134.320312 603.046875 L 376.632812 183.355469 C 382.539062 173.128906 393.113281 167.023438 404.929688 167.023438 C 416.738281 167.023438 427.320312 173.128906 433.222656 183.355469 L 675.53125 603.046875 C 681.4375 613.273438 681.4375 625.492188 675.53125 635.71875 C 669.621094 645.949219 659.046875 652.058594 647.234375 652.058594 " fill-opacity="1" fill-rule="nonzero"/><path fill="#000000" d="M 405.121094 585.050781 C 397.140625 585.050781 390.167969 582.46875 384.214844 577.300781 C 378.253906 572.128906 375.28125 564.898438 375.28125 555.605469 C 375.28125 547.488281 378.125 540.582031 383.820312 534.890625 C 389.511719 529.199219 396.484375 526.347656 404.730469 526.347656 C 412.976562 526.347656 420.011719 529.199219 425.835938 534.890625 C 431.660156 540.582031 434.570312 547.488281 434.570312 555.605469 C 434.570312 564.765625 431.628906 571.96875 425.738281 577.203125 C 419.847656 582.433594 412.976562 585.050781 405.121094 585.050781 Z M 383.332031 455.867188 L 377.050781 361.824219 C 375.871094 343.503906 375.28125 330.347656 375.28125 322.363281 C 375.28125 311.5 378.125 303.027344 383.820312 296.941406 C 389.511719 290.851562 397.003906 287.808594 406.300781 287.808594 C 417.558594 287.808594 425.082031 291.707031 428.878906 299.492188 C 432.671875 307.28125 434.570312 318.503906 434.570312 333.160156 C 434.570312 341.800781 434.113281 350.574219 433.199219 359.472656 L 424.753906 456.257812 C 423.839844 467.78125 421.875 476.613281 418.867188 482.769531 C 415.851562 488.921875 410.878906 491.992188 403.945312 491.992188 C 396.878906 491.992188 391.96875 489.019531 389.21875 483.0625 C 386.472656 477.105469 384.507812 468.042969 383.332031 455.867188 " fill-opacity="1" fill-rule="nonzero"/></svg>