<svg xmlns="http://www.w3.org/2000/svg" xmlns:xlink="http://www.w3.org/1999/xlink" width="1080" zoomAndPan="magnify" viewBox="0 0 810 809.999993" height="1080" preserveAspectRatio="xMidYMid meet" version="1.0"><defs><clipPath id="cacb922ad6"><path d="M 95.535156 95.535156 L 714.285156 95.535156 L 714.285156 714.285156 L 95.535156 714.285156 Z M 95.535156 95.535156 " clip-rule="nonzero"/></clipPath></defs><g clip-path="url(#cacb922ad6)"><path fill="#000000" d="M 404.910156 138.503906 C 551.808594 138.503906 671.316406 258.015625 671.316406 404.910156 C 671.316406 551.808594 551.808594 671.316406 404.910156 671.316406 C 258.015625 671.316406 138.503906 551.808594 138.503906 404.910156 C 138.503906 258.015625 258.015625 138.503906 404.910156 138.503906 M 404.910156 95.535156 C 234.046875 95.535156 95.535156 234.046875 95.535156 404.910156 C 95.535156 575.773438 234.046875 714.285156 404.910156 714.285156 C 575.773438 714.285156 714.285156 575.773438 714.285156 404.910156 C 714.285156 234.046875 575.773438 95.535156 404.910156 95.535156 Z M 404.910156 95.535156 " fill-opacity="1" fill-rule="nonzero"/></g><path fill="#000000" d="M 133.046875 438.535156 C 155.507812 432.546875 179.070312 431 202.054688 434.933594 C 213.988281 436.976562 225.855469 440.253906 237.066406 444.851562 C 242.136719 446.933594 246.890625 450.105469 252.039062 451.898438 C 257.894531 453.941406 263.167969 451.78125 269.023438 450.605469 C 313.835938 441.605469 360.886719 452.285156 398.625 477.554688 C 412.449219 486.8125 425.371094 464.488281 411.636719 455.292969 C 365.386719 424.324219 307.5625 414.5625 253.578125 427.6875 L 263.511719 428.988281 C 221.128906 406.933594 172.40625 401.351562 126.195312 413.675781 C 110.179688 417.949219 116.972656 442.824219 133.046875 438.535156 Z M 133.046875 438.535156 " fill-opacity="1" fill-rule="nonzero"/><path fill="#000000" d="M 422.933594 438.953125 C 425.085938 409.382812 434.09375 380.667969 449.339844 355.230469 C 462.234375 333.722656 487.867188 312.207031 476.921875 284.484375 C 467.519531 260.667969 441.792969 253.734375 419.757812 246.875 C 409.40625 243.652344 397.242188 239.445312 392.742188 228.570312 C 387.796875 216.613281 392.839844 202.371094 402.40625 194.355469 C 423.671875 176.539062 453.886719 184.121094 475.777344 196.371094 C 486.402344 202.316406 496.898438 209.589844 504.289062 219.4375 C 514.378906 232.890625 514.546875 248.828125 513.789062 264.933594 C 512.382812 294.890625 514.269531 323.890625 518.351562 353.589844 C 522.585938 384.4375 527.996094 415.359375 527.308594 446.613281 C 526.9375 463.484375 524.472656 479.953125 519.324219 496.050781 C 514.113281 512.339844 506.761719 527.835938 501.300781 544.03125 C 496.972656 556.878906 496.636719 574.425781 488.742188 585.722656 C 478.574219 600.269531 457.042969 590.3125 444.410156 585.226562 C 429.023438 579.03125 422.332031 603.957031 437.554688 610.085938 C 452.753906 616.203125 468.539062 621.289062 485 617.460938 C 500.023438 613.96875 510.292969 602.855469 515.671875 588.828125 C 521.304688 574.148438 523.316406 558.296875 528.808594 543.46875 C 534.960938 526.847656 542.445312 510.6875 546.921875 493.488281 C 565.039062 423.867188 537.148438 354.128906 538.65625 284.136719 C 539.035156 266.464844 541.59375 248.683594 537.644531 231.203125 C 534.28125 216.328125 525.710938 203.089844 514.664062 192.738281 C 492.398438 171.875 459.144531 155.742188 428.070312 158.234375 C 399.617188 160.519531 371.558594 178.316406 366.222656 207.976562 C 360.34375 240.671875 382.183594 261.976562 411.335938 271.242188 C 424.539062 275.4375 442.273438 278.011719 450.941406 290.21875 C 460.921875 304.269531 440.339844 322.101562 432.996094 332.9375 C 411.691406 364.378906 399.898438 401.210938 397.152344 438.953125 C 395.945312 455.503906 421.734375 455.429688 422.933594 438.953125 Z M 422.933594 438.953125 " fill-opacity="1" fill-rule="nonzero"/><path fill="#000000" d="M 197.441406 630.261719 C 234.890625 641.175781 274.140625 637.441406 309.21875 620.644531 L 299.285156 621.941406 C 340.070312 630.277344 381.832031 628.519531 421.605469 616.078125 C 437.386719 611.140625 430.648438 586.246094 414.75 591.21875 C 397.175781 596.714844 379.246094 600.296875 360.828125 601.230469 C 351.746094 601.691406 342.636719 601.605469 333.5625 600.96875 C 323.773438 600.28125 314.128906 597.464844 304.425781 596.851562 C 296.460938 596.347656 288.449219 602.101562 280.921875 604.539062 C 272.878906 607.144531 264.574219 609.105469 256.167969 610.074219 C 238.597656 612.097656 221.234375 610.339844 204.292969 605.402344 C 188.335938 600.75 181.519531 625.621094 197.441406 630.261719 Z M 197.441406 630.261719 " fill-opacity="1" fill-rule="nonzero"/><path fill="#000000" d="M 250.515625 538.414062 C 295.046875 556.734375 343.644531 564.671875 391.699219 561.679688 C 408.179688 560.65625 408.296875 534.867188 391.699219 535.898438 C 345.628906 538.765625 300.054688 531.113281 257.371094 513.554688 C 250.929688 510.902344 243.199219 516.425781 241.511719 522.558594 C 239.480469 529.957031 244.050781 535.753906 250.515625 538.414062 Z M 250.515625 538.414062 " fill-opacity="1" fill-rule="nonzero"/><path fill="#000000" d="M 479.898438 493.371094 C 501.664062 458.914062 511.4375 417.003906 506.59375 376.5 C 505.765625 369.585938 501.257812 363.609375 493.703125 363.609375 C 487.375 363.609375 479.980469 369.539062 480.8125 376.5 C 485.167969 412.929688 477.253906 449.304688 457.636719 480.359375 C 448.75 494.425781 471.050781 507.378906 479.898438 493.371094 Z M 479.898438 493.371094 " fill-opacity="1" fill-rule="nonzero"/></svg>