<svg xmlns="http://www.w3.org/2000/svg" xmlns:xlink="http://www.w3.org/1999/xlink" width="1080" zoomAndPan="magnify" viewBox="0 0 810 809.999993" height="1080" preserveAspectRatio="xMidYMid meet" version="1.0"><defs><clipPath id="dc82eb2c6c"><path d="M 110.074219 95.535156 L 728.824219 95.535156 L 728.824219 714.285156 L 110.074219 714.285156 Z M 110.074219 95.535156 " clip-rule="nonzero"/></clipPath></defs><g clip-path="url(#dc82eb2c6c)"><path fill="#000000" d="M 419.449219 138.503906 C 566.34375 138.503906 685.855469 258.015625 685.855469 404.910156 C 685.855469 551.808594 566.34375 671.316406 419.449219 671.316406 C 272.550781 671.316406 153.042969 551.808594 153.042969 404.910156 C 153.042969 258.015625 272.550781 138.503906 419.449219 138.503906 M 419.449219 95.535156 C 248.585938 95.535156 110.074219 234.046875 110.074219 404.910156 C 110.074219 575.773438 248.585938 714.285156 419.449219 714.285156 C 590.3125 714.285156 728.824219 575.773438 728.824219 404.910156 C 728.824219 234.046875 590.3125 95.535156 419.449219 95.535156 Z M 419.449219 95.535156 " fill-opacity="1" fill-rule="nonzero"/></g><path fill="#000000" d="M 490.496094 208.347656 C 433.324219 265.652344 376.152344 322.960938 318.980469 380.269531 C 312.460938 386.804688 314.988281 399.789062 324.667969 401.8125 C 356.503906 408.464844 388.335938 415.121094 420.167969 421.773438 L 412.464844 402.835938 C 375.472656 463.84375 338.480469 524.847656 301.488281 585.855469 C 294.988281 596.578125 308.21875 610.699219 319.125 603.492188 C 399.765625 550.214844 450.90625 463.191406 532.78125 411.757812 C 541.40625 406.339844 540.742188 395.042969 532.78125 389.496094 C 508.546875 372.617188 482.179688 359.539062 454.230469 350.03125 L 463.234375 365.886719 C 475.714844 334.625 488.195312 303.363281 500.675781 272.101562 C 506.828125 256.695312 481.902344 250 475.816406 265.25 C 463.335938 296.511719 450.855469 327.773438 438.375 359.035156 C 435.683594 365.769531 441.382812 372.851562 447.375 374.890625 C 473.25 383.695312 497.355469 396.144531 519.769531 411.757812 L 519.769531 389.496094 C 437.679688 441.0625 386.667969 528.011719 306.113281 581.230469 L 323.75 598.867188 C 360.742188 537.859375 397.734375 476.855469 434.726562 415.847656 C 438.832031 409.074219 435.160156 398.613281 427.019531 396.910156 C 395.1875 390.257812 363.355469 383.605469 331.523438 376.953125 L 337.210938 398.5 C 394.382812 341.191406 451.554688 283.882812 508.726562 226.578125 C 520.460938 214.816406 502.234375 196.582031 490.496094 208.347656 Z M 490.496094 208.347656 " fill-opacity="1" fill-rule="nonzero"/></svg>