<svg xmlns="http://www.w3.org/2000/svg" xmlns:xlink="http://www.w3.org/1999/xlink" width="1080" zoomAndPan="magnify" viewBox="0 0 810 809.999993" height="1080" preserveAspectRatio="xMidYMid meet" version="1.0"><defs><clipPath id="ee5b3650d0"><path d="M 95.535156 95.535156 L 714.285156 95.535156 L 714.285156 714.285156 L 95.535156 714.285156 Z M 95.535156 95.535156 " clip-rule="nonzero"/></clipPath></defs><g clip-path="url(#ee5b3650d0)"><path fill="#000000" d="M 404.910156 138.503906 C 551.808594 138.503906 671.316406 258.015625 671.316406 404.910156 C 671.316406 551.808594 551.808594 671.316406 404.910156 671.316406 C 258.015625 671.316406 138.503906 551.808594 138.503906 404.910156 C 138.503906 258.015625 258.015625 138.503906 404.910156 138.503906 M 404.910156 95.535156 C 234.046875 95.535156 95.535156 234.046875 95.535156 404.910156 C 95.535156 575.773438 234.046875 714.285156 404.910156 714.285156 C 575.773438 714.285156 714.285156 575.773438 714.285156 404.910156 C 714.285156 234.046875 575.773438 95.535156 404.910156 95.535156 Z M 404.910156 95.535156 " fill-opacity="1" fill-rule="nonzero"/><path stroke-linecap="butt" transform="matrix(8.593749, 0, 0, 8.593749, 95.536616, 95.536657)" fill="none" stroke-linejoin="miter" d="M 59.204837 12.794827 L 12.794832 59.204833 " stroke="#000000" stroke-width="5" stroke-opacity="1" stroke-miterlimit="10"/></g><path fill="#000000" d="M 373.695312 202.855469 C 359.917969 204.800781 344.871094 203.992188 332.234375 210.640625 C 317.1875 218.5625 308.8125 233.824219 303.777344 249.40625 C 297.546875 268.710938 287.046875 283.457031 275.855469 300.144531 C 264.558594 316.992188 257.652344 334.785156 256.40625 355.15625 C 255.027344 377.597656 259.617188 400.316406 262.710938 422.457031 C 266.054688 446.394531 269.402344 470.335938 272.75 494.277344 C 275.867188 516.589844 278.113281 539.238281 282.226562 561.382812 C 285.550781 579.273438 295.214844 594.878906 314.328125 598.113281 C 336.074219 601.789062 360.542969 598.378906 382.480469 597.421875 C 406.109375 596.394531 429.710938 594.886719 453.277344 592.914062 C 474.839844 591.109375 496.675781 589.558594 518.042969 586.089844 C 534.355469 583.445312 551.714844 576.828125 559.949219 561.464844 C 569.621094 543.425781 563.851562 518.394531 562.632812 499.027344 C 561.175781 475.8125 559.714844 452.59375 558.253906 429.378906 C 556.804688 406.28125 556.0625 383.011719 553.707031 359.984375 C 551.734375 340.695312 547.1875 322.605469 535.078125 307.097656 C 514.082031 280.199219 476.3125 267.261719 467.816406 231.824219 C 463.339844 213.152344 454.5 198.507812 433.957031 196.59375 C 414.324219 194.765625 393.035156 199.65625 373.695312 202.855469 C 357.363281 205.554688 364.292969 230.40625 380.546875 227.714844 C 395.421875 225.253906 410.535156 222.65625 425.632812 222.152344 C 430.347656 221.992188 435.253906 221.53125 438.539062 225.261719 C 443.230469 230.59375 443.167969 241.300781 445.332031 247.808594 C 454.09375 274.136719 477.410156 289.042969 497.640625 305.976562 C 507.933594 314.589844 517.933594 324.050781 522.878906 336.820312 C 529.480469 353.878906 528.957031 373.402344 530.085938 391.386719 C 532.652344 432.191406 535.214844 472.996094 537.78125 513.800781 C 538.730469 528.894531 544.59375 549.972656 527.199219 557.222656 C 511.699219 563.679688 492.582031 563.472656 476.136719 565.066406 C 435.984375 568.957031 395.699219 571.472656 355.375 572.613281 C 345.761719 572.886719 336.125 573.21875 326.503906 573.183594 C 317.847656 573.152344 312.175781 571.992188 309.164062 563.257812 C 303.308594 546.265625 303.035156 526.261719 300.5625 508.546875 C 294.875 467.863281 288.382812 427.203125 283.582031 386.402344 C 281.191406 366.042969 280.25 344.910156 290.128906 326.269531 C 298.957031 309.609375 312.140625 295.648438 320.355469 278.632812 C 327.167969 264.527344 328.347656 244.902344 341.742188 234.980469 C 351.566406 227.703125 369.105469 229.332031 380.546875 227.714844 C 396.910156 225.40625 389.949219 200.5625 373.695312 202.855469 Z M 373.695312 202.855469 " fill-opacity="1" fill-rule="nonzero"/><path fill="#000000" d="M 319.714844 279.136719 C 363.851562 269.871094 408.328125 262.222656 453.054688 256.445312 C 459.957031 255.554688 465.945312 251.160156 465.945312 243.554688 C 465.945312 237.285156 460.007812 229.769531 453.054688 230.664062 C 406.03125 236.738281 359.269531 244.535156 312.863281 254.277344 C 296.636719 257.683594 303.503906 282.542969 319.714844 279.136719 Z M 319.714844 279.136719 " fill-opacity="1" fill-rule="nonzero"/><path fill="#000000" d="M 452.359375 244.414062 C 435.960938 265.296875 418.9375 287.09375 412.136719 313.277344 C 404.882812 341.191406 412.878906 370.859375 417.117188 398.675781 C 426.261719 458.6875 435.40625 518.703125 444.550781 578.714844 C 447.042969 595.066406 471.890625 588.121094 469.414062 571.863281 C 461.085938 517.222656 452.761719 462.582031 444.433594 407.941406 C 442.367188 394.382812 440.304688 380.824219 438.238281 367.265625 C 436.320312 354.6875 433.640625 341.625 435.226562 328.851562 C 438.363281 303.628906 455.398438 281.992188 470.589844 262.644531 C 480.726562 249.738281 462.605469 231.371094 452.359375 244.414062 Z M 452.359375 244.414062 " fill-opacity="1" fill-rule="nonzero"/><path fill="#000000" d="M 272.488281 363.640625 C 355.789062 362.042969 438.574219 348.117188 517.742188 322.144531 C 533.4375 316.996094 526.71875 292.089844 510.890625 297.285156 C 433.789062 322.578125 353.625 336.304688 272.488281 337.859375 C 255.917969 338.175781 255.863281 363.957031 272.488281 363.640625 Z M 272.488281 363.640625 " fill-opacity="1" fill-rule="nonzero"/><path fill="#000000" d="M 282.003906 432.320312 C 300.332031 434.324219 319.257812 432.601562 337.550781 431.074219 C 363.277344 428.929688 388.917969 425.710938 414.46875 422.035156 C 439.585938 418.417969 464.644531 414.269531 489.507812 409.1875 C 506.929688 405.628906 524.980469 402.152344 541.542969 395.496094 C 556.746094 389.386719 550.109375 364.4375 534.691406 370.636719 C 518.804688 377.019531 501.574219 380.414062 484.871094 383.871094 C 460.15625 388.992188 435.234375 393.152344 410.257812 396.792969 C 385.355469 400.417969 360.34375 403.460938 335.257812 405.480469 C 317.695312 406.898438 299.59375 408.460938 282.003906 406.539062 C 265.535156 404.734375 265.664062 430.53125 282.003906 432.320312 Z M 282.003906 432.320312 " fill-opacity="1" fill-rule="nonzero"/><path fill="#000000" d="M 290.597656 493.9375 C 379.285156 504.007812 467.582031 490.710938 550.136719 457.113281 C 565.304688 450.945312 558.671875 425.992188 543.285156 432.253906 C 462.519531 465.121094 377.363281 478.007812 290.597656 468.15625 C 274.140625 466.289062 274.273438 492.085938 290.597656 493.9375 Z M 290.597656 493.9375 " fill-opacity="1" fill-rule="nonzero"/></svg>