<svg xmlns="http://www.w3.org/2000/svg" xmlns:xlink="http://www.w3.org/1999/xlink" width="1080" zoomAndPan="magnify" viewBox="0 0 810 809.999993" height="1080" preserveAspectRatio="xMidYMid meet" version="1.0"><defs><clipPath id="3a19b8d139"><path d="M 14 251.898438 L 795 251.898438 L 795 557.898438 L 14 557.898438 Z M 14 251.898438 " clip-rule="nonzero"/></clipPath></defs><g clip-path="url(#3a19b8d139)"><path fill="#000000" d="M 420.417969 441.808594 C 420.417969 438.3125 420.351562 434.820312 420.4375 431.328125 C 420.585938 425.414062 418.875 420.035156 415.316406 415.433594 C 411.453125 410.433594 407.191406 405.746094 403.066406 400.953125 C 400.351562 397.796875 396.976562 396.085938 392.703125 396.351562 C 391.398438 396.433594 390.050781 396.445312 388.78125 396.195312 C 384.523438 395.367188 380.519531 396.304688 376.621094 397.835938 C 373.78125 398.949219 370.933594 400.109375 368.246094 401.539062 C 363.230469 404.207031 359.722656 408.21875 358.011719 413.742188 C 356.125 419.835938 355.070312 426.03125 355.113281 432.421875 C 355.167969 440.0625 355.238281 447.710938 355.078125 455.347656 C 354.960938 460.925781 356.167969 466.210938 358.195312 471.292969 C 362.011719 480.871094 369.546875 486.523438 378.914062 489.984375 C 380.5 490.574219 382.351562 490.589844 384.082031 490.628906 C 388.230469 490.71875 392.386719 490.542969 396.53125 490.703125 C 400.742188 490.863281 404.28125 489.3125 407.25 486.601562 C 409.15625 484.863281 410.898438 482.792969 412.179688 480.5625 C 414.453125 476.597656 416.644531 472.515625 418.257812 468.253906 C 419.550781 464.835938 420.421875 461.101562 420.613281 457.460938 C 420.890625 452.265625 420.378906 447.03125 420.203125 441.8125 C 420.273438 441.8125 420.34375 441.808594 420.417969 441.808594 Z M 398.183594 457.953125 C 397.386719 460.265625 396.476562 462.382812 394.394531 464.195312 C 391.734375 464.195312 388.941406 464.191406 385.753906 464.191406 C 384.664062 463.261719 383.304688 462.199219 382.058594 461.015625 C 380.234375 459.289062 379.457031 457.164062 379.40625 454.597656 C 379.246094 446.519531 379.742188 438.511719 381.179688 430.554688 C 382.089844 425.496094 384.367188 421.585938 389.847656 419.683594 C 391.214844 420.078125 392.902344 420.464844 394.511719 421.050781 C 398.4375 422.480469 400.480469 425.574219 400.605469 429.523438 C 400.914062 439.074219 401.386719 448.664062 398.183594 457.953125 Z M 284.71875 373.953125 C 283.644531 372.078125 282.898438 369.980469 282.226562 367.914062 C 281.347656 365.203125 280.785156 362.421875 282.09375 359.707031 C 286.964844 357.578125 291.386719 357.652344 304.875 360.113281 C 305.457031 361.253906 306.199219 362.558594 306.804688 363.921875 C 307.515625 365.53125 308.164062 367.140625 309.8125 368.066406 C 311.3125 368.910156 311.949219 368.957031 316.078125 368.328125 C 316.832031 366.539062 317.15625 364.683594 317.046875 362.765625 C 316.675781 362.371094 316.308594 361.777344 315.78125 361.453125 C 311.285156 358.683594 306.273438 357.140625 301.324219 355.441406 C 299.066406 354.667969 296.796875 353.835938 294.683594 352.742188 C 289.9375 350.277344 286.949219 346.226562 285.972656 341.070312 C 285.164062 336.8125 284.972656 332.421875 284.773438 328.074219 C 284.695312 326.382812 285.054688 324.535156 285.714844 322.96875 C 288.371094 316.628906 297.9375 305.667969 308.617188 305.730469 C 311.675781 305.75 314.738281 305.574219 317.789062 305.738281 C 326.84375 306.21875 336.492188 311.742188 338.460938 323.347656 C 339 326.542969 338.972656 329.832031 339.152344 332.359375 C 338.09375 334.648438 336.78125 335.425781 335.175781 335.472656 C 330.8125 335.597656 326.441406 335.726562 322.082031 335.601562 C 318.855469 335.507812 317.425781 334.050781 316.851562 330.832031 C 316.625 329.554688 316.59375 328.242188 316.488281 327.128906 C 315.070312 324.851562 313.367188 323.886719 310.742188 324.757812 C 308.761719 327.378906 308.875 330.382812 309.035156 333.785156 C 310.207031 334.527344 311.363281 335.566406 312.71875 336.046875 C 315.796875 337.140625 318.988281 337.914062 322.109375 338.902344 C 326.320312 340.230469 330.140625 342.277344 333.367188 345.351562 C 340.859375 352.484375 341.980469 361.363281 339.535156 370.710938 C 337.921875 376.890625 334.640625 382.433594 328.660156 385.675781 C 326.761719 386.707031 324.785156 387.820312 322.710938 388.25 C 318.664062 389.082031 314.539062 389.832031 310.425781 389.960938 C 298.394531 390.335938 290.40625 383.863281 284.71875 373.953125 Z M 354.832031 381.296875 C 354.792969 369.945312 354.832031 358.59375 354.8125 347.242188 C 354.808594 344.84375 354.789062 342.433594 354.566406 340.046875 C 354.28125 337.042969 353.777344 334.058594 353.316406 330.691406 C 351.234375 330.585938 349.332031 330.484375 347.429688 330.386719 C 343.410156 330.175781 342.179688 329.15625 342.078125 325.402344 C 341.953125 320.824219 341.964844 316.234375 342.101562 311.652344 C 342.199219 308.546875 343.773438 306.789062 346.703125 306.144531 C 347.761719 305.910156 348.871094 305.84375 349.957031 305.84375 C 361.3125 305.828125 372.664062 305.839844 384.019531 305.855469 C 386.242188 305.859375 388.433594 305.996094 389.855469 308.484375 C 389.851562 314.515625 389.851562 320.160156 389.847656 325.574219 C 388.019531 328.566406 385.449219 329.316406 382.421875 329.210938 C 380.261719 329.132812 378.09375 329.195312 375.617188 329.191406 C 375.179688 330.835938 374.527344 332.238281 374.480469 333.664062 C 374.375 336.929688 374.488281 340.207031 374.65625 343.472656 C 374.945312 349.136719 375.367188 354.792969 375.691406 360.453125 C 376.074219 367.195312 376.472656 373.941406 376.742188 380.6875 C 376.839844 383.039062 377.132812 385.546875 375.148438 387.414062 C 368.777344 390.257812 362.429688 389.390625 356.238281 387.714844 C 354.359375 385.707031 354.835938 383.425781 354.832031 381.296875 Z M 429.582031 387.722656 C 436.234375 387.066406 443.042969 388.273438 449.285156 386.550781 C 451.105469 383.875 450.339844 381.984375 448.953125 380.105469 C 447.144531 377.652344 445.277344 375.230469 443.652344 372.660156 C 440.976562 368.433594 438.453125 364.109375 435.914062 359.792969 C 435.1875 358.558594 433.878906 357.542969 434.140625 355.894531 C 434.546875 355.574219 434.847656 355.25 435.21875 355.046875 C 445.433594 349.53125 448.449219 337.875 445.488281 326.65625 C 444.222656 321.855469 441.054688 318.269531 438.222656 314.386719 C 434.5 309.292969 429.644531 306.570312 423.535156 305.566406 C 414.378906 304.058594 405.332031 303.9375 395.609375 307.160156 C 395.246094 308.695312 394.644531 310.128906 394.609375 311.578125 C 394.527344 314.839844 394.65625 318.113281 394.820312 321.375 C 395.003906 325.074219 395.515625 328.765625 395.550781 332.464844 C 395.703125 347.945312 395.734375 363.425781 395.808594 378.910156 C 395.816406 380.652344 395.660156 382.417969 395.882812 384.136719 C 396.066406 385.5625 396.691406 386.929688 397.164062 388.472656 C 403.101562 389.578125 408.769531 389.054688 414.398438 388.964844 C 415.589844 388.945312 416.773438 388.132812 417.910156 387.707031 C 419.851562 382.523438 418.179688 377.4375 418.1875 371.621094 C 421.703125 376.546875 421.371094 382.003906 423.835938 386.070312 C 425.636719 387.730469 427.625 387.914062 429.582031 387.722656 Z M 424.480469 335.992188 C 423.066406 337.929688 421.710938 338.792969 419.433594 338.210938 C 417.351562 336.46875 416.417969 333.734375 416.015625 331.03125 C 415.582031 328.152344 415.921875 325.15625 415.921875 321.09375 C 419.609375 323.359375 422.332031 325.308594 424.484375 328.25 C 424.484375 330.914062 424.484375 333.664062 424.480469 335.992188 Z M 307.285156 450.125 C 306.714844 454.816406 308.761719 458.617188 311.058594 462.367188 C 312.53125 464.769531 314.589844 466.183594 317.894531 465.808594 C 320.796875 464.363281 322.585938 461.703125 323.332031 458.390625 C 323.855469 456.0625 323.964844 453.644531 324.316406 451.277344 C 324.535156 449.808594 324.863281 448.355469 325.207031 446.546875 C 327.0625 446.269531 328.746094 445.75 330.40625 445.824219 C 335.363281 446.054688 340.382812 444.976562 344.816406 446.023438 C 346.613281 447.863281 346.617188 449.609375 346.730469 451.367188 C 346.925781 454.40625 347.148438 457.453125 347.523438 460.472656 C 348.132812 465.339844 347.160156 470.066406 346.070312 474.710938 C 345.257812 478.183594 342.628906 480.78125 340.132812 483.210938 C 331.535156 491.578125 321.417969 493.992188 310.03125 490.179688 C 306.550781 489.011719 303.09375 487.472656 299.996094 485.515625 C 293.675781 481.523438 289.894531 475.335938 287.015625 468.652344 C 285.019531 464.019531 283.988281 459.066406 283.917969 453.996094 C 283.824219 447.011719 283.800781 440.023438 283.917969 433.039062 C 284.003906 427.71875 285.53125 422.722656 288.015625 418.023438 C 289.773438 414.699219 292.207031 411.992188 295.132812 409.589844 C 300.238281 405.398438 305.726562 401.871094 311.835938 399.421875 C 320.476562 395.960938 328.34375 397.019531 335.503906 403.425781 C 339.726562 407.203125 342.574219 411.632812 344.34375 416.914062 C 345.03125 418.96875 346.304688 420.894531 346.648438 422.988281 C 347.386719 427.460938 347.695312 432.007812 348.207031 436.753906 C 346.808594 437.367188 345.679688 438.273438 344.523438 438.300781 C 338.878906 438.449219 333.230469 438.363281 327.121094 438.359375 C 324.339844 432.929688 323.003906 427.199219 318.183594 423.222656 C 317.253906 423.472656 315.941406 423.433594 315.308594 424.070312 C 313.796875 425.59375 312.359375 427.300781 311.332031 429.175781 C 309.109375 433.230469 307.765625 437.605469 307.589844 442.277344 C 307.488281 444.894531 307.601562 447.535156 307.285156 450.128906 Z M 266.703125 423.359375 C 266.464844 430.289062 269.0625 437.441406 267.65625 445.054688 C 264.308594 446.117188 261.816406 445.8125 259.234375 445.019531 C 250.097656 442.199219 240.9375 439.441406 231.746094 436.804688 C 228.625 435.90625 225.390625 435.410156 222.199219 434.773438 C 220.3125 434.398438 218.40625 434.109375 216.042969 433.699219 C 217.867188 428.644531 220.441406 424.46875 222.902344 419.839844 C 224.382812 419.839844 225.875 419.839844 227.371094 419.839844 C 237.167969 419.859375 246.960938 419.878906 256.757812 419.890625 C 260.300781 419.898438 263.734375 420.222656 266.703125 423.359375 Z M 229.179688 407.242188 C 230.347656 402.269531 232.214844 397.5625 234.609375 393.230469 C 242.613281 389.21875 250.761719 386.359375 259.363281 384.84375 C 261.746094 384.421875 264.136719 384.03125 265.933594 386.28125 C 267.351562 392.191406 267.417969 399.566406 266 405.253906 C 264.769531 405.550781 263.359375 406.097656 261.917969 406.199219 C 259.539062 406.371094 257.144531 406.242188 254.753906 406.261719 C 248.457031 406.3125 242.167969 406.359375 235.941406 407.578125 C 233.855469 407.988281 231.667969 408.464844 229.179688 407.242188 Z M 236.125 378.3125 C 234.605469 370.160156 237.320312 362.351562 237.453125 354.699219 C 247.609375 346.945312 256.851562 338.777344 263.523438 328.089844 C 265.089844 327.101562 266.402344 327.429688 267.957031 329.453125 C 268.363281 340.546875 268.792969 352.257812 269.203125 363.472656 C 267.65625 366.488281 265.503906 367.839844 262.890625 368.582031 C 257.199219 370.199219 251.882812 372.648438 246.796875 375.664062 C 245.121094 376.652344 243.214844 377.242188 241.433594 378.058594 C 239.769531 378.816406 238.105469 378.792969 236.125 378.3125 Z M 228.453125 396.957031 C 229.820312 393.734375 230.261719 390.242188 230.300781 386.707031 C 230.328125 384.316406 230.324219 381.871094 230.789062 379.542969 C 232.203125 372.445312 232.964844 365.3125 232.628906 359.613281 C 232.628906 354.804688 232.683594 351.527344 232.621094 348.253906 C 232.476562 340.253906 229.144531 333.933594 222.390625 329.570312 C 219.460938 327.675781 216.335938 326.089844 213.386719 324.226562 C 206.695312 320 199.433594 318.371094 191.546875 318.699219 C 184.753906 318.980469 179.195312 321.53125 175.183594 326.917969 C 169.714844 334.265625 164.265625 341.664062 160.128906 349.886719 C 156.804688 356.503906 153.886719 363.332031 150.410156 369.863281 C 147.011719 376.242188 143.777344 382.625 142.292969 389.765625 C 142.074219 390.816406 141.574219 391.832031 141.074219 392.796875 C 137.886719 398.925781 137.152344 405.707031 135.988281 412.335938 C 134.667969 419.847656 133.574219 427.414062 132.824219 435.003906 C 132.273438 440.625 131.996094 446.34375 132.375 451.96875 C 132.929688 460.230469 138.207031 466.042969 146.246094 468.246094 C 156.652344 471.09375 166.894531 471.269531 176.914062 466.550781 C 182.519531 463.910156 187.558594 460.667969 191.460938 455.726562 C 194.839844 451.445312 198.316406 447.21875 202.0625 443.261719 C 206.898438 438.148438 210.539062 432.203125 214.515625 426.480469 C 220.8125 417.414062 224.199219 406.980469 228.453125 396.957031 Z M 203.519531 396.527344 C 205.265625 395.917969 206.695312 394.171875 208.738281 394.894531 C 209.785156 396.046875 209.339844 397.132812 208.882812 398.0625 C 206.199219 403.527344 203.421875 408.945312 200.726562 414.40625 C 198.210938 419.503906 195.125 424.242188 191.554688 428.644531 C 185.992188 435.503906 178.917969 440.542969 171.277344 444.824219 C 170.417969 445.304688 169.34375 445.402344 167.222656 446.003906 C 169.625 442.785156 172.300781 441.75 174.214844 439.867188 C 176.074219 438.039062 177.964844 436.238281 179.800781 434.386719 C 181.792969 432.375 183.878906 430.433594 185.660156 428.25 C 187.441406 426.066406 188.957031 423.660156 190.476562 421.28125 C 191.878906 419.078125 193.234375 416.835938 194.414062 414.507812 C 195.683594 412.007812 196.722656 409.394531 198.011719 406.484375 C 193.332031 405.675781 189.417969 409.429688 185.128906 407.40625 C 184.128906 405.957031 185.109375 404.804688 186.082031 404.148438 C 189.453125 401.867188 191.550781 398.578125 193.617188 395.253906 C 196.496094 390.636719 199.351562 386.003906 202.105469 381.3125 C 205.085938 376.234375 207.816406 371.035156 208.96875 365.167969 C 209.082031 364.574219 209.460938 364.03125 210.40625 361.949219 C 211.769531 370.976562 210.691406 378.089844 207.070312 384.832031 C 205.023438 388.644531 203.050781 392.496094 201.09375 396.234375 C 201.957031 397.449219 202.742188 396.800781 203.519531 396.527344 Z M 212.246094 439.613281 C 231.710938 446.824219 250.386719 455.527344 269.332031 464.746094 C 269.242188 474.15625 269.183594 482.863281 269.03125 491.566406 C 269.015625 492.605469 268.492188 493.636719 268.273438 494.417969 C 266.441406 496.035156 264.800781 495.730469 263.265625 494.609375 C 258.683594 491.261719 254.117188 487.890625 249.589844 484.46875 C 246.980469 482.492188 244.359375 480.511719 241.921875 478.332031 C 233.898438 471.148438 224.757812 465.613281 215.574219 460.117188 C 211.289062 457.554688 207.046875 454.914062 202.753906 451.847656 C 205.25 447.085938 208.984375 443.75 212.246094 439.613281 Z M 519.417969 326.070312 C 519.171875 321.0625 519.1875 316.042969 519.230469 311.027344 C 519.238281 310.007812 519.878906 308.992188 520.296875 307.769531 C 527.203125 305.902344 534.121094 307.03125 541.019531 307.085938 C 548.28125 313.773438 551.976562 322.953125 559.054688 330.507812 C 558.742188 325.785156 558.222656 321.789062 558.296875 317.804688 C 558.367188 313.996094 557.183594 309.953125 559.703125 306.203125 C 564.859375 305.433594 570.074219 305.902344 575.265625 305.949219 C 577.753906 305.972656 579.664062 307.90625 580.238281 310.421875 C 580.480469 311.476562 580.578125 312.582031 580.601562 313.664062 C 580.863281 326.972656 581.214844 340.277344 581.289062 353.585938 C 581.324219 360.5625 580.917969 367.542969 580.585938 374.515625 C 580.386719 378.648438 578.660156 382.410156 577.914062 386.53125 C 571.269531 387.308594 565.238281 387.617188 559.777344 386.925781 C 557.5 385.648438 557.035156 383.945312 556.394531 382.320312 C 553.429688 374.828125 549.96875 367.585938 545.425781 360.480469 C 543.929688 364.035156 543.605469 367.414062 543.601562 370.859375 C 543.601562 374.789062 543.59375 378.71875 543.570312 382.648438 C 543.558594 384.410156 543.5 386.167969 541.953125 387.421875 C 538.574219 388.199219 529.082031 388.671875 525.101562 388.117188 C 524.089844 387.976562 523.148438 387.34375 521.890625 386.820312 C 521.714844 385.042969 521.425781 383.347656 521.394531 381.644531 C 521.167969 369.863281 521.121094 358.078125 520.757812 346.300781 C 520.546875 339.550781 519.75 332.820312 519.417969 326.070312 Z M 130.46875 451.566406 C 130.621094 453.925781 131.394531 456.234375 131.703125 458.589844 C 131.855469 459.773438 131.601562 461.011719 131.511719 462.617188 C 130.042969 462.363281 128.890625 462.441406 128.046875 461.972656 C 123.984375 459.726562 120.609375 456.570312 117.585938 453.125 C 109.511719 443.929688 101.800781 434.449219 96.023438 423.5625 C 89.382812 411.054688 85.332031 397.824219 84.640625 383.625 C 84.460938 379.921875 84.105469 376.226562 84.011719 372.523438 C 83.753906 362.253906 86.332031 352.636719 91.042969 343.582031 C 93.617188 338.632812 97.792969 335.082031 102.132812 331.746094 C 103.511719 330.683594 105.101562 329.894531 106.472656 328.824219 C 109.683594 326.328125 113.394531 325.320312 117.324219 324.601562 C 124.875 323.21875 131.183594 325.585938 136.382812 330.863281 C 141.28125 335.835938 145.886719 341.105469 150.523438 346.328125 C 152.398438 348.441406 154.125 350.738281 154.140625 354.34375 C 152.476562 356.660156 150.421875 359.191406 148.730469 361.945312 C 147.054688 364.679688 145.742188 367.640625 144.121094 370.796875 C 137.214844 366.761719 134.160156 360.105469 130.367188 354.234375 C 128.582031 354.324219 128.453125 355.3125 128.890625 356.449219 C 131.414062 362.976562 134.367188 369.292969 138.5 374.992188 C 139.390625 376.21875 140.296875 377.429688 141.019531 378.40625 C 138.808594 388.277344 136.425781 397.785156 134.582031 407.394531 C 131.789062 421.96875 129.511719 436.636719 130.46875 451.566406 Z M 700.199219 345.953125 C 701.636719 346.175781 703.089844 346.304688 704.535156 346.464844 C 703.546875 348.796875 700.300781 347.183594 699.203125 349.433594 C 697.75 352.511719 698.089844 355.699219 698.617188 358.683594 C 700.011719 360.148438 701.417969 360.144531 703.027344 359.945312 C 710.167969 359.078125 717.328125 358.367188 724.472656 357.53125 C 726.578125 357.28125 728.660156 356.796875 730.894531 356.398438 C 731.015625 353.058594 731.695312 350.082031 730.40625 346.996094 C 728.3125 347.203125 726.382812 347.410156 724.449219 347.574219 C 722.222656 347.761719 722.222656 347.746094 718.953125 346.597656 C 720.6875 345.667969 722.167969 344.816406 723.699219 344.0625 C 725.066406 343.390625 726.546875 342.929688 727.875 342.191406 C 730.871094 340.519531 731.09375 338.949219 729.023438 335.273438 C 724.398438 334.644531 704.496094 334.34375 700.320312 334.910156 C 699.734375 334.988281 699.207031 335.511719 698.570312 335.871094 C 697.75 339.085938 697.507812 342.234375 698.761719 345.109375 C 699.457031 345.53125 699.804688 345.894531 700.199219 345.953125 Z M 707.558594 344.730469 C 706.574219 346.507812 705.695312 346.417969 704.925781 346.359375 C 705.519531 345.992188 706.183594 345.582031 707.558594 344.730469 Z M 730.175781 429.441406 C 731.058594 432.113281 731.292969 434.609375 729.828125 437.453125 C 728.738281 437.675781 727.507812 438.140625 726.277344 438.136719 C 717.167969 438.109375 708.035156 438.386719 699.105469 436.738281 C 696.945312 433.367188 697.785156 430.289062 698.699219 426.921875 C 704.660156 425.429688 710.511719 423.96875 716.539062 422.460938 C 716 420.457031 714.460938 420.761719 713.457031 420.492188 C 710.308594 419.660156 707.085938 419.113281 703.933594 418.304688 C 702.296875 417.886719 700.738281 417.148438 699.410156 416.65625 C 698.664062 413.898438 698.515625 411.160156 698.96875 408.4375 C 699.5625 408.097656 700.273438 407.375 701.039062 407.308594 C 710.136719 406.519531 719.242188 406.4375 728.230469 407.050781 C 730.1875 409.40625 729.757812 411.691406 729.128906 414.328125 C 727.984375 414.773438 726.855469 415.457031 725.65625 415.621094 C 723.527344 415.917969 721.359375 415.902344 718.226562 416.070312 C 721.597656 418.441406 724.410156 418.59375 727.214844 418.816406 C 728.386719 418.90625 728.382812 418.972656 730.257812 421.171875 C 729.449219 422.296875 728.589844 423.488281 727.871094 424.488281 C 723.945312 425.710938 719.875 425.269531 715.945312 427.714844 C 720.839844 430.371094 725.898438 426.980469 730.175781 429.441406 Z M 729.753906 478.546875 C 729.542969 481.339844 728.347656 483.535156 726.179688 485.230469 C 723.515625 487.3125 720.488281 488.394531 717.089844 488.296875 C 712.695312 488.171875 708.488281 487.097656 704.390625 485.574219 C 700.460938 484.113281 698.476562 481.144531 698.480469 477.066406 C 698.484375 472.929688 699.824219 469.332031 703.988281 467.515625 C 705.179688 466.996094 706.429688 466.582031 707.6875 466.253906 C 709.039062 465.902344 710.285156 466.230469 711.226562 467.324219 C 712.167969 468.417969 712.378906 469.765625 711.792969 470.980469 C 711.253906 472.105469 710.332031 473.0625 709.5 474.023438 C 708.945312 474.664062 708.25 475.183594 707.367188 475.980469 C 709.519531 480.214844 711.390625 481.097656 716.019531 480.484375 C 719.976562 479.964844 720.773438 479.359375 721.476562 476.039062 C 719.875 475.285156 718.1875 474.488281 716.402344 473.648438 C 715.136719 470.792969 714.988281 468.253906 718.261719 466.167969 C 719.183594 466.300781 720.265625 466.347656 721.285156 466.617188 C 727.566406 468.289062 730.230469 472.132812 729.753906 478.546875 Z M 722.535156 394.703125 C 722.113281 393.433594 721.785156 392.199219 721.296875 391.03125 C 718.808594 385.125 714.261719 382.511719 707.828125 383.238281 C 702.34375 383.855469 698.6875 387.390625 698.058594 392.890625 C 697.785156 395.257812 697.703125 397.660156 697.773438 400.039062 C 697.8125 401.242188 698.386719 402.433594 698.679688 403.476562 C 704.800781 404.339844 725.148438 404.328125 729.550781 403.496094 C 731.320312 401.039062 731.734375 398.511719 729.777344 395.675781 C 727.414062 395.359375 725.097656 395.046875 722.535156 394.703125 Z M 706.285156 394.511719 C 706.96875 393.207031 707.277344 391.9375 708.085938 391.257812 C 709.160156 390.351562 710.566406 390.8125 711.59375 391.679688 C 712.355469 392.320312 712.910156 393.203125 713.84375 394.324219 C 711.152344 395.421875 709.011719 395.40625 706.285156 394.511719 Z M 478.300781 407.023438 C 478.375 411.984375 479.148438 417.007812 477.53125 422.285156 C 476.183594 422.664062 474.789062 423.339844 473.367188 423.40625 C 469.667969 423.574219 465.953125 423.558594 462.253906 423.464844 C 458.90625 423.378906 455.773438 424.023438 452.601562 425.640625 C 451.367188 428.6875 451.652344 431.808594 452.457031 435.15625 C 456.007812 436.320312 459.503906 435.625 462.917969 435.835938 C 466.328125 436.046875 469.949219 435.066406 473.285156 437.808594 C 473.496094 438.769531 473.902344 440 474.015625 441.257812 C 474.359375 445.160156 474.6875 449.070312 474.816406 452.984375 C 474.863281 454.394531 474.324219 455.828125 474.054688 457.238281 C 466.4375 459.191406 458.914062 456.976562 451.429688 458.769531 C 450.265625 463.480469 451.550781 468.019531 451.378906 472.515625 C 451.214844 476.84375 450.71875 481.15625 450.351562 485.691406 C 449.113281 486.300781 448.003906 487.285156 446.859375 487.328125 C 440.765625 487.558594 434.664062 487.59375 428.566406 487.578125 C 427.847656 487.578125 427.128906 486.847656 426.390625 486.441406 C 426.847656 483.664062 427.414062 481.167969 427.632812 478.640625 C 427.84375 476.261719 427.667969 473.851562 427.703125 471.453125 C 427.734375 469.277344 427.652344 467.078125 427.914062 464.925781 C 429.71875 450.160156 428.960938 435.332031 429.042969 420.523438 C 429.054688 418.152344 428.382812 415.785156 428.246094 413.402344 C 428.085938 410.597656 428.074219 407.769531 428.171875 404.960938 C 428.246094 402.671875 429.300781 400.789062 431.347656 399.242188 C 435.953125 398.734375 440.695312 398.789062 445.285156 400.574219 C 449.617188 402.257812 454.09375 402.855469 458.734375 402.699219 C 463.089844 402.554688 467.453125 402.632812 471.8125 402.703125 C 473.511719 402.730469 475.210938 403.011719 477.097656 403.195312 C 477.566406 404.621094 478.28125 405.816406 478.300781 407.023438 Z M 794.742188 340.277344 C 794.59375 331.125 793.625 322.007812 791.625 313.015625 C 790.539062 308.128906 789.90625 303.144531 789.089844 298.203125 C 788.273438 293.257812 787.714844 288.253906 786.609375 283.375 C 785.742188 279.566406 784.210938 275.910156 782.972656 272.183594 C 780.171875 263.75 774.503906 259.394531 765.507812 258.910156 C 762.457031 258.746094 759.394531 258.820312 756.335938 258.820312 C 692.125 258.785156 627.914062 258.761719 563.703125 258.699219 C 558.683594 258.695312 553.660156 258.46875 548.644531 258.269531 C 543.410156 258.0625 538.179688 257.734375 532.945312 257.515625 C 527.492188 257.285156 522.03125 257.191406 516.578125 256.921875 C 487.128906 255.457031 457.660156 254.546875 428.179688 254.359375 C 400.222656 254.183594 372.265625 254.300781 344.308594 254.277344 C 341.253906 254.273438 338.195312 254.25 335.140625 254.152344 C 325.757812 253.84375 316.378906 253.484375 306.996094 253.167969 C 302.851562 253.03125 298.699219 252.980469 294.554688 252.847656 C 286.480469 252.589844 278.410156 252.070312 270.335938 252.058594 C 194.109375 251.957031 117.886719 251.941406 41.664062 251.90625 C 39.480469 251.90625 37.289062 251.863281 35.113281 251.980469 C 30.890625 252.207031 26.941406 253.414062 23.417969 255.769531 C 17.785156 259.53125 15.523438 265.9375 17.503906 272.398438 C 17.949219 273.847656 18.609375 275.234375 19.253906 276.867188 C 18.269531 280.945312 17.582031 284.605469 16.496094 288.140625 C 14.039062 296.125 14.597656 304.296875 16.082031 312.148438 C 17.769531 321.109375 20.191406 329.96875 22.285156 338.875 C 24.175781 346.933594 26.601562 354.859375 27.621094 363.113281 C 27.96875 365.921875 28.539062 368.722656 29.28125 371.453125 C 31.015625 377.832031 31.527344 384.300781 31.507812 390.894531 C 31.417969 423.421875 31.507812 455.953125 31.371094 488.484375 C 31.347656 494.796875 30.800781 501.121094 30.167969 507.410156 C 29.492188 514.128906 28.21875 520.789062 27.605469 527.507812 C 27.175781 532.273438 27.0625 537.125 27.421875 541.890625 C 28.027344 549.9375 33.449219 555.578125 41.421875 556.972656 C 43.777344 557.382812 46.191406 557.578125 48.585938 557.691406 C 62.816406 558.363281 76.984375 557.398438 90.996094 555.050781 C 104.824219 552.730469 118.742188 551.878906 132.699219 551.238281 C 141.425781 550.839844 150.144531 550.335938 158.863281 549.832031 C 171.28125 549.109375 183.664062 547.863281 196.128906 547.875 C 314.503906 547.980469 432.882812 548.0625 551.257812 548.011719 C 562.160156 548.007812 573.070312 547.160156 583.960938 546.457031 C 594.414062 545.78125 604.851562 544.847656 615.285156 543.90625 C 621.585938 543.339844 627.882812 542.664062 634.152344 541.820312 C 642.15625 540.746094 650.109375 539.074219 658.222656 539.34375 C 672.03125 539.800781 685.679688 538.105469 699.351562 536.664062 C 706.730469 535.890625 714.070312 534.695312 721.53125 534.964844 C 723.265625 535.027344 725.011719 534.695312 726.753906 534.585938 C 730.671875 534.335938 734.589844 533.953125 738.511719 533.914062 C 748.339844 533.808594 758.171875 534.003906 767.996094 533.820312 C 777.789062 533.632812 784.347656 527.570312 785.613281 517.878906 C 786.175781 513.554688 786.503906 509.199219 787.15625 504.890625 C 788.003906 499.253906 788.226562 493.601562 788.179688 487.917969 C 788.117188 480.714844 788.246094 473.507812 788.160156 466.304688 C 787.976562 450.976562 789.832031 435.796875 791.859375 420.671875 C 793.425781 408.964844 794.277344 397.21875 794.652344 385.46875 C 795.132812 370.417969 794.988281 355.339844 794.742188 340.277344 Z M 765.257812 385.640625 C 765.070312 395.664062 764.019531 405.644531 762.984375 415.632812 C 761.929688 425.824219 760.460938 435.964844 759.65625 446.199219 C 758.457031 461.476562 759.027344 476.734375 758.714844 491.996094 C 758.660156 494.613281 758.59375 497.238281 758.316406 499.835938 C 758.160156 501.308594 757.554688 502.730469 757.117188 504.3125 C 755.652344 504.5 754.386719 504.789062 753.113281 504.808594 C 749.183594 504.875 745.253906 504.804688 741.320312 504.84375 C 726.90625 504.984375 712.558594 505.976562 698.207031 507.398438 C 683.890625 508.816406 669.609375 511.082031 655.125 510.273438 C 648.769531 509.921875 642.441406 510.660156 636.242188 511.914062 C 625.058594 514.175781 613.695312 514.429688 602.398438 515.445312 C 595.445312 516.074219 588.488281 516.679688 581.523438 517.136719 C 571.289062 517.804688 561.042969 518.839844 550.804688 518.847656 C 457.332031 518.933594 363.859375 518.832031 270.386719 518.777344 C 267.78125 518.773438 265.175781 518.652344 262.4375 518.585938 C 257.589844 514.402344 252.597656 510.488281 248.054688 506.109375 C 234.378906 492.929688 220.882812 479.566406 207.308594 466.28125 C 204.210938 463.25 201.082031 460.25 197.820312 457.09375 C 195.214844 458.417969 193.496094 460.414062 191.515625 462.054688 C 189.695312 463.5625 187.917969 465.121094 185.777344 466.957031 C 193.5625 474.671875 200.195312 483 206.378906 491.667969 C 212.542969 500.316406 219.441406 508.441406 225.339844 517.203125 C 224.628906 517.847656 224.347656 518.34375 224.015625 518.375 C 216.621094 519.121094 209.21875 518.679688 201.726562 518.644531 C 200.863281 517.472656 199.988281 516.507812 199.367188 515.402344 C 194.207031 506.25 190 496.707031 187.125 486.558594 C 185.761719 481.746094 183.746094 477.121094 181.96875 472.4375 C 181.75 471.867188 181.183594 471.429688 180.59375 470.710938 C 175.652344 472.074219 170.675781 473.445312 166.15625 474.695312 C 164.535156 476.722656 164.839844 478.496094 165.34375 480.152344 C 169.027344 492.261719 170.273438 504.992188 174.785156 516.882812 C 174.933594 517.273438 174.882812 517.738281 174.96875 518.613281 C 174.121094 518.886719 173.195312 519.371094 172.234375 519.460938 C 168.761719 519.789062 165.28125 519.984375 162.152344 520.203125 C 160.007812 518.765625 160.429688 516.902344 160.386719 515.21875 C 160.082031 503.226562 159.808594 491.230469 159.496094 479.238281 C 159.488281 478.847656 159.15625 478.464844 158.972656 478.078125 C 153.394531 475.929688 151 475.613281 145.742188 476.351562 C 144.070312 477.816406 144.105469 479.824219 144.253906 481.769531 C 145.152344 493.578125 143.867188 505.324219 143.390625 517.097656 C 143.339844 518.363281 143.03125 519.621094 142.863281 520.738281 C 138.199219 522.0625 129.675781 522.339844 122.230469 521.441406 C 122.207031 518.171875 123.675781 515.230469 124.570312 512.195312 C 125.558594 508.851562 126.808594 505.585938 127.902344 502.273438 C 128.929688 499.164062 129.933594 496.050781 130.878906 492.917969 C 131.882812 489.578125 132.714844 486.183594 133.785156 482.863281 C 134.777344 479.785156 135.984375 476.773438 137.199219 473.457031 C 132.828125 470.523438 129.785156 466.027344 123.980469 465.105469 C 118.949219 475.109375 113.878906 484.507812 109.445312 494.199219 C 105.007812 503.902344 101.210938 513.894531 97.066406 523.910156 C 93.207031 524.757812 89.648438 526.484375 85.332031 525.363281 C 86.039062 523.640625 86.589844 522.242188 87.183594 520.855469 C 89.761719 514.84375 92.476562 508.890625 94.894531 502.820312 C 97.652344 495.898438 100.90625 489.257812 105.15625 483.144531 C 106.773438 480.820312 108.566406 478.605469 110.433594 476.476562 C 114.328125 472.035156 117.261719 466.960938 120.550781 461.949219 C 118.429688 457.132812 114.054688 455.085938 110.390625 452.015625 C 108.675781 453.035156 107.15625 453.566406 106.167969 454.601562 C 103.316406 457.605469 100.527344 460.691406 97.988281 463.957031 C 88.867188 475.699219 79.476562 487.167969 67.941406 496.691406 C 66.09375 498.21875 64.433594 499.96875 62.628906 501.554688 C 62.207031 501.929688 61.566406 502.054688 60.886719 502.355469 C 60.890625 494.300781 60.894531 486.492188 60.898438 478.566406 C 65.289062 474.117188 70.378906 470.707031 75.03125 466.789062 C 79.871094 462.710938 84.78125 458.714844 89.511719 454.523438 C 94.039062 450.511719 99.296875 447.269531 103.207031 442.292969 C 100.867188 439.023438 98.742188 436.007812 96.550781 433.042969 C 96.183594 432.546875 95.53125 432.265625 95.035156 431.90625 C 92.113281 431.332031 89.921875 432.925781 87.65625 434.175781 C 80.199219 438.277344 72.773438 442.433594 65.320312 446.542969 C 64.203125 447.15625 63 447.605469 61.554688 448.261719 C 60.464844 443.636719 60.785156 439.371094 61.292969 434.761719 C 70.695312 431.320312 80.183594 428.121094 88.902344 423.277344 C 89.578125 421.730469 88.25 420.863281 87.925781 419.710938 C 87.628906 418.664062 87.285156 417.628906 86.945312 416.597656 C 86.542969 415.355469 86.117188 414.125 85.691406 412.847656 C 82.753906 411.140625 79.667969 411.886719 76.699219 412.117188 C 72.566406 412.4375 68.457031 413.058594 64.335938 413.527344 C 63.511719 413.621094 62.671875 413.609375 61.585938 413.660156 C 60.488281 410.078125 60.828125 406.6875 61.265625 403.253906 C 64.179688 401.28125 67.3125 402.261719 70.28125 402.152344 C 73.328125 402.039062 76.382812 402.128906 79.3125 402.128906 C 81 398.320312 81.230469 392.078125 80.007812 385.996094 C 78.5 383.863281 76.167969 383.390625 73.753906 383.035156 C 70.734375 382.585938 67.710938 382.140625 64.714844 381.558594 C 63.472656 381.316406 62.296875 380.71875 60.800781 380.179688 C 59.871094 375.003906 58.949219 369.90625 57.953125 364.367188 C 59.222656 364.203125 60.238281 363.871094 61.207031 363.980469 C 64.023438 364.304688 66.820312 364.789062 69.621094 365.238281 C 71.988281 365.617188 74.34375 366.125 76.683594 365.402344 C 78.773438 363.613281 78.75 361.066406 79.308594 358.792969 C 79.878906 356.464844 80.332031 354.097656 80.632812 351.71875 C 80.929688 349.371094 81.683594 346.992188 80.488281 344.148438 C 76.542969 340.773438 70.808594 340.367188 66.042969 337.832031 C 61.25 335.28125 56.183594 333.238281 51.039062 330.886719 C 50.816406 330.511719 50.316406 330 50.171875 329.402344 C 48.394531 321.988281 46.613281 314.574219 44.941406 307.136719 C 44.074219 303.273438 43.992188 299.351562 44.882812 295.46875 C 45.109375 294.488281 45.640625 293.582031 46.265625 292.082031 C 53.898438 299.671875 60.96875 307.058594 68.429688 314.027344 C 75.726562 320.84375 82.386719 328.269531 89.484375 335.519531 C 92.226562 333.277344 94.738281 331.226562 97.542969 328.9375 C 96.820312 327.34375 96.167969 325.800781 95.417969 324.304688 C 94.640625 322.746094 93.8125 321.210938 92.925781 319.707031 C 90.828125 316.140625 88.726562 312.570312 86.539062 309.054688 C 85.046875 306.652344 83.433594 304.320312 81.824219 301.992188 C 80.957031 300.734375 79.835938 299.636719 79.09375 298.320312 C 77.488281 295.472656 76.152344 292.472656 74.523438 289.636719 C 73.039062 287.0625 71.320312 284.625 69.667969 282.070312 C 74.191406 280.851562 89.695312 280.648438 97.273438 281.660156 C 99.234375 283.882812 100.394531 286.714844 101.414062 289.566406 C 103.90625 296.550781 106.234375 303.589844 108.691406 310.585938 C 109.699219 313.460938 110.832031 316.296875 111.996094 319.113281 C 112.230469 319.671875 112.855469 320.070312 113.515625 320.777344 C 116.519531 321.242188 119.726562 321.863281 122.960938 322.203125 C 126.226562 322.550781 127.90625 321.003906 127.871094 317.644531 C 127.851562 315.71875 127.492188 313.753906 127 311.878906 C 124.679688 303 123.070312 293.992188 121.898438 284.898438 C 121.789062 284.0625 121.882812 283.195312 121.882812 282.238281 C 124.09375 280.558594 126.570312 281.246094 128.871094 281.136719 C 131.269531 281.019531 133.675781 281.074219 136.078125 281.125 C 138.441406 281.171875 140.875 280.796875 143.308594 281.960938 C 144.621094 287.3125 144.277344 292.789062 144.742188 298.171875 C 145.191406 303.390625 145.273438 308.636719 145.621094 313.863281 C 145.980469 319.304688 146.464844 324.734375 146.917969 330.484375 C 150.03125 334.851562 153.296875 339.453125 156.609375 344.023438 C 156.820312 344.3125 157.394531 344.339844 158.214844 344.644531 C 158.917969 343.863281 160.042969 343.082031 160.453125 342.023438 C 160.902344 340.859375 160.746094 339.445312 160.757812 338.136719 C 160.789062 334.210938 160.855469 330.277344 160.761719 326.351562 C 160.535156 317.152344 161.472656 308.054688 162.695312 298.957031 C 163.191406 295.289062 163.277344 291.5625 163.601562 287.867188 C 163.769531 285.945312 164.054688 284.035156 164.265625 282.285156 C 168.941406 280.867188 182.707031 280.671875 189.539062 281.886719 C 189.335938 282.898438 189.238281 283.929688 188.921875 284.894531 C 186.75 291.523438 184.496094 298.128906 182.351562 304.769531 C 181.679688 306.839844 181.0625 308.964844 180.800781 311.113281 C 180.628906 312.503906 181.144531 313.976562 181.308594 315.101562 C 184.675781 316.960938 187.277344 314.710938 190.054688 314.753906 C 192.65625 314.796875 195.261719 314.644531 197.828125 314.574219 C 200.457031 312.136719 201.804688 309.132812 203.199219 306.210938 C 207.570312 297.070312 213.359375 288.957031 220.699219 281.40625 C 227.128906 281.15625 233.777344 280.714844 240.96875 281.757812 C 238.988281 286.703125 235.847656 290.355469 233.558594 294.46875 C 231.121094 298.84375 228.335938 303.027344 225.652344 307.265625 C 223.097656 311.304688 220.476562 315.304688 217.746094 319.542969 C 218.242188 320.351562 218.625 321.453125 219.386719 322.121094 C 222.652344 325.003906 226.023438 327.773438 229.375 330.558594 C 231.742188 332.527344 233.589844 332.644531 235.730469 330.507812 C 239.125 327.117188 242.414062 323.609375 245.5625 319.988281 C 251.285156 313.398438 256.929688 306.734375 262.5 300.011719 C 266.117188 295.648438 269.535156 291.113281 273.078125 286.683594 C 274.429688 284.992188 275.882812 283.378906 277.355469 281.65625 C 279.683594 281.65625 281.847656 281.617188 284.007812 281.664062 C 290.996094 281.824219 297.980469 281.980469 304.964844 282.203125 C 312.601562 282.449219 320.234375 282.789062 327.867188 283.050781 C 332.230469 283.199219 336.597656 283.351562 340.964844 283.355469 C 371.976562 283.398438 402.988281 283.351562 434 283.457031 C 441.636719 283.480469 449.269531 283.9375 456.90625 284.214844 C 459.085938 284.296875 461.269531 284.574219 463.445312 284.535156 C 480.492188 284.234375 497.492188 285.453125 514.507812 286.050781 C 525.636719 286.4375 536.757812 287.011719 547.886719 287.394531 C 555.523438 287.65625 563.167969 287.855469 570.808594 287.863281 C 629.992188 287.929688 689.175781 287.941406 748.363281 287.980469 C 751.179688 287.984375 753.996094 288.09375 756.597656 288.148438 C 759.230469 291.398438 759.5625 294.996094 759.714844 298.382812 C 760.066406 306.070312 761.90625 313.453125 763.335938 320.949219 C 764.558594 327.347656 765.171875 333.9375 765.285156 340.453125 C 765.546875 355.511719 765.535156 370.582031 765.257812 385.640625 Z M 731.847656 368.15625 C 732.503906 365.058594 732.144531 362.40625 730.710938 359.652344 C 726.730469 359.371094 723.355469 361.125 719.882812 362.121094 C 716.136719 363.199219 712.476562 364.652344 708.914062 366.246094 C 705.601562 367.730469 701.523438 367.253906 698.816406 370.007812 C 698.816406 373.261719 698.78125 373.273438 700.636719 376.558594 C 705.308594 378.023438 710.355469 379.347656 715.203125 381.191406 C 720.066406 383.042969 724.730469 385.417969 729.917969 387.753906 C 732.007812 385.40625 732.089844 385.402344 732.050781 383.683594 C 732 381.554688 732.585938 379.300781 731.070312 377.449219 C 729.3125 376.59375 727.605469 375.765625 725.761719 374.867188 C 726.070312 373.304688 726.3125 372.074219 726.542969 370.917969 C 728.460938 369.917969 730.160156 369.035156 731.847656 368.15625 Z M 717.4375 373.582031 C 718.90625 372.046875 719.972656 372.054688 721.242188 373.105469 C 720.15625 374.644531 719.054688 374.152344 717.4375 373.582031 Z M 733.3125 313.027344 C 733.8125 316.371094 734.1875 319.125 732.617188 322.054688 C 731.417969 322.269531 730.183594 322.632812 728.933594 322.6875 C 726.546875 322.792969 724.148438 322.828125 721.765625 322.710938 C 718.15625 322.53125 714.941406 323.492188 711.875 325.375 C 709.667969 326.730469 707.300781 327.847656 704.953125 328.957031 C 704.199219 329.308594 703.273438 329.398438 702.425781 329.40625 C 701.816406 329.410156 701.207031 329.078125 700.453125 328.851562 C 698.898438 325.988281 699.445312 323.070312 700.066406 320.066406 C 702.054688 319.015625 703.925781 318.027344 705.839844 317.015625 C 704.960938 314.003906 701.582031 314.675781 699.945312 312.144531 C 699.613281 309.375 698.132812 306.074219 700.59375 302.476562 C 701.652344 302.804688 702.734375 302.933594 703.589844 303.441406 C 706.578125 305.203125 709.566406 306.992188 712.414062 308.972656 C 716.101562 311.535156 719.914062 313.082031 724.566406 312.390625 C 727.292969 311.984375 730.15625 311.925781 733.3125 313.027344 Z M 724.789062 442.527344 C 719.773438 440.777344 714.625 440.21875 709.34375 440.878906 C 705.429688 441.371094 702.332031 443.257812 700.203125 446.523438 C 694.910156 454.648438 697.675781 459.933594 706.269531 461.925781 C 708.582031 462.464844 711.019531 462.457031 713.875 462.75 C 718.160156 463.632812 722.445312 462.519531 726.398438 459.785156 C 728.503906 458.328125 729.761719 456.394531 729.945312 453.847656 C 730.054688 452.332031 730.0625 450.804688 729.992188 449.289062 C 729.839844 445.84375 727.976562 443.636719 724.789062 442.527344 Z M 720.425781 454.046875 C 715.371094 455.464844 710.632812 456.6875 706.121094 453.136719 C 705.84375 450.316406 706.734375 448.925781 708.664062 448.464844 C 712.789062 447.476562 716.6875 448.3125 720.832031 449.863281 C 720.675781 451.5 720.558594 452.699219 720.425781 454.046875 Z M 690.226562 304.984375 C 690.695312 306.488281 691.480469 307.882812 691.496094 309.285156 C 691.527344 312.546875 691.246094 315.8125 690.984375 319.066406 C 690.671875 322.980469 689.957031 326.878906 689.933594 330.789062 C 689.863281 342.132812 689.375 353.484375 690.433594 364.816406 C 690.714844 367.851562 690.675781 370.921875 690.675781 373.976562 C 690.683594 394.710938 690.769531 415.449219 690.59375 436.183594 C 690.539062 442.492188 689.679688 448.789062 689.316406 455.097656 C 688.992188 460.757812 688.851562 466.425781 688.617188 472.089844 C 688.511719 474.65625 688.972656 477.339844 687.28125 479.589844 C 683.058594 480.257812 666.972656 480.554688 660.980469 480.0625 C 659.027344 478.339844 659.277344 475.871094 659.195312 473.515625 C 658.871094 464.332031 659.570312 455.210938 660.847656 446.117188 C 661.242188 443.320312 661.496094 440.480469 661.503906 437.65625 C 661.566406 415.832031 661.578125 394.003906 661.535156 372.175781 C 661.53125 369.355469 661.140625 366.53125 660.914062 363.710938 C 660.878906 363.277344 660.710938 362.851562 660.699219 362.421875 C 660.371094 349.335938 659.890625 336.242188 661.035156 323.175781 C 661.507812 317.761719 662.421875 312.386719 663.144531 306.933594 C 667.738281 304.878906 672.414062 305.890625 676.871094 305.320312 C 681.179688 304.773438 685.546875 304.632812 690.226562 304.984375 Z M 533.78125 409.785156 C 533.179688 413.613281 532.550781 417.644531 532.003906 421.128906 C 530.046875 423.222656 528.058594 423.273438 526.085938 423.207031 C 519.738281 422.996094 513.5 423.699219 506.503906 425.496094 C 506.640625 428.351562 506.761719 430.890625 506.890625 433.652344 C 514.148438 435.457031 521.523438 432.976562 528.058594 435.246094 C 529.488281 440.855469 529.53125 449.75 528.316406 455.289062 C 526.816406 457.175781 524.667969 457.359375 522.445312 457.457031 C 517.867188 457.660156 513.292969 457.914062 508.722656 458.210938 C 507.691406 458.277344 506.679688 458.613281 505.4375 458.871094 C 505.34375 463.554688 507.539062 467.53125 508.007812 471.792969 C 508.460938 475.878906 508.5 480.015625 507.699219 484.300781 C 506.332031 484.828125 505.167969 485.347656 503.964844 485.722656 C 501.886719 486.363281 499.792969 486.953125 497.6875 487.488281 C 495.574219 488.023438 493.460938 488.605469 491.308594 488.921875 C 487.015625 489.546875 485.117188 487.988281 484.917969 483.722656 C 484.792969 481.109375 484.878906 478.484375 484.878906 475.867188 C 484.882812 465.609375 484.878906 455.351562 484.894531 445.097656 C 484.90625 438.984375 484.863281 432.894531 483.535156 426.863281 C 483.074219 424.761719 483.132812 422.53125 483.058594 420.351562 C 482.90625 415.792969 483.363281 411.21875 482.085938 406.699219 C 481.726562 405.429688 482.46875 403.851562 482.714844 402.375 C 485.769531 401.53125 488.4375 400.5625 491.1875 400.113281 C 493.070312 399.808594 495.15625 399.910156 497.007812 400.382812 C 505.511719 402.550781 514.109375 403.734375 522.898438 403.503906 C 524.199219 403.472656 525.511719 403.644531 526.8125 403.757812 C 530.476562 404.070312 532.941406 405.824219 533.78125 409.785156 Z M 496.738281 389.324219 C 499.738281 386.625 502.691406 383.722656 505.902344 381.136719 C 509.457031 378.269531 511.585938 374.574219 512.941406 370.363281 C 514.351562 366 515.28125 361.5625 515.113281 356.902344 C 514.933594 351.898438 514.9375 346.875 515.109375 341.871094 C 515.371094 334.242188 513.261719 327.296875 509.792969 320.59375 C 503.3125 308.066406 492.65625 302.617188 479.027344 302.054688 C 477.296875 301.984375 475.460938 301.894531 473.832031 302.363281 C 461.457031 305.902344 451.710938 315.773438 451.289062 328.105469 C 451.246094 329.40625 450.96875 330.699219 450.839844 332 C 449.558594 344.738281 451.140625 357.195312 454.625 369.449219 C 455.578125 372.800781 456.671875 376.222656 459.160156 378.765625 C 464.613281 384.339844 471.117188 388.390625 478.917969 389.410156 C 484.714844 390.167969 490.640625 389.984375 496.738281 389.324219 Z M 478.171875 359.609375 C 477.609375 358.441406 477.210938 357.144531 477.019531 355.863281 C 475.609375 346.453125 475.71875 337.167969 479.691406 328.273438 C 479.945312 327.703125 480.460938 327.246094 480.871094 326.710938 C 484.96875 325.1875 488.070312 326.683594 490.910156 330.023438 C 492.316406 334.613281 492.421875 339.648438 492.734375 344.632812 C 492.921875 347.675781 492.671875 350.746094 492.792969 353.796875 C 492.980469 358.523438 491.09375 362.203125 487.625 365.242188 C 482.929688 365.726562 480.039062 363.464844 478.171875 359.609375 Z M 590.625 469.992188 C 590.683594 471.726562 590.589844 473.484375 590.386719 475.210938 C 590.066406 478.015625 589.746094 480.835938 589.128906 483.582031 C 588.816406 484.960938 587.855469 486.195312 587.210938 487.453125 C 585.546875 487.605469 584.261719 487.792969 582.972656 487.828125 C 580.792969 487.882812 578.609375 487.914062 576.433594 487.832031 C 567.035156 487.492188 557.707031 488.097656 548.433594 489.625 C 546.042969 490.019531 543.671875 490.382812 541.539062 488.773438 C 540.164062 487.421875 539.996094 485.6875 540.039062 483.925781 C 540.203125 477.398438 540.429688 470.871094 540.582031 464.34375 C 540.992188 446.714844 542.175781 429.070312 539.839844 411.476562 C 539.582031 409.550781 538.953125 407.675781 538.636719 405.753906 C 538.46875 404.742188 538.609375 403.683594 538.609375 402.617188 C 553.410156 398.964844 568.175781 398.957031 582.960938 399.21875 C 584.949219 399.253906 586.890625 399.410156 588.480469 400.800781 C 590.242188 405.777344 590.339844 414.886719 588.691406 420.574219 C 586.863281 422.558594 584.402344 422.523438 582.019531 422.5625 C 577.660156 422.628906 573.296875 422.554688 568.9375 422.609375 C 567.230469 422.632812 565.53125 422.851562 563.828125 422.980469 C 562.464844 425.261719 562.96875 427.363281 563.246094 429.328125 C 564.890625 431.34375 567.007812 431.726562 569.226562 431.777344 C 571.625 431.835938 574.027344 431.757812 576.421875 431.855469 C 578.152344 431.929688 579.921875 432.007812 581.589844 432.421875 C 584.960938 433.269531 586.832031 435.808594 586.460938 439.144531 C 586.105469 442.355469 585.425781 445.53125 584.945312 448.382812 C 583.371094 450.171875 581.585938 450.152344 579.851562 450.171875 C 575.710938 450.214844 571.566406 450.15625 567.425781 450.222656 C 565.722656 450.25 564.027344 450.5 562.285156 450.652344 C 560.84375 454.539062 562.355469 457.6875 563.519531 461 C 566.753906 462.101562 570.03125 461.96875 573.269531 462.023438 C 576.539062 462.078125 579.820312 461.886719 583.078125 462.070312 C 588.234375 462.359375 590.445312 464.742188 590.625 469.992188 Z M 647.894531 381.976562 C 648.175781 385.167969 648.203125 385.167969 646.84375 388.886719 C 639.988281 391 634.953125 390.492188 628.96875 386.835938 C 626.625 387.242188 623.851562 387.726562 621.082031 388.207031 C 615.402344 389.195312 609.800781 388.992188 604.265625 387.226562 C 598.898438 385.515625 595.304688 382 593.324219 376.789062 C 592.863281 375.566406 592.4375 374.316406 592.152344 373.046875 C 591.109375 368.371094 589.792969 363.722656 589.195312 358.984375 C 587.433594 345 589.179688 331.394531 596.261719 319.101562 C 601.074219 310.75 608.640625 305.722656 618.804688 305.738281 C 620.332031 305.742188 621.859375 305.800781 623.390625 305.808594 C 627.222656 305.835938 630.6875 306.945312 633.761719 309.253906 C 634.984375 310.175781 636.207031 311.089844 637.46875 311.953125 C 644.054688 316.457031 646.308594 322.992188 646.214844 330.605469 C 646.210938 331.214844 645.761719 331.8125 645.378906 332.773438 C 638.296875 335.316406 631.472656 335.523438 624.535156 334.269531 C 623.742188 332.226562 623.046875 330.4375 622.394531 328.761719 C 619.675781 327.105469 617.476562 327.980469 615.898438 330.023438 C 614.585938 331.714844 613.609375 333.742188 612.839844 335.757812 C 609.273438 345.105469 608.402344 354.777344 609.488281 364.597656 C 612.167969 368.09375 615.644531 367.5 618.855469 367.148438 C 621.5 365.460938 622.617188 363.195312 623.066406 360.554688 C 621.472656 357.882812 618.183594 358.882812 616.496094 357.472656 C 614.761719 355.871094 614.617188 354.121094 614.71875 352.359375 C 614.886719 349.367188 613.972656 346.222656 615.871094 343.414062 C 618.089844 341.695312 620.839844 341.621094 623.367188 341.648438 C 630.082031 341.730469 636.640625 338.992188 643.691406 340.414062 C 644.097656 341.742188 644.6875 342.929688 644.796875 344.160156 C 645.515625 352.199219 646.132812 360.242188 646.78125 368.285156 C 647.148438 372.851562 647.5 377.414062 647.894531 381.976562 Z M 647.898438 467.558594 C 648.0625 473.222656 648.054688 478.894531 647.898438 484.558594 C 647.859375 485.957031 647.027344 487.335938 646.53125 488.8125 C 644.953125 489.058594 643.6875 489.425781 642.417969 489.433594 C 629.136719 489.535156 615.855469 489.605469 601.816406 488.808594 C 601.195312 486.949219 600.4375 485.585938 600.332031 484.171875 C 600.125 481.351562 600.015625 478.480469 600.324219 475.679688 C 601.402344 465.890625 600.863281 456.078125 600.796875 446.28125 C 600.761719 440.640625 599.652344 435.015625 599.445312 429.371094 C 599.160156 421.542969 599.175781 413.703125 599.28125 405.867188 C 599.308594 403.777344 600.132812 401.695312 600.582031 399.652344 C 603.75 398.523438 606.535156 399.316406 609.304688 399.542969 C 612.988281 399.839844 616.660156 400.359375 620.347656 400.453125 C 626.449219 400.609375 632.558594 400.5 638.664062 400.515625 C 640.859375 400.519531 643.066406 400.515625 644.953125 402.84375 C 646.054688 407.132812 645.4375 411.925781 645.351562 416.671875 C 645.328125 417.859375 644.5 419.03125 643.964844 420.402344 C 642.363281 420.632812 640.890625 421.007812 639.414062 421.027344 C 633.960938 421.101562 628.507812 421.027344 623.058594 421.078125 C 621.585938 421.089844 620.117188 421.34375 618.484375 421.5 C 617.652344 425.238281 617.871094 428.648438 618.253906 432.425781 C 619.515625 432.648438 620.730469 433.035156 621.953125 433.050781 C 626.09375 433.109375 630.238281 433.03125 634.382812 433.015625 C 636.328125 433.007812 638.277344 433.015625 640.558594 433.015625 C 641.273438 434.453125 642.421875 435.734375 642.46875 437.058594 C 642.605469 440.886719 643.613281 444.914062 640.75 448.867188 C 634.664062 450.527344 628.046875 448.84375 621.695312 449.882812 C 620.152344 453.851562 620 457.863281 621.136719 464.640625 C 621.648438 464.863281 622.253906 465.375 622.800781 465.316406 C 627.976562 464.78125 633.152344 464.230469 638.304688 463.511719 C 640.90625 463.148438 643.457031 462.65625 646.535156 463.765625 C 646.945312 464.847656 647.859375 466.191406 647.898438 467.558594 Z M 647.898438 467.558594 " fill-opacity="1" fill-rule="nonzero"/></g></svg>