<?xml version="1.0" encoding="UTF-8" standalone="no"?>
<!DOCTYPE svg PUBLIC "-//W3C//DTD SVG 1.1//EN" "http://www.w3.org/Graphics/SVG/1.1/DTD/svg11.dtd">
<!-- Created with Vectornator (http://vectornator.io/) -->
<svg height="100%" stroke-miterlimit="10" style="fill-rule:nonzero;clip-rule:evenodd;stroke-linecap:round;stroke-linejoin:round;" version="1.1" viewBox="0 0 1080 1080" width="100%" xml:space="preserve" xmlns="http://www.w3.org/2000/svg" xmlns:vectornator="http://vectornator.io" xmlns:xlink="http://www.w3.org/1999/xlink">
<defs/>
<g id="Untitled" vectornator:layerName="Untitled">
<g opacity="1" vectornator:layerName="path">
<clipPath clip-rule="nonzero" id="ClipPath">
<path d="M18.6667 335.865L1060 335.865L1060 743.865L18.6667 743.865L18.6667 335.865Z"/>
</clipPath>
<g clip-path="url(#ClipPath)">
<path d="M560.557 589.078C560.557 584.417 560.469 579.76 560.583 575.104C560.781 567.219 558.5 560.047 553.755 553.911C548.604 547.245 542.922 540.995 537.422 534.604C533.802 530.396 529.302 528.115 523.604 528.469C521.865 528.578 520.068 528.594 518.375 528.26C512.698 527.156 507.359 528.406 502.161 530.448C498.375 531.932 494.578 533.479 490.995 535.385C484.307 538.943 479.63 544.292 477.349 551.656C474.833 559.781 473.427 568.042 473.484 576.563C473.557 586.75 473.651 596.948 473.438 607.13C473.281 614.568 474.891 621.615 477.594 628.391C482.682 641.161 492.729 648.698 505.219 653.313C507.333 654.099 509.802 654.12 512.109 654.172C517.641 654.292 523.182 654.057 528.708 654.271C534.323 654.484 539.042 652.417 543 648.802C545.542 646.484 547.865 643.724 549.573 640.75C552.604 635.464 555.526 630.021 557.677 624.339C559.401 619.781 560.562 614.802 560.818 609.948C561.188 603.021 560.505 596.042 560.271 589.083C560.365 589.083 560.458 589.078 560.557 589.078ZM530.911 610.604C529.849 613.688 528.635 616.51 525.859 618.927C522.312 618.927 518.589 618.922 514.339 618.922C512.885 617.682 511.073 616.266 509.411 614.688C506.979 612.385 505.943 609.552 505.875 606.13C505.661 595.359 506.323 584.682 508.24 574.073C509.453 567.328 512.49 562.115 519.797 559.578C521.62 560.104 523.87 560.62 526.016 561.401C531.25 563.307 533.974 567.432 534.141 572.698C534.552 585.432 535.182 598.219 530.911 610.604ZM379.625 498.604C378.193 496.104 377.198 493.307 376.302 490.552C375.13 486.938 374.38 483.229 376.125 479.609C382.62 476.771 388.516 476.87 406.5 480.151C407.276 481.672 408.266 483.411 409.073 485.229C410.021 487.375 410.885 489.521 413.083 490.755C415.083 491.88 415.932 491.943 421.438 491.104C422.443 488.719 422.875 486.245 422.729 483.688C422.234 483.161 421.745 482.37 421.042 481.938C415.047 478.245 408.365 476.188 401.766 473.922C398.755 472.891 395.729 471.781 392.911 470.323C386.583 467.036 382.599 461.635 381.297 454.76C380.219 449.083 379.964 443.229 379.698 437.432C379.594 435.177 380.073 432.714 380.953 430.625C384.495 422.172 397.25 407.557 411.49 407.641C415.568 407.667 419.651 407.432 423.719 407.651C435.792 408.292 448.656 415.656 451.281 431.13C452 435.391 451.964 439.776 452.203 443.146C450.792 446.198 449.042 447.234 446.901 447.297C441.083 447.464 435.255 447.635 429.443 447.469C425.141 447.344 423.234 445.401 422.469 441.109C422.167 439.406 422.125 437.656 421.984 436.172C420.094 433.135 417.823 431.849 414.323 433.01C411.682 436.505 411.833 440.51 412.047 445.047C413.609 446.036 415.151 447.422 416.958 448.063C421.062 449.521 425.318 450.552 429.479 451.87C435.094 453.641 440.188 456.37 444.49 460.469C454.479 469.979 455.974 481.818 452.714 494.281C450.562 502.521 446.188 509.911 438.214 514.234C435.682 515.609 433.047 517.094 430.281 517.667C424.885 518.776 419.385 519.776 413.901 519.948C397.859 520.448 387.208 511.818 379.625 498.604ZM473.109 508.396C473.057 493.26 473.109 478.125 473.083 462.99C473.078 459.792 473.052 456.578 472.755 453.396C472.375 449.391 471.703 445.411 471.089 440.922C468.312 440.781 465.776 440.646 463.24 440.516C457.88 440.234 456.24 438.875 456.104 433.87C455.938 427.766 455.953 421.646 456.135 415.536C456.266 411.396 458.365 409.052 462.271 408.193C463.682 407.88 465.161 407.792 466.609 407.792C481.75 407.771 496.885 407.786 512.026 407.807C514.99 407.813 517.911 407.995 519.807 411.313C519.802 419.354 519.802 426.88 519.797 434.099C517.359 438.089 513.932 439.089 509.896 438.948C507.016 438.844 504.125 438.927 500.823 438.922C500.24 441.115 499.37 442.984 499.307 444.885C499.167 449.24 499.318 453.609 499.542 457.964C499.927 465.516 500.49 473.057 500.922 480.604C501.432 489.594 501.964 498.589 502.323 507.583C502.453 510.719 502.844 514.063 500.198 516.552C491.703 520.344 483.24 519.188 474.984 516.953C472.479 514.276 473.115 511.234 473.109 508.396ZM572.776 516.964C581.646 516.089 590.724 517.698 599.047 515.401C601.474 511.833 600.453 509.313 598.604 506.807C596.193 503.536 593.703 500.307 591.536 496.88C587.969 491.245 584.604 485.479 581.219 479.724C580.25 478.078 578.505 476.724 578.854 474.526C579.396 474.099 579.797 473.667 580.292 473.396C593.911 466.042 597.932 450.5 593.984 435.542C592.297 429.141 588.073 424.359 584.297 419.182C579.333 412.391 572.859 408.76 564.714 407.422C552.505 405.411 540.443 405.25 527.479 409.547C526.995 411.594 526.193 413.505 526.146 415.438C526.036 419.786 526.208 424.151 526.427 428.5C526.672 433.432 527.354 438.354 527.401 443.286C527.604 463.927 527.646 484.568 527.745 505.214C527.755 507.536 527.547 509.891 527.844 512.182C528.089 514.083 528.922 515.906 529.552 517.964C537.469 519.438 545.026 518.74 552.531 518.62C554.12 518.594 555.698 517.51 557.214 516.943C559.802 510.031 557.573 503.25 557.583 495.495C562.271 502.063 561.828 509.339 565.115 514.76C567.516 516.974 570.167 517.219 572.776 516.964ZM565.974 447.99C564.089 450.573 562.281 451.724 559.245 450.948C556.469 448.625 555.224 444.979 554.688 441.375C554.109 437.536 554.562 433.542 554.562 428.125C559.479 431.146 563.109 433.745 565.979 437.667C565.979 441.219 565.979 444.885 565.974 447.99ZM409.714 600.167C408.953 606.422 411.682 611.49 414.745 616.49C416.708 619.693 419.453 621.578 423.859 621.078C427.729 619.151 430.115 615.604 431.109 611.188C431.807 608.083 431.953 604.859 432.422 601.703C432.714 599.745 433.151 597.807 433.609 595.396C436.083 595.026 438.328 594.333 440.542 594.432C447.151 594.74 453.844 593.302 459.755 594.698C462.151 597.151 462.156 599.479 462.307 601.823C462.568 605.875 462.865 609.938 463.365 613.964C464.177 620.453 462.88 626.755 461.427 632.948C460.344 637.578 456.839 641.042 453.51 644.281C442.047 655.438 428.557 658.656 413.375 653.573C408.734 652.016 404.125 649.964 399.995 647.354C391.568 642.031 386.526 633.781 382.688 624.87C380.026 618.693 378.651 612.089 378.557 605.328C378.432 596.016 378.401 586.698 378.557 577.385C378.672 570.292 380.708 563.63 384.021 557.365C386.365 552.932 389.609 549.323 393.51 546.12C400.318 540.531 407.635 535.828 415.781 532.563C427.302 527.948 437.792 529.359 447.339 537.901C452.969 542.938 456.766 548.844 459.125 555.885C460.042 558.625 461.74 561.193 462.198 563.984C463.182 569.948 463.594 576.01 464.276 582.339C462.411 583.156 460.906 584.365 459.365 584.401C451.839 584.599 444.307 584.484 436.161 584.479C432.453 577.24 430.672 569.599 424.245 564.297C423.005 564.63 421.255 564.578 420.411 565.427C418.396 567.458 416.479 569.734 415.109 572.234C412.146 577.641 410.354 583.474 410.12 589.703C409.984 593.193 410.135 596.714 409.714 600.172L409.714 600.167ZM355.604 564.479C355.286 573.719 358.75 583.255 356.875 593.406C352.411 594.823 349.089 594.417 345.646 593.359C333.464 589.599 321.25 585.922 308.995 582.406C304.833 581.208 300.521 580.547 296.266 579.698C293.75 579.198 291.208 578.813 288.057 578.266C290.49 571.526 293.922 565.958 297.203 559.786C299.177 559.786 301.167 559.786 303.161 559.786C316.224 559.813 329.281 559.839 342.344 559.854C347.068 559.865 351.646 560.297 355.604 564.479ZM305.573 542.99C307.13 536.359 309.62 530.083 312.812 524.307C323.484 518.958 334.349 515.146 345.818 513.125C348.995 512.563 352.182 512.042 354.578 515.042C356.469 522.922 356.557 532.755 354.667 540.339C353.026 540.734 351.146 541.464 349.224 541.599C346.052 541.828 342.859 541.656 339.672 541.682C331.276 541.75 322.891 541.813 314.589 543.438C311.807 543.984 308.891 544.62 305.573 542.99ZM314.833 504.417C312.807 493.547 316.427 483.135 316.604 472.932C330.146 462.594 342.469 451.703 351.365 437.453C353.453 436.135 355.203 436.573 357.276 439.271C357.818 454.063 358.391 469.677 358.938 484.63C356.875 488.651 354.005 490.453 350.521 491.443C342.932 493.599 335.844 496.865 329.062 500.885C326.828 502.203 324.286 502.99 321.911 504.078C319.693 505.089 317.474 505.057 314.833 504.417ZM304.604 529.276C306.427 524.979 307.016 520.323 307.068 515.609C307.104 512.422 307.099 509.161 307.719 506.057C309.604 496.594 310.62 487.083 310.172 479.484C310.172 473.073 310.245 468.703 310.161 464.339C309.969 453.672 305.526 445.245 296.521 439.427C292.615 436.901 288.448 434.786 284.516 432.302C275.594 426.667 265.911 424.495 255.396 424.932C246.339 425.307 238.927 428.708 233.578 435.891C226.286 445.688 219.021 455.552 213.505 466.516C209.073 475.339 205.182 484.443 200.547 493.151C196.016 501.656 191.703 510.167 189.724 519.688C189.432 521.089 188.766 522.443 188.099 523.729C183.849 531.901 182.87 540.943 181.318 549.781C179.557 559.797 178.099 569.885 177.099 580.005C176.365 587.5 175.995 595.125 176.5 602.625C177.24 613.641 184.276 621.391 194.995 624.328C208.87 628.125 222.526 628.359 235.885 622.068C243.359 618.547 250.078 614.224 255.281 607.635C259.786 601.927 264.422 596.292 269.417 591.016C275.865 584.198 280.719 576.271 286.021 568.641C294.417 556.552 298.932 542.641 304.604 529.276ZM271.359 528.703C273.688 527.891 275.594 525.563 278.318 526.526C279.714 528.063 279.12 529.51 278.51 530.75C274.932 538.036 271.229 545.26 267.635 552.542C264.281 559.339 260.167 565.656 255.406 571.526C247.99 580.672 238.557 587.391 228.37 593.099C227.224 593.74 225.792 593.87 222.964 594.672C226.167 590.38 229.734 589 232.286 586.49C234.766 584.052 237.286 581.651 239.734 579.182C242.391 576.5 245.172 573.911 247.547 571C249.922 568.089 251.943 564.88 253.969 561.708C255.839 558.771 257.646 555.781 259.219 552.677C260.911 549.344 262.297 545.859 264.016 541.979C257.776 540.901 252.557 545.906 246.839 543.208C245.505 541.276 246.812 539.74 248.109 538.865C252.604 535.823 255.401 531.438 258.156 527.005C261.995 520.849 265.802 514.672 269.474 508.417C273.448 501.646 277.089 494.714 278.625 486.891C278.776 486.099 279.281 485.375 280.542 482.599C282.359 494.635 280.922 504.12 276.094 513.109C273.365 518.193 270.734 523.328 268.125 528.313C269.276 529.932 270.323 529.068 271.359 528.703ZM282.995 586.151C308.948 595.766 333.849 607.37 359.109 619.661C358.99 632.208 358.911 643.818 358.708 655.422C358.688 656.807 357.99 658.182 357.698 659.224C355.255 661.38 353.068 660.974 351.021 659.479C344.911 655.016 338.823 650.521 332.786 645.958C329.307 643.323 325.812 640.682 322.562 637.776C311.865 628.198 299.677 620.818 287.432 613.49C281.719 610.073 276.062 606.552 270.339 602.464C273.667 596.115 278.646 591.667 282.995 586.151ZM692.557 434.76C692.229 428.083 692.25 421.391 692.307 414.703C692.318 413.344 693.172 411.99 693.729 410.359C702.938 407.87 712.161 409.375 721.359 409.448C731.042 418.365 735.969 430.604 745.406 440.677C744.99 434.38 744.297 429.052 744.396 423.74C744.49 418.661 742.911 413.271 746.271 408.271C753.146 407.245 760.099 407.87 767.021 407.932C770.339 407.964 772.885 410.542 773.651 413.896C773.974 415.302 774.104 416.776 774.135 418.219C774.484 435.964 774.953 453.703 775.052 471.448C775.099 480.75 774.557 490.057 774.115 499.354C773.849 504.865 771.547 509.88 770.552 515.375C761.693 516.411 753.651 516.823 746.37 515.901C743.333 514.198 742.714 511.927 741.859 509.76C737.906 499.771 733.292 490.115 727.234 480.641C725.24 485.38 724.807 489.885 724.802 494.479C724.802 499.719 724.792 504.958 724.76 510.198C724.745 512.547 724.667 514.891 722.604 516.563C718.099 517.599 705.443 518.229 700.135 517.49C698.786 517.302 697.531 516.458 695.854 515.76C695.62 513.391 695.234 511.13 695.193 508.859C694.891 493.151 694.828 477.438 694.344 461.734C694.062 452.734 693 443.76 692.557 434.76ZM173.958 602.089C174.161 605.234 175.193 608.313 175.604 611.453C175.807 613.031 175.469 614.682 175.349 616.823C173.391 616.484 171.854 616.589 170.729 615.964C165.312 612.969 160.812 608.76 156.781 604.167C146.016 591.906 135.734 579.266 128.031 564.75C119.177 548.073 113.776 530.432 112.854 511.5C112.615 506.563 112.141 501.635 112.016 496.698C111.672 483.005 115.109 470.182 121.391 458.109C124.823 451.51 130.391 446.776 136.177 442.328C138.016 440.911 140.135 439.859 141.964 438.432C146.245 435.104 151.193 433.76 156.432 432.802C166.5 430.958 174.911 434.115 181.844 441.151C188.375 447.781 194.516 454.807 200.698 461.771C203.198 464.589 205.5 467.651 205.521 472.458C203.302 475.547 200.562 478.922 198.307 482.594C196.073 486.24 194.323 490.188 192.161 494.396C182.953 489.016 178.88 480.141 173.823 472.313C171.443 472.432 171.271 473.75 171.854 475.266C175.219 483.969 179.156 492.391 184.667 499.99C185.854 501.625 187.062 503.24 188.026 504.542C185.078 517.703 181.901 530.38 179.443 543.193C175.719 562.625 172.682 582.182 173.958 602.089ZM933.599 461.271C935.516 461.568 937.453 461.74 939.38 461.953C938.062 465.063 933.734 462.911 932.271 465.911C930.333 470.016 930.786 474.266 931.49 478.245C933.349 480.198 935.224 480.193 937.37 479.927C946.891 478.771 956.438 477.823 965.964 476.708C968.771 476.375 971.547 475.729 974.526 475.198C974.688 470.745 975.594 466.776 973.875 462.661C971.083 462.938 968.51 463.214 965.932 463.432C962.964 463.682 962.964 463.661 958.604 462.13C960.917 460.891 962.891 459.755 964.932 458.75C966.755 457.854 968.729 457.24 970.5 456.255C974.495 454.026 974.792 451.932 972.031 447.031C965.865 446.193 939.328 445.792 933.76 446.547C932.979 446.651 932.276 447.349 931.427 447.828C930.333 452.115 930.01 456.313 931.682 460.146C932.609 460.708 933.073 461.193 933.599 461.271ZM943.411 459.641C942.099 462.01 940.927 461.891 939.901 461.813C940.693 461.323 941.578 460.776 943.411 459.641ZM973.568 572.589C974.745 576.151 975.057 579.479 973.104 583.271C971.651 583.568 970.01 584.188 968.37 584.182C956.224 584.146 944.047 584.516 932.141 582.318C929.26 577.823 930.38 573.719 931.599 569.229C939.547 567.24 947.349 565.292 955.385 563.281C954.667 560.609 952.615 561.016 951.276 560.656C947.078 559.547 942.781 558.818 938.578 557.74C936.396 557.182 934.318 556.198 932.547 555.542C931.552 551.865 931.354 548.214 931.958 544.583C932.75 544.13 933.698 543.167 934.719 543.078C946.849 542.026 958.99 541.917 970.974 542.734C973.583 545.875 973.01 548.922 972.172 552.438C970.646 553.031 969.141 553.943 967.542 554.161C964.703 554.557 961.812 554.536 957.635 554.76C962.13 557.922 965.88 558.125 969.62 558.422C971.182 558.542 971.177 558.63 973.677 561.563C972.599 563.063 971.453 564.651 970.495 565.984C965.26 567.615 959.833 567.026 954.594 570.286C961.12 573.828 967.865 569.307 973.568 572.589ZM973.005 638.063C972.724 641.786 971.13 644.714 968.24 646.974C964.688 649.75 960.651 651.193 956.12 651.063C950.26 650.896 944.651 649.464 939.188 647.432C933.948 645.484 931.302 641.526 931.307 636.089C931.312 630.573 933.099 625.776 938.651 623.354C940.24 622.661 941.906 622.109 943.583 621.672C945.385 621.203 947.047 621.641 948.302 623.099C949.557 624.557 949.839 626.354 949.057 627.974C948.339 629.474 947.109 630.75 946 632.031C945.26 632.885 944.333 633.578 943.156 634.641C946.026 640.286 948.521 641.464 954.693 640.646C959.969 639.953 961.031 639.146 961.969 634.719C959.833 633.714 957.583 632.651 955.203 631.531C953.516 627.724 953.318 624.339 957.682 621.557C958.911 621.734 960.354 621.797 961.714 622.156C970.089 624.385 973.641 629.51 973.005 638.063ZM963.38 526.271C962.818 524.578 962.38 522.932 961.729 521.375C958.411 513.5 952.349 510.016 943.771 510.984C936.458 511.807 931.583 516.521 930.745 523.854C930.38 527.01 930.271 530.214 930.365 533.385C930.417 534.99 931.182 536.578 931.573 537.969C939.734 539.12 966.865 539.104 972.734 537.995C975.094 534.719 975.646 531.349 973.036 527.568C969.885 527.146 966.797 526.729 963.38 526.271ZM941.714 526.016C942.625 524.276 943.036 522.583 944.115 521.677C945.547 520.469 947.422 521.083 948.792 522.24C949.807 523.094 950.547 524.271 951.792 525.766C948.203 527.229 945.349 527.208 941.714 526.016ZM637.734 542.698C637.833 549.313 638.865 556.01 636.708 563.047C634.911 563.552 633.052 564.453 631.156 564.542C626.224 564.766 621.271 564.745 616.339 564.62C611.875 564.505 607.698 565.365 603.469 567.521C601.823 571.583 602.203 575.745 603.276 580.208C608.01 581.76 612.672 580.833 617.224 581.115C621.771 581.396 626.599 580.089 631.047 583.745C631.328 585.026 631.87 586.667 632.021 588.344C632.479 593.547 632.917 598.76 633.089 603.979C633.151 605.859 632.432 607.771 632.073 609.651C621.917 612.255 611.885 609.302 601.906 611.693C600.354 617.974 602.068 624.026 601.839 630.021C601.62 635.792 600.958 641.542 600.469 647.589C598.818 648.401 597.339 649.714 595.812 649.771C587.688 650.078 579.552 650.125 571.422 650.104C570.464 650.104 569.505 649.13 568.521 648.589C569.13 644.885 569.885 641.557 570.177 638.188C570.458 635.016 570.224 631.802 570.271 628.604C570.312 625.703 570.203 622.771 570.552 619.901C572.958 600.214 571.948 580.443 572.057 560.698C572.073 557.536 571.177 554.38 570.995 551.203C570.781 547.464 570.766 543.693 570.896 539.948C570.995 536.896 572.401 534.385 575.13 532.323C581.271 531.646 587.594 531.719 593.714 534.099C599.49 536.344 605.458 537.141 611.646 536.932C617.453 536.74 623.271 536.844 629.083 536.938C631.349 536.974 633.615 537.349 636.13 537.594C636.755 539.495 637.708 541.089 637.734 542.698ZM1059.66 453.703C1059.46 441.5 1058.17 429.344 1055.5 417.354C1054.05 410.839 1053.21 404.193 1052.12 397.604C1051.03 391.01 1050.29 384.339 1048.81 377.833C1047.66 372.755 1045.61 367.88 1043.96 362.911C1040.23 351.667 1032.67 345.859 1020.68 345.214C1016.61 344.995 1012.53 345.094 1008.45 345.094C922.833 345.047 837.219 345.016 751.604 344.932C744.911 344.927 738.214 344.625 731.526 344.359C724.547 344.083 717.573 343.646 710.594 343.354C703.323 343.047 696.042 342.922 688.771 342.563C649.505 340.609 610.214 339.396 570.906 339.146C533.63 338.911 496.354 339.068 459.078 339.036C455.005 339.031 450.927 339 446.854 338.87C434.344 338.458 421.839 337.979 409.328 337.557C403.802 337.375 398.266 337.307 392.74 337.13C381.974 336.786 371.214 336.094 360.448 336.078C258.812 335.943 157.182 335.922 55.5521 335.875C52.6406 335.875 49.7187 335.818 46.8177 335.974C41.1875 336.276 35.9219 337.885 31.224 341.026C23.7135 346.042 20.6979 354.583 23.3385 363.198C23.9323 365.13 24.8125 366.979 25.6719 369.156C24.3594 374.594 23.4427 379.474 21.9948 384.188C18.7187 394.833 19.4635 405.729 21.4427 416.198C23.6927 428.146 26.9219 439.958 29.7135 451.833C32.2344 462.578 35.4687 473.146 36.8281 484.151C37.2917 487.896 38.0521 491.63 39.0417 495.271C41.3542 503.776 42.0365 512.401 42.0104 521.193C41.8906 564.563 42.0104 607.938 41.8281 651.313C41.7969 659.729 41.0677 668.161 40.224 676.547C39.3229 685.505 37.625 694.385 36.8073 703.344C36.2344 709.698 36.0833 716.167 36.5625 722.521C37.3698 733.25 44.599 740.771 55.2292 742.63C58.3698 743.177 61.5885 743.438 64.7813 743.589C83.7552 744.484 102.646 743.198 121.328 740.068C139.766 736.974 158.323 735.839 176.932 734.984C188.568 734.453 200.193 733.781 211.818 733.109C228.375 732.146 244.885 730.484 261.505 730.5C419.339 730.641 577.177 730.75 735.01 730.682C749.547 730.677 764.094 729.547 778.615 728.609C792.552 727.708 806.469 726.464 820.38 725.208C828.781 724.453 837.177 723.552 845.536 722.427C856.208 720.995 866.812 718.766 877.63 719.125C896.042 719.734 914.24 717.474 932.469 715.552C942.307 714.521 952.094 712.927 962.042 713.286C964.354 713.37 966.682 712.927 969.005 712.781C974.229 712.448 979.453 711.938 984.682 711.885C997.786 711.745 1010.9 712.005 1023.99 711.76C1037.05 711.51 1045.8 703.427 1047.48 690.505C1048.23 684.74 1048.67 678.932 1049.54 673.188C1050.67 665.672 1050.97 658.135 1050.91 650.557C1050.82 640.953 1050.99 631.344 1050.88 621.74C1050.64 601.302 1053.11 581.063 1055.81 560.896C1057.9 545.286 1059.04 529.625 1059.54 513.958C1060.18 493.891 1059.98 473.786 1059.66 453.703ZM1020.34 514.188C1020.09 527.552 1018.69 540.859 1017.31 554.177C1015.91 567.766 1013.95 581.286 1012.88 594.932C1011.28 615.302 1012.04 635.646 1011.62 655.995C1011.55 659.484 1011.46 662.984 1011.09 666.448C1010.88 668.411 1010.07 670.307 1009.49 672.417C1007.54 672.667 1005.85 673.052 1004.15 673.078C998.911 673.167 993.672 673.073 988.427 673.125C969.208 673.313 950.078 674.635 930.943 676.531C911.854 678.422 892.812 681.443 873.5 680.365C865.026 679.896 856.589 680.88 848.323 682.552C833.411 685.568 818.26 685.906 803.198 687.26C793.927 688.099 784.651 688.906 775.365 689.516C761.719 690.406 748.057 691.786 734.406 691.797C609.776 691.911 485.146 691.776 360.516 691.703C357.042 691.698 353.568 691.536 349.917 691.448C343.453 685.87 336.797 680.651 330.74 674.813C312.505 657.24 294.51 639.422 276.411 621.708C272.281 617.667 268.109 613.667 263.76 609.458C260.286 611.224 257.995 613.885 255.354 616.073C252.927 618.083 250.557 620.161 247.703 622.609C258.083 632.896 266.927 644 275.172 655.557C283.391 667.089 292.589 677.922 300.453 689.604C299.505 690.464 299.13 691.125 298.688 691.167C288.828 692.161 278.958 691.573 268.969 691.526C267.818 689.964 266.651 688.677 265.823 687.203C258.943 675 253.333 662.276 249.5 648.745C247.682 642.328 244.995 636.161 242.625 629.917C242.333 629.156 241.578 628.573 240.792 627.615C234.203 629.432 227.568 631.26 221.542 632.927C219.38 635.63 219.786 637.995 220.458 640.203C225.37 656.349 227.031 673.323 233.047 689.177C233.245 689.698 233.177 690.318 233.292 691.484C232.161 691.849 230.927 692.495 229.646 692.615C225.016 693.052 220.375 693.313 216.203 693.604C213.344 691.688 213.906 689.203 213.849 686.958C213.443 670.969 213.078 654.974 212.661 638.984C212.651 638.464 212.208 637.953 211.964 637.438C204.526 634.573 201.333 634.151 194.323 635.135C192.094 637.089 192.141 639.766 192.339 642.359C193.536 658.104 191.823 673.766 191.188 689.464C191.12 691.151 190.708 692.828 190.484 694.318C184.266 696.083 172.901 696.453 162.974 695.255C162.943 690.896 164.901 686.974 166.094 682.927C167.411 678.469 169.078 674.115 170.536 669.698C171.906 665.552 173.245 661.401 174.505 657.224C175.844 652.771 176.953 648.245 178.38 643.818C179.703 639.714 181.312 635.698 182.932 631.276C177.104 627.365 173.047 621.37 165.307 620.141C158.599 633.479 151.839 646.01 145.927 658.932C140.01 671.87 134.948 685.193 129.422 698.547C124.276 699.677 119.531 701.979 113.776 700.484C114.719 698.188 115.453 696.323 116.245 694.474C119.682 686.458 123.302 678.521 126.526 670.427C130.203 661.198 134.542 652.344 140.208 644.193C142.365 641.094 144.755 638.141 147.245 635.302C152.438 629.38 156.349 622.615 160.734 615.932C157.906 609.51 152.073 606.781 147.188 602.688C144.901 604.047 142.875 604.755 141.557 606.135C137.755 610.141 134.036 614.255 130.651 618.609C118.49 634.266 105.969 649.557 90.5885 662.255C88.125 664.292 85.9115 666.625 83.5052 668.74C82.9427 669.24 82.0885 669.406 81.1823 669.807C81.1875 659.068 81.1927 648.656 81.1979 638.089C87.0521 632.156 93.8385 627.609 100.042 622.385C106.495 616.948 113.042 611.62 119.349 606.031C125.385 600.682 132.396 596.359 137.609 589.724C134.49 585.365 131.656 581.344 128.734 577.391C128.245 576.729 127.375 576.354 126.714 575.875C122.818 575.109 119.896 577.234 116.875 578.901C106.932 584.37 97.0313 589.911 87.0937 595.391C85.6042 596.208 84 596.807 82.0729 597.682C80.6198 591.516 81.0469 585.828 81.724 579.682C94.2604 575.094 106.911 570.828 118.536 564.37C119.438 562.307 117.667 561.151 117.234 559.615C116.839 558.219 116.38 556.839 115.927 555.464C115.391 553.807 114.823 552.167 114.255 550.464C110.339 548.188 106.224 549.182 102.266 549.49C96.7552 549.917 91.276 550.745 85.7813 551.37C84.6823 551.495 83.5625 551.479 82.1146 551.547C80.651 546.771 81.1042 542.25 81.6875 537.672C85.5729 535.042 89.75 536.349 93.7083 536.203C97.7708 536.052 101.844 536.172 105.75 536.172C108 531.094 108.307 522.771 106.677 514.661C104.667 511.818 101.557 511.188 98.3385 510.714C94.3125 510.115 90.2813 509.521 86.2865 508.745C84.6302 508.422 83.0625 507.625 81.0677 506.906C79.8281 500.005 78.599 493.208 77.2708 485.823C78.9635 485.604 80.3177 485.161 81.6094 485.307C85.3646 485.74 89.0937 486.385 92.8281 486.984C95.9844 487.49 99.125 488.167 102.245 487.203C105.031 484.818 105 481.422 105.745 478.391C106.505 475.286 107.109 472.13 107.51 468.958C107.906 465.828 108.911 462.656 107.318 458.865C102.057 454.365 94.4115 453.823 88.0573 450.443C81.6667 447.042 74.9115 444.318 68.0521 441.182C67.7552 440.682 67.0885 440 66.8958 439.203C64.526 429.318 62.151 419.432 59.9219 409.516C58.7656 404.365 58.6563 399.135 59.8437 393.958C60.1458 392.651 60.8542 391.443 61.6875 389.443C71.8646 399.563 81.2917 409.411 91.2396 418.703C100.969 427.792 109.849 437.693 119.312 447.359C122.969 444.37 126.318 441.635 130.057 438.583C129.094 436.458 128.224 434.401 127.224 432.406C126.188 430.328 125.083 428.281 123.901 426.276C121.104 421.521 118.302 416.76 115.385 412.073C113.396 408.87 111.245 405.76 109.099 402.656C107.943 400.979 106.448 399.516 105.458 397.76C103.318 393.964 101.536 389.964 99.3646 386.182C97.3854 382.75 95.0937 379.5 92.8906 376.094C98.9219 374.469 119.594 374.198 129.698 375.547C132.312 378.51 133.859 382.286 135.219 386.089C138.542 395.401 141.646 404.786 144.922 414.115C146.266 417.948 147.776 421.729 149.328 425.484C149.641 426.229 150.474 426.76 151.354 427.703C155.359 428.323 159.635 429.151 163.948 429.604C168.302 430.068 170.542 428.005 170.495 423.526C170.469 420.958 169.99 418.339 169.333 415.839C166.24 404 164.094 391.99 162.531 379.865C162.385 378.75 162.51 377.594 162.51 376.318C165.458 374.078 168.76 374.995 171.828 374.849C175.026 374.693 178.234 374.766 181.438 374.833C184.589 374.896 187.833 374.396 191.078 375.948C192.828 383.083 192.37 390.385 192.99 397.563C193.589 404.521 193.698 411.516 194.161 418.484C194.641 425.74 195.286 432.979 195.891 440.646C200.042 446.469 204.396 452.604 208.812 458.698C209.094 459.083 209.859 459.12 210.953 459.526C211.891 458.484 213.391 457.443 213.938 456.031C214.536 454.479 214.328 452.594 214.344 450.849C214.385 445.615 214.474 440.37 214.349 435.135C214.047 422.87 215.297 410.74 216.927 398.609C217.589 393.719 217.703 388.75 218.135 383.823C218.359 381.26 218.74 378.714 219.021 376.38C225.255 374.49 243.609 374.229 252.719 375.849C252.448 377.198 252.318 378.573 251.896 379.859C249 388.698 245.995 397.505 243.135 406.359C242.24 409.12 241.417 411.953 241.068 414.818C240.839 416.672 241.526 418.635 241.745 420.135C246.234 422.615 249.703 419.615 253.406 419.672C256.875 419.729 260.349 419.526 263.771 419.432C267.276 416.182 269.073 412.177 270.932 408.281C276.76 396.094 284.479 385.276 294.266 375.208C302.839 374.875 311.703 374.286 321.292 375.677C318.651 382.271 314.464 387.141 311.411 392.625C308.161 398.458 304.448 404.036 300.87 409.688C297.464 415.073 293.969 420.406 290.328 426.057C290.99 427.135 291.5 428.604 292.516 429.495C296.87 433.339 301.365 437.031 305.833 440.745C308.99 443.37 311.453 443.526 314.307 440.677C318.833 436.156 323.219 431.479 327.417 426.651C335.047 417.865 342.573 408.979 350 400.016C354.823 394.198 359.38 388.151 364.104 382.245C365.906 379.99 367.844 377.839 369.807 375.542C372.911 375.542 375.797 375.49 378.677 375.552C387.995 375.766 397.307 375.974 406.62 376.271C416.802 376.599 426.979 377.052 437.156 377.401C442.974 377.599 448.797 377.802 454.62 377.807C495.969 377.865 537.318 377.802 578.667 377.943C588.849 377.974 599.026 378.583 609.208 378.953C612.115 379.063 615.026 379.432 617.927 379.38C640.656 378.979 663.323 380.604 686.01 381.401C700.849 381.917 715.677 382.682 730.516 383.193C740.698 383.542 750.891 383.807 761.078 383.818C839.99 383.906 918.901 383.922 997.818 383.974C1001.57 383.979 1005.33 384.125 1008.8 384.198C1012.31 388.531 1012.75 393.328 1012.95 397.844C1013.42 408.094 1015.88 417.938 1017.78 427.932C1019.41 436.464 1020.23 445.25 1020.38 453.938C1020.73 474.016 1020.71 494.109 1020.34 514.188ZM975.797 490.875C976.672 486.745 976.193 483.208 974.281 479.536C968.974 479.161 964.474 481.5 959.844 482.828C954.849 484.266 949.969 486.203 945.219 488.328C940.802 490.307 935.365 489.672 931.755 493.344C931.755 497.682 931.708 497.698 934.182 502.078C940.411 504.031 947.141 505.797 953.604 508.255C960.089 510.724 966.307 513.891 973.224 517.005C976.01 513.875 976.12 513.87 976.068 511.578C976 508.74 976.781 505.734 974.76 503.266C972.417 502.125 970.141 501.021 967.682 499.823C968.094 497.74 968.417 496.099 968.724 494.557C971.281 493.224 973.547 492.047 975.797 490.875ZM956.583 498.109C958.542 496.063 959.964 496.073 961.656 497.474C960.208 499.526 958.74 498.87 956.583 498.109ZM977.75 417.37C978.417 421.828 978.917 425.5 976.823 429.406C975.224 429.693 973.578 430.177 971.911 430.25C968.729 430.391 965.531 430.438 962.354 430.281C957.542 430.042 953.255 431.323 949.167 433.833C946.224 435.641 943.068 437.13 939.938 438.609C938.932 439.078 937.698 439.198 936.568 439.208C935.755 439.214 934.943 438.771 933.938 438.469C931.865 434.651 932.594 430.76 933.422 426.755C936.073 425.354 938.568 424.036 941.12 422.688C939.948 418.672 935.443 419.568 933.26 416.193C932.818 412.5 930.844 408.099 934.125 403.302C935.536 403.74 936.979 403.911 938.12 404.589C942.104 406.938 946.089 409.323 949.885 411.964C954.802 415.38 959.885 417.443 966.089 416.521C969.724 415.979 973.542 415.901 977.75 417.37ZM966.385 590.036C959.698 587.703 952.833 586.958 945.792 587.839C940.573 588.495 936.443 591.01 933.604 595.365C926.547 606.198 930.234 613.245 941.693 615.901C944.776 616.62 948.026 616.609 951.833 617C957.547 618.177 963.26 616.693 968.531 613.047C971.339 611.104 973.016 608.526 973.26 605.13C973.406 603.109 973.417 601.073 973.323 599.052C973.12 594.458 970.635 591.516 966.385 590.036ZM960.568 605.396C953.828 607.286 947.51 608.917 941.495 604.182C941.125 600.422 942.312 598.568 944.885 597.953C950.385 596.635 955.583 597.75 961.109 599.818C960.901 602 960.745 603.599 960.568 605.396ZM920.302 406.646C920.927 408.651 921.974 410.51 921.995 412.38C922.036 416.729 921.661 421.083 921.312 425.422C920.896 430.641 919.943 435.839 919.911 441.052C919.818 456.177 919.167 471.313 920.578 486.422C920.953 490.469 920.901 494.563 920.901 498.635C920.911 526.281 921.026 553.932 920.792 581.578C920.719 589.99 919.573 598.385 919.089 606.797C918.656 614.344 918.469 621.901 918.156 629.453C918.016 632.875 918.63 636.453 916.375 639.453C910.745 640.344 889.297 640.74 881.307 640.083C878.703 637.786 879.036 634.495 878.927 631.354C878.495 619.109 879.427 606.948 881.13 594.823C881.656 591.094 881.995 587.307 882.005 583.542C882.089 554.443 882.104 525.339 882.047 496.234C882.042 492.474 881.521 488.708 881.219 484.948C881.172 484.37 880.948 483.802 880.932 483.229C880.495 465.781 879.854 448.323 881.38 430.901C882.01 423.682 883.229 416.516 884.193 409.245C890.318 406.505 896.552 407.854 902.495 407.094C908.24 406.365 914.062 406.177 920.302 406.646ZM711.708 546.38C710.906 551.484 710.068 556.859 709.339 561.505C706.729 564.297 704.078 564.365 701.448 564.276C692.984 563.995 684.667 564.932 675.339 567.328C675.521 571.135 675.682 574.521 675.854 578.203C685.531 580.609 695.365 577.302 704.078 580.328C705.984 587.807 706.042 599.667 704.422 607.052C702.422 609.568 699.557 609.813 696.594 609.943C690.49 610.214 684.391 610.552 678.297 610.948C676.922 611.036 675.573 611.484 673.917 611.828C673.792 618.073 676.719 623.375 677.344 629.057C677.948 634.505 678 640.021 676.932 645.734C675.109 646.438 673.557 647.13 671.953 647.63C669.182 648.484 666.391 649.271 663.583 649.984C660.766 650.698 657.948 651.474 655.078 651.896C649.354 652.729 646.823 650.651 646.557 644.964C646.391 641.479 646.505 637.979 646.505 634.49C646.51 620.813 646.505 607.135 646.526 593.464C646.542 585.313 646.484 577.193 644.714 569.151C644.099 566.349 644.177 563.375 644.078 560.469C643.875 554.391 644.484 548.292 642.781 542.266C642.302 540.573 643.292 538.469 643.62 536.5C647.693 535.375 651.25 534.083 654.917 533.484C657.427 533.078 660.208 533.214 662.677 533.844C674.016 536.734 685.479 538.313 697.198 538.005C698.932 537.964 700.682 538.193 702.417 538.344C707.302 538.76 710.589 541.099 711.708 546.38ZM662.318 519.099C666.318 515.5 670.255 511.63 674.536 508.182C679.276 504.359 682.115 499.432 683.922 493.818C685.802 488 687.042 482.083 686.818 475.87C686.578 469.198 686.583 462.5 686.812 455.828C687.161 445.656 684.349 436.396 679.724 427.458C671.083 410.755 656.875 403.49 638.703 402.74C636.396 402.646 633.948 402.526 631.776 403.151C615.276 407.87 602.281 421.031 601.719 437.474C601.661 439.208 601.292 440.932 601.12 442.667C599.411 459.651 601.521 476.26 606.167 492.599C607.438 497.068 608.896 501.63 612.214 505.021C619.484 512.453 628.156 517.854 638.557 519.214C646.286 520.224 654.188 519.979 662.318 519.099ZM637.562 479.479C636.812 477.922 636.281 476.193 636.026 474.484C634.146 461.938 634.292 449.557 639.589 437.698C639.927 436.938 640.615 436.328 641.161 435.615C646.625 433.583 650.76 435.578 654.547 440.031C656.422 446.151 656.562 452.865 656.979 459.51C657.229 463.568 656.896 467.661 657.057 471.729C657.307 478.031 654.792 482.938 650.167 486.99C643.906 487.635 640.052 484.62 637.562 479.479ZM787.5 626.656C787.578 628.969 787.453 631.313 787.182 633.615C786.755 637.354 786.328 641.115 785.505 644.776C785.089 646.615 783.807 648.26 782.948 649.938C780.729 650.141 779.016 650.391 777.297 650.438C774.391 650.51 771.479 650.552 768.578 650.443C756.047 649.99 743.609 650.797 731.245 652.833C728.057 653.359 724.896 653.844 722.052 651.698C720.219 649.896 719.995 647.583 720.052 645.234C720.271 636.531 720.573 627.828 720.776 619.125C721.323 595.62 722.901 572.094 719.786 548.635C719.443 546.068 718.604 543.568 718.182 541.005C717.958 539.656 718.146 538.245 718.146 536.823C737.88 531.953 757.568 531.943 777.281 532.292C779.932 532.339 782.521 532.547 784.641 534.401C786.99 541.036 787.12 553.182 784.922 560.766C782.484 563.411 779.203 563.365 776.026 563.417C770.214 563.505 764.396 563.406 758.583 563.479C756.307 563.51 754.042 563.802 751.771 563.974C749.953 567.016 750.625 569.818 750.995 572.438C753.188 575.125 756.01 575.635 758.969 575.703C762.167 575.781 765.37 575.677 768.562 575.807C770.87 575.906 773.229 576.01 775.453 576.563C779.948 577.693 782.443 581.078 781.948 585.526C781.474 589.807 780.568 594.042 779.927 597.844C777.828 600.229 775.448 600.203 773.135 600.229C767.615 600.286 762.089 600.208 756.568 600.297C754.297 600.333 752.036 600.667 749.714 600.87C747.792 606.052 749.807 610.25 751.359 614.667C755.672 616.135 760.042 615.958 764.359 616.031C768.719 616.104 773.094 615.849 777.438 616.094C784.312 616.479 787.26 619.656 787.5 626.656ZM863.859 509.302C864.234 513.557 864.271 513.557 862.458 518.516C853.318 521.333 846.604 520.656 838.625 515.781C835.5 516.323 831.802 516.969 828.109 517.609C820.536 518.927 813.068 518.656 805.688 516.302C798.531 514.021 793.74 509.333 791.099 502.385C790.484 500.755 789.917 499.089 789.536 497.396C788.146 491.161 786.391 484.964 785.594 478.646C783.245 460 785.573 441.859 795.016 425.469C801.432 414.333 811.521 407.63 825.073 407.651C827.109 407.656 829.146 407.734 831.188 407.745C836.297 407.781 840.917 409.26 845.016 412.339C846.646 413.568 848.276 414.786 849.958 415.938C858.74 421.943 861.745 430.656 861.62 440.807C861.615 441.62 861.016 442.417 860.505 443.698C851.062 447.089 841.964 447.365 832.714 445.693C831.656 442.969 830.729 440.583 829.859 438.349C826.234 436.141 823.302 437.307 821.198 440.031C819.448 442.286 818.146 444.99 817.12 447.677C812.365 460.141 811.203 473.036 812.651 486.13C816.224 490.792 820.859 490 825.141 489.531C828.667 487.281 830.156 484.26 830.755 480.74C828.63 477.177 824.245 478.51 821.995 476.63C819.682 474.495 819.49 472.161 819.625 469.813C819.849 465.823 818.63 461.63 821.161 457.885C824.12 455.594 827.786 455.495 831.156 455.531C840.109 455.641 848.854 451.99 858.255 453.885C858.797 455.656 859.583 457.24 859.729 458.88C860.688 469.599 861.51 480.323 862.375 491.047C862.865 497.135 863.333 503.219 863.859 509.302ZM863.865 623.411C864.083 630.964 864.073 638.526 863.865 646.078C863.812 647.943 862.703 649.781 862.042 651.75C859.938 652.078 858.25 652.568 856.557 652.578C838.849 652.714 821.141 652.807 802.422 651.745C801.594 649.266 800.583 647.448 800.443 645.563C800.167 641.802 800.021 637.974 800.432 634.24C801.87 621.188 801.151 608.104 801.062 595.042C801.016 587.521 799.536 580.021 799.26 572.495C798.88 562.057 798.901 551.604 799.042 541.156C799.078 538.37 800.177 535.594 800.776 532.87C805 531.365 808.714 532.422 812.406 532.724C817.318 533.12 822.214 533.813 827.13 533.938C835.266 534.146 843.411 534 851.552 534.021C854.479 534.026 857.422 534.021 859.938 537.125C861.406 542.844 860.583 549.234 860.469 555.563C860.438 557.146 859.333 558.708 858.62 560.536C856.484 560.844 854.521 561.344 852.552 561.37C845.281 561.469 838.01 561.37 830.745 561.438C828.781 561.453 826.823 561.792 824.646 562C823.536 566.984 823.828 571.531 824.339 576.568C826.021 576.865 827.641 577.38 829.271 577.401C834.792 577.479 840.318 577.375 845.844 577.354C848.438 577.344 851.036 577.354 854.078 577.354C855.031 579.271 856.562 580.979 856.625 582.745C856.807 587.849 858.151 593.219 854.333 598.49C846.219 600.703 837.396 598.458 828.927 599.844C826.87 605.135 826.667 610.484 828.182 619.521C828.865 619.818 829.672 620.5 830.401 620.422C837.302 619.708 844.203 618.974 851.073 618.016C854.542 617.531 857.943 616.875 862.047 618.354C862.594 619.797 863.812 621.589 863.865 623.411Z" fill="#ffffff" fill-rule="nonzero" opacity="1" stroke="none" vectornator:layerName="path"/>
</g>
</g>
</g>
</svg>
